G04 #@! TF.GenerationSoftware,KiCad,Pcbnew,(5.1.6)-1*
G04 #@! TF.CreationDate,2020-09-04T00:39:57+09:00*
G04 #@! TF.ProjectId,forMnu,666f724d-6e75-42e6-9b69-6361645f7063,rev?*
G04 #@! TF.SameCoordinates,Original*
G04 #@! TF.FileFunction,Paste,Top*
G04 #@! TF.FilePolarity,Positive*
%FSLAX46Y46*%
G04 Gerber Fmt 4.6, Leading zero omitted, Abs format (unit mm)*
G04 Created by KiCad (PCBNEW (5.1.6)-1) date 2020-09-04 00:39:57*
%MOMM*%
%LPD*%
G01*
G04 APERTURE LIST*
%ADD10R,2.790000X0.740000*%
%ADD11R,1.200000X1.900000*%
%ADD12R,1.600000X1.900000*%
%ADD13R,2.100000X2.000000*%
%ADD14R,0.400000X1.350000*%
%ADD15R,1.400000X0.600000*%
%ADD16R,1.425000X0.750000*%
%ADD17R,1.050000X0.650000*%
G04 APERTURE END LIST*
G36*
G01*
X72900000Y-66743750D02*
X72900000Y-67256250D01*
G75*
G02*
X72681250Y-67475000I-218750J0D01*
G01*
X72243750Y-67475000D01*
G75*
G02*
X72025000Y-67256250I0J218750D01*
G01*
X72025000Y-66743750D01*
G75*
G02*
X72243750Y-66525000I218750J0D01*
G01*
X72681250Y-66525000D01*
G75*
G02*
X72900000Y-66743750I0J-218750D01*
G01*
G37*
G36*
G01*
X74475000Y-66743750D02*
X74475000Y-67256250D01*
G75*
G02*
X74256250Y-67475000I-218750J0D01*
G01*
X73818750Y-67475000D01*
G75*
G02*
X73600000Y-67256250I0J218750D01*
G01*
X73600000Y-66743750D01*
G75*
G02*
X73818750Y-66525000I218750J0D01*
G01*
X74256250Y-66525000D01*
G75*
G02*
X74475000Y-66743750I0J-218750D01*
G01*
G37*
G36*
G01*
X77275000Y-72756250D02*
X77275000Y-72243750D01*
G75*
G02*
X77493750Y-72025000I218750J0D01*
G01*
X77931250Y-72025000D01*
G75*
G02*
X78150000Y-72243750I0J-218750D01*
G01*
X78150000Y-72756250D01*
G75*
G02*
X77931250Y-72975000I-218750J0D01*
G01*
X77493750Y-72975000D01*
G75*
G02*
X77275000Y-72756250I0J218750D01*
G01*
G37*
G36*
G01*
X78850000Y-72756250D02*
X78850000Y-72243750D01*
G75*
G02*
X79068750Y-72025000I218750J0D01*
G01*
X79506250Y-72025000D01*
G75*
G02*
X79725000Y-72243750I0J-218750D01*
G01*
X79725000Y-72756250D01*
G75*
G02*
X79506250Y-72975000I-218750J0D01*
G01*
X79068750Y-72975000D01*
G75*
G02*
X78850000Y-72756250I0J218750D01*
G01*
G37*
G36*
G01*
X66856352Y-62420805D02*
X67218744Y-62058412D01*
G75*
G02*
X67528104Y-62058412I154680J-154680D01*
G01*
X67837463Y-62367771D01*
G75*
G02*
X67837463Y-62677131I-154680J-154680D01*
G01*
X67475070Y-63039524D01*
G75*
G02*
X67165710Y-63039524I-154680J154680D01*
G01*
X66856351Y-62730165D01*
G75*
G02*
X66856351Y-62420805I154680J154680D01*
G01*
G37*
G36*
G01*
X65742658Y-61307111D02*
X66105050Y-60944718D01*
G75*
G02*
X66414410Y-60944718I154680J-154680D01*
G01*
X66723769Y-61254077D01*
G75*
G02*
X66723769Y-61563437I-154680J-154680D01*
G01*
X66361376Y-61925830D01*
G75*
G02*
X66052016Y-61925830I-154680J154680D01*
G01*
X65742657Y-61616471D01*
G75*
G02*
X65742657Y-61307111I154680J154680D01*
G01*
G37*
G36*
G01*
X59743750Y-39350000D02*
X60256250Y-39350000D01*
G75*
G02*
X60475000Y-39568750I0J-218750D01*
G01*
X60475000Y-40006250D01*
G75*
G02*
X60256250Y-40225000I-218750J0D01*
G01*
X59743750Y-40225000D01*
G75*
G02*
X59525000Y-40006250I0J218750D01*
G01*
X59525000Y-39568750D01*
G75*
G02*
X59743750Y-39350000I218750J0D01*
G01*
G37*
G36*
G01*
X59743750Y-37775000D02*
X60256250Y-37775000D01*
G75*
G02*
X60475000Y-37993750I0J-218750D01*
G01*
X60475000Y-38431250D01*
G75*
G02*
X60256250Y-38650000I-218750J0D01*
G01*
X59743750Y-38650000D01*
G75*
G02*
X59525000Y-38431250I0J218750D01*
G01*
X59525000Y-37993750D01*
G75*
G02*
X59743750Y-37775000I218750J0D01*
G01*
G37*
G36*
G01*
X82243750Y-69850000D02*
X82756250Y-69850000D01*
G75*
G02*
X82975000Y-70068750I0J-218750D01*
G01*
X82975000Y-70506250D01*
G75*
G02*
X82756250Y-70725000I-218750J0D01*
G01*
X82243750Y-70725000D01*
G75*
G02*
X82025000Y-70506250I0J218750D01*
G01*
X82025000Y-70068750D01*
G75*
G02*
X82243750Y-69850000I218750J0D01*
G01*
G37*
G36*
G01*
X82243750Y-68275000D02*
X82756250Y-68275000D01*
G75*
G02*
X82975000Y-68493750I0J-218750D01*
G01*
X82975000Y-68931250D01*
G75*
G02*
X82756250Y-69150000I-218750J0D01*
G01*
X82243750Y-69150000D01*
G75*
G02*
X82025000Y-68931250I0J218750D01*
G01*
X82025000Y-68493750D01*
G75*
G02*
X82243750Y-68275000I218750J0D01*
G01*
G37*
G36*
G01*
X70760140Y-48224428D02*
X71750090Y-47234478D01*
G75*
G02*
X71856156Y-47234478I53033J-53033D01*
G01*
X71962222Y-47340544D01*
G75*
G02*
X71962222Y-47446610I-53033J-53033D01*
G01*
X70972272Y-48436560D01*
G75*
G02*
X70866206Y-48436560I-53033J53033D01*
G01*
X70760140Y-48330494D01*
G75*
G02*
X70760140Y-48224428I53033J53033D01*
G01*
G37*
G36*
G01*
X71113693Y-48577981D02*
X72103643Y-47588031D01*
G75*
G02*
X72209709Y-47588031I53033J-53033D01*
G01*
X72315775Y-47694097D01*
G75*
G02*
X72315775Y-47800163I-53033J-53033D01*
G01*
X71325825Y-48790113D01*
G75*
G02*
X71219759Y-48790113I-53033J53033D01*
G01*
X71113693Y-48684047D01*
G75*
G02*
X71113693Y-48577981I53033J53033D01*
G01*
G37*
G36*
G01*
X71467246Y-48931534D02*
X72457196Y-47941584D01*
G75*
G02*
X72563262Y-47941584I53033J-53033D01*
G01*
X72669328Y-48047650D01*
G75*
G02*
X72669328Y-48153716I-53033J-53033D01*
G01*
X71679378Y-49143666D01*
G75*
G02*
X71573312Y-49143666I-53033J53033D01*
G01*
X71467246Y-49037600D01*
G75*
G02*
X71467246Y-48931534I53033J53033D01*
G01*
G37*
G36*
G01*
X71820800Y-49285088D02*
X72810750Y-48295138D01*
G75*
G02*
X72916816Y-48295138I53033J-53033D01*
G01*
X73022882Y-48401204D01*
G75*
G02*
X73022882Y-48507270I-53033J-53033D01*
G01*
X72032932Y-49497220D01*
G75*
G02*
X71926866Y-49497220I-53033J53033D01*
G01*
X71820800Y-49391154D01*
G75*
G02*
X71820800Y-49285088I53033J53033D01*
G01*
G37*
G36*
G01*
X72174353Y-49638641D02*
X73164303Y-48648691D01*
G75*
G02*
X73270369Y-48648691I53033J-53033D01*
G01*
X73376435Y-48754757D01*
G75*
G02*
X73376435Y-48860823I-53033J-53033D01*
G01*
X72386485Y-49850773D01*
G75*
G02*
X72280419Y-49850773I-53033J53033D01*
G01*
X72174353Y-49744707D01*
G75*
G02*
X72174353Y-49638641I53033J53033D01*
G01*
G37*
G36*
G01*
X72527907Y-49992195D02*
X73517857Y-49002245D01*
G75*
G02*
X73623923Y-49002245I53033J-53033D01*
G01*
X73729989Y-49108311D01*
G75*
G02*
X73729989Y-49214377I-53033J-53033D01*
G01*
X72740039Y-50204327D01*
G75*
G02*
X72633973Y-50204327I-53033J53033D01*
G01*
X72527907Y-50098261D01*
G75*
G02*
X72527907Y-49992195I53033J53033D01*
G01*
G37*
G36*
G01*
X72881460Y-50345748D02*
X73871410Y-49355798D01*
G75*
G02*
X73977476Y-49355798I53033J-53033D01*
G01*
X74083542Y-49461864D01*
G75*
G02*
X74083542Y-49567930I-53033J-53033D01*
G01*
X73093592Y-50557880D01*
G75*
G02*
X72987526Y-50557880I-53033J53033D01*
G01*
X72881460Y-50451814D01*
G75*
G02*
X72881460Y-50345748I53033J53033D01*
G01*
G37*
G36*
G01*
X73235013Y-50699301D02*
X74224963Y-49709351D01*
G75*
G02*
X74331029Y-49709351I53033J-53033D01*
G01*
X74437095Y-49815417D01*
G75*
G02*
X74437095Y-49921483I-53033J-53033D01*
G01*
X73447145Y-50911433D01*
G75*
G02*
X73341079Y-50911433I-53033J53033D01*
G01*
X73235013Y-50805367D01*
G75*
G02*
X73235013Y-50699301I53033J53033D01*
G01*
G37*
G36*
G01*
X73588567Y-51052855D02*
X74578517Y-50062905D01*
G75*
G02*
X74684583Y-50062905I53033J-53033D01*
G01*
X74790649Y-50168971D01*
G75*
G02*
X74790649Y-50275037I-53033J-53033D01*
G01*
X73800699Y-51264987D01*
G75*
G02*
X73694633Y-51264987I-53033J53033D01*
G01*
X73588567Y-51158921D01*
G75*
G02*
X73588567Y-51052855I53033J53033D01*
G01*
G37*
G36*
G01*
X73942120Y-51406408D02*
X74932070Y-50416458D01*
G75*
G02*
X75038136Y-50416458I53033J-53033D01*
G01*
X75144202Y-50522524D01*
G75*
G02*
X75144202Y-50628590I-53033J-53033D01*
G01*
X74154252Y-51618540D01*
G75*
G02*
X74048186Y-51618540I-53033J53033D01*
G01*
X73942120Y-51512474D01*
G75*
G02*
X73942120Y-51406408I53033J53033D01*
G01*
G37*
G36*
G01*
X74295673Y-51759961D02*
X75285623Y-50770011D01*
G75*
G02*
X75391689Y-50770011I53033J-53033D01*
G01*
X75497755Y-50876077D01*
G75*
G02*
X75497755Y-50982143I-53033J-53033D01*
G01*
X74507805Y-51972093D01*
G75*
G02*
X74401739Y-51972093I-53033J53033D01*
G01*
X74295673Y-51866027D01*
G75*
G02*
X74295673Y-51759961I53033J53033D01*
G01*
G37*
G36*
G01*
X74649227Y-52113515D02*
X75639177Y-51123565D01*
G75*
G02*
X75745243Y-51123565I53033J-53033D01*
G01*
X75851309Y-51229631D01*
G75*
G02*
X75851309Y-51335697I-53033J-53033D01*
G01*
X74861359Y-52325647D01*
G75*
G02*
X74755293Y-52325647I-53033J53033D01*
G01*
X74649227Y-52219581D01*
G75*
G02*
X74649227Y-52113515I53033J53033D01*
G01*
G37*
G36*
G01*
X75002780Y-52467068D02*
X75992730Y-51477118D01*
G75*
G02*
X76098796Y-51477118I53033J-53033D01*
G01*
X76204862Y-51583184D01*
G75*
G02*
X76204862Y-51689250I-53033J-53033D01*
G01*
X75214912Y-52679200D01*
G75*
G02*
X75108846Y-52679200I-53033J53033D01*
G01*
X75002780Y-52573134D01*
G75*
G02*
X75002780Y-52467068I53033J53033D01*
G01*
G37*
G36*
G01*
X75356334Y-52820622D02*
X76346284Y-51830672D01*
G75*
G02*
X76452350Y-51830672I53033J-53033D01*
G01*
X76558416Y-51936738D01*
G75*
G02*
X76558416Y-52042804I-53033J-53033D01*
G01*
X75568466Y-53032754D01*
G75*
G02*
X75462400Y-53032754I-53033J53033D01*
G01*
X75356334Y-52926688D01*
G75*
G02*
X75356334Y-52820622I53033J53033D01*
G01*
G37*
G36*
G01*
X75709887Y-53174175D02*
X76699837Y-52184225D01*
G75*
G02*
X76805903Y-52184225I53033J-53033D01*
G01*
X76911969Y-52290291D01*
G75*
G02*
X76911969Y-52396357I-53033J-53033D01*
G01*
X75922019Y-53386307D01*
G75*
G02*
X75815953Y-53386307I-53033J53033D01*
G01*
X75709887Y-53280241D01*
G75*
G02*
X75709887Y-53174175I53033J53033D01*
G01*
G37*
G36*
G01*
X76063440Y-53527728D02*
X77053390Y-52537778D01*
G75*
G02*
X77159456Y-52537778I53033J-53033D01*
G01*
X77265522Y-52643844D01*
G75*
G02*
X77265522Y-52749910I-53033J-53033D01*
G01*
X76275572Y-53739860D01*
G75*
G02*
X76169506Y-53739860I-53033J53033D01*
G01*
X76063440Y-53633794D01*
G75*
G02*
X76063440Y-53527728I53033J53033D01*
G01*
G37*
G36*
G01*
X76063440Y-55366206D02*
X76169506Y-55260140D01*
G75*
G02*
X76275572Y-55260140I53033J-53033D01*
G01*
X77265522Y-56250090D01*
G75*
G02*
X77265522Y-56356156I-53033J-53033D01*
G01*
X77159456Y-56462222D01*
G75*
G02*
X77053390Y-56462222I-53033J53033D01*
G01*
X76063440Y-55472272D01*
G75*
G02*
X76063440Y-55366206I53033J53033D01*
G01*
G37*
G36*
G01*
X75709887Y-55719759D02*
X75815953Y-55613693D01*
G75*
G02*
X75922019Y-55613693I53033J-53033D01*
G01*
X76911969Y-56603643D01*
G75*
G02*
X76911969Y-56709709I-53033J-53033D01*
G01*
X76805903Y-56815775D01*
G75*
G02*
X76699837Y-56815775I-53033J53033D01*
G01*
X75709887Y-55825825D01*
G75*
G02*
X75709887Y-55719759I53033J53033D01*
G01*
G37*
G36*
G01*
X75356334Y-56073312D02*
X75462400Y-55967246D01*
G75*
G02*
X75568466Y-55967246I53033J-53033D01*
G01*
X76558416Y-56957196D01*
G75*
G02*
X76558416Y-57063262I-53033J-53033D01*
G01*
X76452350Y-57169328D01*
G75*
G02*
X76346284Y-57169328I-53033J53033D01*
G01*
X75356334Y-56179378D01*
G75*
G02*
X75356334Y-56073312I53033J53033D01*
G01*
G37*
G36*
G01*
X75002780Y-56426866D02*
X75108846Y-56320800D01*
G75*
G02*
X75214912Y-56320800I53033J-53033D01*
G01*
X76204862Y-57310750D01*
G75*
G02*
X76204862Y-57416816I-53033J-53033D01*
G01*
X76098796Y-57522882D01*
G75*
G02*
X75992730Y-57522882I-53033J53033D01*
G01*
X75002780Y-56532932D01*
G75*
G02*
X75002780Y-56426866I53033J53033D01*
G01*
G37*
G36*
G01*
X74649227Y-56780419D02*
X74755293Y-56674353D01*
G75*
G02*
X74861359Y-56674353I53033J-53033D01*
G01*
X75851309Y-57664303D01*
G75*
G02*
X75851309Y-57770369I-53033J-53033D01*
G01*
X75745243Y-57876435D01*
G75*
G02*
X75639177Y-57876435I-53033J53033D01*
G01*
X74649227Y-56886485D01*
G75*
G02*
X74649227Y-56780419I53033J53033D01*
G01*
G37*
G36*
G01*
X74295673Y-57133973D02*
X74401739Y-57027907D01*
G75*
G02*
X74507805Y-57027907I53033J-53033D01*
G01*
X75497755Y-58017857D01*
G75*
G02*
X75497755Y-58123923I-53033J-53033D01*
G01*
X75391689Y-58229989D01*
G75*
G02*
X75285623Y-58229989I-53033J53033D01*
G01*
X74295673Y-57240039D01*
G75*
G02*
X74295673Y-57133973I53033J53033D01*
G01*
G37*
G36*
G01*
X73942120Y-57487526D02*
X74048186Y-57381460D01*
G75*
G02*
X74154252Y-57381460I53033J-53033D01*
G01*
X75144202Y-58371410D01*
G75*
G02*
X75144202Y-58477476I-53033J-53033D01*
G01*
X75038136Y-58583542D01*
G75*
G02*
X74932070Y-58583542I-53033J53033D01*
G01*
X73942120Y-57593592D01*
G75*
G02*
X73942120Y-57487526I53033J53033D01*
G01*
G37*
G36*
G01*
X73588567Y-57841079D02*
X73694633Y-57735013D01*
G75*
G02*
X73800699Y-57735013I53033J-53033D01*
G01*
X74790649Y-58724963D01*
G75*
G02*
X74790649Y-58831029I-53033J-53033D01*
G01*
X74684583Y-58937095D01*
G75*
G02*
X74578517Y-58937095I-53033J53033D01*
G01*
X73588567Y-57947145D01*
G75*
G02*
X73588567Y-57841079I53033J53033D01*
G01*
G37*
G36*
G01*
X73235013Y-58194633D02*
X73341079Y-58088567D01*
G75*
G02*
X73447145Y-58088567I53033J-53033D01*
G01*
X74437095Y-59078517D01*
G75*
G02*
X74437095Y-59184583I-53033J-53033D01*
G01*
X74331029Y-59290649D01*
G75*
G02*
X74224963Y-59290649I-53033J53033D01*
G01*
X73235013Y-58300699D01*
G75*
G02*
X73235013Y-58194633I53033J53033D01*
G01*
G37*
G36*
G01*
X72881460Y-58548186D02*
X72987526Y-58442120D01*
G75*
G02*
X73093592Y-58442120I53033J-53033D01*
G01*
X74083542Y-59432070D01*
G75*
G02*
X74083542Y-59538136I-53033J-53033D01*
G01*
X73977476Y-59644202D01*
G75*
G02*
X73871410Y-59644202I-53033J53033D01*
G01*
X72881460Y-58654252D01*
G75*
G02*
X72881460Y-58548186I53033J53033D01*
G01*
G37*
G36*
G01*
X72527907Y-58901739D02*
X72633973Y-58795673D01*
G75*
G02*
X72740039Y-58795673I53033J-53033D01*
G01*
X73729989Y-59785623D01*
G75*
G02*
X73729989Y-59891689I-53033J-53033D01*
G01*
X73623923Y-59997755D01*
G75*
G02*
X73517857Y-59997755I-53033J53033D01*
G01*
X72527907Y-59007805D01*
G75*
G02*
X72527907Y-58901739I53033J53033D01*
G01*
G37*
G36*
G01*
X72174353Y-59255293D02*
X72280419Y-59149227D01*
G75*
G02*
X72386485Y-59149227I53033J-53033D01*
G01*
X73376435Y-60139177D01*
G75*
G02*
X73376435Y-60245243I-53033J-53033D01*
G01*
X73270369Y-60351309D01*
G75*
G02*
X73164303Y-60351309I-53033J53033D01*
G01*
X72174353Y-59361359D01*
G75*
G02*
X72174353Y-59255293I53033J53033D01*
G01*
G37*
G36*
G01*
X71820800Y-59608846D02*
X71926866Y-59502780D01*
G75*
G02*
X72032932Y-59502780I53033J-53033D01*
G01*
X73022882Y-60492730D01*
G75*
G02*
X73022882Y-60598796I-53033J-53033D01*
G01*
X72916816Y-60704862D01*
G75*
G02*
X72810750Y-60704862I-53033J53033D01*
G01*
X71820800Y-59714912D01*
G75*
G02*
X71820800Y-59608846I53033J53033D01*
G01*
G37*
G36*
G01*
X71467246Y-59962400D02*
X71573312Y-59856334D01*
G75*
G02*
X71679378Y-59856334I53033J-53033D01*
G01*
X72669328Y-60846284D01*
G75*
G02*
X72669328Y-60952350I-53033J-53033D01*
G01*
X72563262Y-61058416D01*
G75*
G02*
X72457196Y-61058416I-53033J53033D01*
G01*
X71467246Y-60068466D01*
G75*
G02*
X71467246Y-59962400I53033J53033D01*
G01*
G37*
G36*
G01*
X71113693Y-60315953D02*
X71219759Y-60209887D01*
G75*
G02*
X71325825Y-60209887I53033J-53033D01*
G01*
X72315775Y-61199837D01*
G75*
G02*
X72315775Y-61305903I-53033J-53033D01*
G01*
X72209709Y-61411969D01*
G75*
G02*
X72103643Y-61411969I-53033J53033D01*
G01*
X71113693Y-60422019D01*
G75*
G02*
X71113693Y-60315953I53033J53033D01*
G01*
G37*
G36*
G01*
X70760140Y-60669506D02*
X70866206Y-60563440D01*
G75*
G02*
X70972272Y-60563440I53033J-53033D01*
G01*
X71962222Y-61553390D01*
G75*
G02*
X71962222Y-61659456I-53033J-53033D01*
G01*
X71856156Y-61765522D01*
G75*
G02*
X71750090Y-61765522I-53033J53033D01*
G01*
X70760140Y-60775572D01*
G75*
G02*
X70760140Y-60669506I53033J53033D01*
G01*
G37*
G36*
G01*
X68037778Y-61553390D02*
X69027728Y-60563440D01*
G75*
G02*
X69133794Y-60563440I53033J-53033D01*
G01*
X69239860Y-60669506D01*
G75*
G02*
X69239860Y-60775572I-53033J-53033D01*
G01*
X68249910Y-61765522D01*
G75*
G02*
X68143844Y-61765522I-53033J53033D01*
G01*
X68037778Y-61659456D01*
G75*
G02*
X68037778Y-61553390I53033J53033D01*
G01*
G37*
G36*
G01*
X67684225Y-61199837D02*
X68674175Y-60209887D01*
G75*
G02*
X68780241Y-60209887I53033J-53033D01*
G01*
X68886307Y-60315953D01*
G75*
G02*
X68886307Y-60422019I-53033J-53033D01*
G01*
X67896357Y-61411969D01*
G75*
G02*
X67790291Y-61411969I-53033J53033D01*
G01*
X67684225Y-61305903D01*
G75*
G02*
X67684225Y-61199837I53033J53033D01*
G01*
G37*
G36*
G01*
X67330672Y-60846284D02*
X68320622Y-59856334D01*
G75*
G02*
X68426688Y-59856334I53033J-53033D01*
G01*
X68532754Y-59962400D01*
G75*
G02*
X68532754Y-60068466I-53033J-53033D01*
G01*
X67542804Y-61058416D01*
G75*
G02*
X67436738Y-61058416I-53033J53033D01*
G01*
X67330672Y-60952350D01*
G75*
G02*
X67330672Y-60846284I53033J53033D01*
G01*
G37*
G36*
G01*
X66977118Y-60492730D02*
X67967068Y-59502780D01*
G75*
G02*
X68073134Y-59502780I53033J-53033D01*
G01*
X68179200Y-59608846D01*
G75*
G02*
X68179200Y-59714912I-53033J-53033D01*
G01*
X67189250Y-60704862D01*
G75*
G02*
X67083184Y-60704862I-53033J53033D01*
G01*
X66977118Y-60598796D01*
G75*
G02*
X66977118Y-60492730I53033J53033D01*
G01*
G37*
G36*
G01*
X66623565Y-60139177D02*
X67613515Y-59149227D01*
G75*
G02*
X67719581Y-59149227I53033J-53033D01*
G01*
X67825647Y-59255293D01*
G75*
G02*
X67825647Y-59361359I-53033J-53033D01*
G01*
X66835697Y-60351309D01*
G75*
G02*
X66729631Y-60351309I-53033J53033D01*
G01*
X66623565Y-60245243D01*
G75*
G02*
X66623565Y-60139177I53033J53033D01*
G01*
G37*
G36*
G01*
X66270011Y-59785623D02*
X67259961Y-58795673D01*
G75*
G02*
X67366027Y-58795673I53033J-53033D01*
G01*
X67472093Y-58901739D01*
G75*
G02*
X67472093Y-59007805I-53033J-53033D01*
G01*
X66482143Y-59997755D01*
G75*
G02*
X66376077Y-59997755I-53033J53033D01*
G01*
X66270011Y-59891689D01*
G75*
G02*
X66270011Y-59785623I53033J53033D01*
G01*
G37*
G36*
G01*
X65916458Y-59432070D02*
X66906408Y-58442120D01*
G75*
G02*
X67012474Y-58442120I53033J-53033D01*
G01*
X67118540Y-58548186D01*
G75*
G02*
X67118540Y-58654252I-53033J-53033D01*
G01*
X66128590Y-59644202D01*
G75*
G02*
X66022524Y-59644202I-53033J53033D01*
G01*
X65916458Y-59538136D01*
G75*
G02*
X65916458Y-59432070I53033J53033D01*
G01*
G37*
G36*
G01*
X65562905Y-59078517D02*
X66552855Y-58088567D01*
G75*
G02*
X66658921Y-58088567I53033J-53033D01*
G01*
X66764987Y-58194633D01*
G75*
G02*
X66764987Y-58300699I-53033J-53033D01*
G01*
X65775037Y-59290649D01*
G75*
G02*
X65668971Y-59290649I-53033J53033D01*
G01*
X65562905Y-59184583D01*
G75*
G02*
X65562905Y-59078517I53033J53033D01*
G01*
G37*
G36*
G01*
X65209351Y-58724963D02*
X66199301Y-57735013D01*
G75*
G02*
X66305367Y-57735013I53033J-53033D01*
G01*
X66411433Y-57841079D01*
G75*
G02*
X66411433Y-57947145I-53033J-53033D01*
G01*
X65421483Y-58937095D01*
G75*
G02*
X65315417Y-58937095I-53033J53033D01*
G01*
X65209351Y-58831029D01*
G75*
G02*
X65209351Y-58724963I53033J53033D01*
G01*
G37*
G36*
G01*
X64855798Y-58371410D02*
X65845748Y-57381460D01*
G75*
G02*
X65951814Y-57381460I53033J-53033D01*
G01*
X66057880Y-57487526D01*
G75*
G02*
X66057880Y-57593592I-53033J-53033D01*
G01*
X65067930Y-58583542D01*
G75*
G02*
X64961864Y-58583542I-53033J53033D01*
G01*
X64855798Y-58477476D01*
G75*
G02*
X64855798Y-58371410I53033J53033D01*
G01*
G37*
G36*
G01*
X64502245Y-58017857D02*
X65492195Y-57027907D01*
G75*
G02*
X65598261Y-57027907I53033J-53033D01*
G01*
X65704327Y-57133973D01*
G75*
G02*
X65704327Y-57240039I-53033J-53033D01*
G01*
X64714377Y-58229989D01*
G75*
G02*
X64608311Y-58229989I-53033J53033D01*
G01*
X64502245Y-58123923D01*
G75*
G02*
X64502245Y-58017857I53033J53033D01*
G01*
G37*
G36*
G01*
X64148691Y-57664303D02*
X65138641Y-56674353D01*
G75*
G02*
X65244707Y-56674353I53033J-53033D01*
G01*
X65350773Y-56780419D01*
G75*
G02*
X65350773Y-56886485I-53033J-53033D01*
G01*
X64360823Y-57876435D01*
G75*
G02*
X64254757Y-57876435I-53033J53033D01*
G01*
X64148691Y-57770369D01*
G75*
G02*
X64148691Y-57664303I53033J53033D01*
G01*
G37*
G36*
G01*
X63795138Y-57310750D02*
X64785088Y-56320800D01*
G75*
G02*
X64891154Y-56320800I53033J-53033D01*
G01*
X64997220Y-56426866D01*
G75*
G02*
X64997220Y-56532932I-53033J-53033D01*
G01*
X64007270Y-57522882D01*
G75*
G02*
X63901204Y-57522882I-53033J53033D01*
G01*
X63795138Y-57416816D01*
G75*
G02*
X63795138Y-57310750I53033J53033D01*
G01*
G37*
G36*
G01*
X63441584Y-56957196D02*
X64431534Y-55967246D01*
G75*
G02*
X64537600Y-55967246I53033J-53033D01*
G01*
X64643666Y-56073312D01*
G75*
G02*
X64643666Y-56179378I-53033J-53033D01*
G01*
X63653716Y-57169328D01*
G75*
G02*
X63547650Y-57169328I-53033J53033D01*
G01*
X63441584Y-57063262D01*
G75*
G02*
X63441584Y-56957196I53033J53033D01*
G01*
G37*
G36*
G01*
X63088031Y-56603643D02*
X64077981Y-55613693D01*
G75*
G02*
X64184047Y-55613693I53033J-53033D01*
G01*
X64290113Y-55719759D01*
G75*
G02*
X64290113Y-55825825I-53033J-53033D01*
G01*
X63300163Y-56815775D01*
G75*
G02*
X63194097Y-56815775I-53033J53033D01*
G01*
X63088031Y-56709709D01*
G75*
G02*
X63088031Y-56603643I53033J53033D01*
G01*
G37*
G36*
G01*
X62734478Y-56250090D02*
X63724428Y-55260140D01*
G75*
G02*
X63830494Y-55260140I53033J-53033D01*
G01*
X63936560Y-55366206D01*
G75*
G02*
X63936560Y-55472272I-53033J-53033D01*
G01*
X62946610Y-56462222D01*
G75*
G02*
X62840544Y-56462222I-53033J53033D01*
G01*
X62734478Y-56356156D01*
G75*
G02*
X62734478Y-56250090I53033J53033D01*
G01*
G37*
G36*
G01*
X62734478Y-52643844D02*
X62840544Y-52537778D01*
G75*
G02*
X62946610Y-52537778I53033J-53033D01*
G01*
X63936560Y-53527728D01*
G75*
G02*
X63936560Y-53633794I-53033J-53033D01*
G01*
X63830494Y-53739860D01*
G75*
G02*
X63724428Y-53739860I-53033J53033D01*
G01*
X62734478Y-52749910D01*
G75*
G02*
X62734478Y-52643844I53033J53033D01*
G01*
G37*
G36*
G01*
X63088031Y-52290291D02*
X63194097Y-52184225D01*
G75*
G02*
X63300163Y-52184225I53033J-53033D01*
G01*
X64290113Y-53174175D01*
G75*
G02*
X64290113Y-53280241I-53033J-53033D01*
G01*
X64184047Y-53386307D01*
G75*
G02*
X64077981Y-53386307I-53033J53033D01*
G01*
X63088031Y-52396357D01*
G75*
G02*
X63088031Y-52290291I53033J53033D01*
G01*
G37*
G36*
G01*
X63441584Y-51936738D02*
X63547650Y-51830672D01*
G75*
G02*
X63653716Y-51830672I53033J-53033D01*
G01*
X64643666Y-52820622D01*
G75*
G02*
X64643666Y-52926688I-53033J-53033D01*
G01*
X64537600Y-53032754D01*
G75*
G02*
X64431534Y-53032754I-53033J53033D01*
G01*
X63441584Y-52042804D01*
G75*
G02*
X63441584Y-51936738I53033J53033D01*
G01*
G37*
G36*
G01*
X63795138Y-51583184D02*
X63901204Y-51477118D01*
G75*
G02*
X64007270Y-51477118I53033J-53033D01*
G01*
X64997220Y-52467068D01*
G75*
G02*
X64997220Y-52573134I-53033J-53033D01*
G01*
X64891154Y-52679200D01*
G75*
G02*
X64785088Y-52679200I-53033J53033D01*
G01*
X63795138Y-51689250D01*
G75*
G02*
X63795138Y-51583184I53033J53033D01*
G01*
G37*
G36*
G01*
X64148691Y-51229631D02*
X64254757Y-51123565D01*
G75*
G02*
X64360823Y-51123565I53033J-53033D01*
G01*
X65350773Y-52113515D01*
G75*
G02*
X65350773Y-52219581I-53033J-53033D01*
G01*
X65244707Y-52325647D01*
G75*
G02*
X65138641Y-52325647I-53033J53033D01*
G01*
X64148691Y-51335697D01*
G75*
G02*
X64148691Y-51229631I53033J53033D01*
G01*
G37*
G36*
G01*
X64502245Y-50876077D02*
X64608311Y-50770011D01*
G75*
G02*
X64714377Y-50770011I53033J-53033D01*
G01*
X65704327Y-51759961D01*
G75*
G02*
X65704327Y-51866027I-53033J-53033D01*
G01*
X65598261Y-51972093D01*
G75*
G02*
X65492195Y-51972093I-53033J53033D01*
G01*
X64502245Y-50982143D01*
G75*
G02*
X64502245Y-50876077I53033J53033D01*
G01*
G37*
G36*
G01*
X64855798Y-50522524D02*
X64961864Y-50416458D01*
G75*
G02*
X65067930Y-50416458I53033J-53033D01*
G01*
X66057880Y-51406408D01*
G75*
G02*
X66057880Y-51512474I-53033J-53033D01*
G01*
X65951814Y-51618540D01*
G75*
G02*
X65845748Y-51618540I-53033J53033D01*
G01*
X64855798Y-50628590D01*
G75*
G02*
X64855798Y-50522524I53033J53033D01*
G01*
G37*
G36*
G01*
X65209351Y-50168971D02*
X65315417Y-50062905D01*
G75*
G02*
X65421483Y-50062905I53033J-53033D01*
G01*
X66411433Y-51052855D01*
G75*
G02*
X66411433Y-51158921I-53033J-53033D01*
G01*
X66305367Y-51264987D01*
G75*
G02*
X66199301Y-51264987I-53033J53033D01*
G01*
X65209351Y-50275037D01*
G75*
G02*
X65209351Y-50168971I53033J53033D01*
G01*
G37*
G36*
G01*
X65562905Y-49815417D02*
X65668971Y-49709351D01*
G75*
G02*
X65775037Y-49709351I53033J-53033D01*
G01*
X66764987Y-50699301D01*
G75*
G02*
X66764987Y-50805367I-53033J-53033D01*
G01*
X66658921Y-50911433D01*
G75*
G02*
X66552855Y-50911433I-53033J53033D01*
G01*
X65562905Y-49921483D01*
G75*
G02*
X65562905Y-49815417I53033J53033D01*
G01*
G37*
G36*
G01*
X65916458Y-49461864D02*
X66022524Y-49355798D01*
G75*
G02*
X66128590Y-49355798I53033J-53033D01*
G01*
X67118540Y-50345748D01*
G75*
G02*
X67118540Y-50451814I-53033J-53033D01*
G01*
X67012474Y-50557880D01*
G75*
G02*
X66906408Y-50557880I-53033J53033D01*
G01*
X65916458Y-49567930D01*
G75*
G02*
X65916458Y-49461864I53033J53033D01*
G01*
G37*
G36*
G01*
X66270011Y-49108311D02*
X66376077Y-49002245D01*
G75*
G02*
X66482143Y-49002245I53033J-53033D01*
G01*
X67472093Y-49992195D01*
G75*
G02*
X67472093Y-50098261I-53033J-53033D01*
G01*
X67366027Y-50204327D01*
G75*
G02*
X67259961Y-50204327I-53033J53033D01*
G01*
X66270011Y-49214377D01*
G75*
G02*
X66270011Y-49108311I53033J53033D01*
G01*
G37*
G36*
G01*
X66623565Y-48754757D02*
X66729631Y-48648691D01*
G75*
G02*
X66835697Y-48648691I53033J-53033D01*
G01*
X67825647Y-49638641D01*
G75*
G02*
X67825647Y-49744707I-53033J-53033D01*
G01*
X67719581Y-49850773D01*
G75*
G02*
X67613515Y-49850773I-53033J53033D01*
G01*
X66623565Y-48860823D01*
G75*
G02*
X66623565Y-48754757I53033J53033D01*
G01*
G37*
G36*
G01*
X66977118Y-48401204D02*
X67083184Y-48295138D01*
G75*
G02*
X67189250Y-48295138I53033J-53033D01*
G01*
X68179200Y-49285088D01*
G75*
G02*
X68179200Y-49391154I-53033J-53033D01*
G01*
X68073134Y-49497220D01*
G75*
G02*
X67967068Y-49497220I-53033J53033D01*
G01*
X66977118Y-48507270D01*
G75*
G02*
X66977118Y-48401204I53033J53033D01*
G01*
G37*
G36*
G01*
X67330672Y-48047650D02*
X67436738Y-47941584D01*
G75*
G02*
X67542804Y-47941584I53033J-53033D01*
G01*
X68532754Y-48931534D01*
G75*
G02*
X68532754Y-49037600I-53033J-53033D01*
G01*
X68426688Y-49143666D01*
G75*
G02*
X68320622Y-49143666I-53033J53033D01*
G01*
X67330672Y-48153716D01*
G75*
G02*
X67330672Y-48047650I53033J53033D01*
G01*
G37*
G36*
G01*
X67684225Y-47694097D02*
X67790291Y-47588031D01*
G75*
G02*
X67896357Y-47588031I53033J-53033D01*
G01*
X68886307Y-48577981D01*
G75*
G02*
X68886307Y-48684047I-53033J-53033D01*
G01*
X68780241Y-48790113D01*
G75*
G02*
X68674175Y-48790113I-53033J53033D01*
G01*
X67684225Y-47800163D01*
G75*
G02*
X67684225Y-47694097I53033J53033D01*
G01*
G37*
G36*
G01*
X68037778Y-47340544D02*
X68143844Y-47234478D01*
G75*
G02*
X68249910Y-47234478I53033J-53033D01*
G01*
X69239860Y-48224428D01*
G75*
G02*
X69239860Y-48330494I-53033J-53033D01*
G01*
X69133794Y-48436560D01*
G75*
G02*
X69027728Y-48436560I-53033J53033D01*
G01*
X68037778Y-47446610D01*
G75*
G02*
X68037778Y-47340544I53033J53033D01*
G01*
G37*
G36*
G01*
X85850000Y-70256250D02*
X85850000Y-69743750D01*
G75*
G02*
X86068750Y-69525000I218750J0D01*
G01*
X86506250Y-69525000D01*
G75*
G02*
X86725000Y-69743750I0J-218750D01*
G01*
X86725000Y-70256250D01*
G75*
G02*
X86506250Y-70475000I-218750J0D01*
G01*
X86068750Y-70475000D01*
G75*
G02*
X85850000Y-70256250I0J218750D01*
G01*
G37*
G36*
G01*
X84275000Y-70256250D02*
X84275000Y-69743750D01*
G75*
G02*
X84493750Y-69525000I218750J0D01*
G01*
X84931250Y-69525000D01*
G75*
G02*
X85150000Y-69743750I0J-218750D01*
G01*
X85150000Y-70256250D01*
G75*
G02*
X84931250Y-70475000I-218750J0D01*
G01*
X84493750Y-70475000D01*
G75*
G02*
X84275000Y-70256250I0J218750D01*
G01*
G37*
G36*
G01*
X56150000Y-43243750D02*
X56150000Y-43756250D01*
G75*
G02*
X55931250Y-43975000I-218750J0D01*
G01*
X55493750Y-43975000D01*
G75*
G02*
X55275000Y-43756250I0J218750D01*
G01*
X55275000Y-43243750D01*
G75*
G02*
X55493750Y-43025000I218750J0D01*
G01*
X55931250Y-43025000D01*
G75*
G02*
X56150000Y-43243750I0J-218750D01*
G01*
G37*
G36*
G01*
X57725000Y-43243750D02*
X57725000Y-43756250D01*
G75*
G02*
X57506250Y-43975000I-218750J0D01*
G01*
X57068750Y-43975000D01*
G75*
G02*
X56850000Y-43756250I0J218750D01*
G01*
X56850000Y-43243750D01*
G75*
G02*
X57068750Y-43025000I218750J0D01*
G01*
X57506250Y-43025000D01*
G75*
G02*
X57725000Y-43243750I0J-218750D01*
G01*
G37*
D10*
X54465000Y-54940000D03*
X58535000Y-54940000D03*
X54465000Y-56210000D03*
X58535000Y-56210000D03*
X54465000Y-57480000D03*
X58535000Y-57480000D03*
X54465000Y-58750000D03*
X58535000Y-58750000D03*
X54465000Y-60020000D03*
X58535000Y-60020000D03*
X54465000Y-61290000D03*
X58535000Y-61290000D03*
X54465000Y-62560000D03*
X58535000Y-62560000D03*
G36*
G01*
X68775000Y-43756250D02*
X68775000Y-43243750D01*
G75*
G02*
X68993750Y-43025000I218750J0D01*
G01*
X69431250Y-43025000D01*
G75*
G02*
X69650000Y-43243750I0J-218750D01*
G01*
X69650000Y-43756250D01*
G75*
G02*
X69431250Y-43975000I-218750J0D01*
G01*
X68993750Y-43975000D01*
G75*
G02*
X68775000Y-43756250I0J218750D01*
G01*
G37*
G36*
G01*
X70350000Y-43756250D02*
X70350000Y-43243750D01*
G75*
G02*
X70568750Y-43025000I218750J0D01*
G01*
X71006250Y-43025000D01*
G75*
G02*
X71225000Y-43243750I0J-218750D01*
G01*
X71225000Y-43756250D01*
G75*
G02*
X71006250Y-43975000I-218750J0D01*
G01*
X70568750Y-43975000D01*
G75*
G02*
X70350000Y-43756250I0J218750D01*
G01*
G37*
D11*
X70850000Y-72250000D03*
X69150000Y-72250000D03*
D12*
X74100000Y-72250000D03*
X65900000Y-72250000D03*
D13*
X73300000Y-69900000D03*
X66700000Y-69900000D03*
D14*
X68700000Y-69575000D03*
X69350000Y-69575000D03*
X70000000Y-69575000D03*
X70650000Y-69575000D03*
X71300000Y-69575000D03*
G36*
G01*
X63756250Y-71725000D02*
X63243750Y-71725000D01*
G75*
G02*
X63025000Y-71506250I0J218750D01*
G01*
X63025000Y-71068750D01*
G75*
G02*
X63243750Y-70850000I218750J0D01*
G01*
X63756250Y-70850000D01*
G75*
G02*
X63975000Y-71068750I0J-218750D01*
G01*
X63975000Y-71506250D01*
G75*
G02*
X63756250Y-71725000I-218750J0D01*
G01*
G37*
G36*
G01*
X63756250Y-70150000D02*
X63243750Y-70150000D01*
G75*
G02*
X63025000Y-69931250I0J218750D01*
G01*
X63025000Y-69493750D01*
G75*
G02*
X63243750Y-69275000I218750J0D01*
G01*
X63756250Y-69275000D01*
G75*
G02*
X63975000Y-69493750I0J-218750D01*
G01*
X63975000Y-69931250D01*
G75*
G02*
X63756250Y-70150000I-218750J0D01*
G01*
G37*
G36*
G01*
X79066292Y-56428684D02*
X79428684Y-56066291D01*
G75*
G02*
X79738044Y-56066291I154680J-154680D01*
G01*
X80047403Y-56375650D01*
G75*
G02*
X80047403Y-56685010I-154680J-154680D01*
G01*
X79685010Y-57047403D01*
G75*
G02*
X79375650Y-57047403I-154680J154680D01*
G01*
X79066291Y-56738044D01*
G75*
G02*
X79066291Y-56428684I154680J154680D01*
G01*
G37*
G36*
G01*
X77952598Y-55314990D02*
X78314990Y-54952597D01*
G75*
G02*
X78624350Y-54952597I154680J-154680D01*
G01*
X78933709Y-55261956D01*
G75*
G02*
X78933709Y-55571316I-154680J-154680D01*
G01*
X78571316Y-55933709D01*
G75*
G02*
X78261956Y-55933709I-154680J154680D01*
G01*
X77952597Y-55624350D01*
G75*
G02*
X77952597Y-55314990I154680J154680D01*
G01*
G37*
G36*
G01*
X62569516Y-51725815D02*
X62207123Y-51363423D01*
G75*
G02*
X62207123Y-51054063I154680J154680D01*
G01*
X62516482Y-50744704D01*
G75*
G02*
X62825842Y-50744704I154680J-154680D01*
G01*
X63188235Y-51107097D01*
G75*
G02*
X63188235Y-51416457I-154680J-154680D01*
G01*
X62878876Y-51725816D01*
G75*
G02*
X62569516Y-51725816I-154680J154680D01*
G01*
G37*
G36*
G01*
X63683210Y-50612121D02*
X63320817Y-50249729D01*
G75*
G02*
X63320817Y-49940369I154680J154680D01*
G01*
X63630176Y-49631010D01*
G75*
G02*
X63939536Y-49631010I154680J-154680D01*
G01*
X64301929Y-49993403D01*
G75*
G02*
X64301929Y-50302763I-154680J-154680D01*
G01*
X63992570Y-50612122D01*
G75*
G02*
X63683210Y-50612122I-154680J154680D01*
G01*
G37*
G36*
G01*
X68482696Y-63566292D02*
X68845089Y-63928684D01*
G75*
G02*
X68845089Y-64238044I-154680J-154680D01*
G01*
X68535730Y-64547403D01*
G75*
G02*
X68226370Y-64547403I-154680J154680D01*
G01*
X67863977Y-64185010D01*
G75*
G02*
X67863977Y-63875650I154680J154680D01*
G01*
X68173336Y-63566291D01*
G75*
G02*
X68482696Y-63566291I154680J-154680D01*
G01*
G37*
G36*
G01*
X69596390Y-62452598D02*
X69958783Y-62814990D01*
G75*
G02*
X69958783Y-63124350I-154680J-154680D01*
G01*
X69649424Y-63433709D01*
G75*
G02*
X69340064Y-63433709I-154680J154680D01*
G01*
X68977671Y-63071316D01*
G75*
G02*
X68977671Y-62761956I154680J154680D01*
G01*
X69287030Y-62452597D01*
G75*
G02*
X69596390Y-62452597I154680J-154680D01*
G01*
G37*
G36*
G01*
X54745000Y-37500000D02*
X54445000Y-37500000D01*
G75*
G02*
X54295000Y-37350000I0J150000D01*
G01*
X54295000Y-35700000D01*
G75*
G02*
X54445000Y-35550000I150000J0D01*
G01*
X54745000Y-35550000D01*
G75*
G02*
X54895000Y-35700000I0J-150000D01*
G01*
X54895000Y-37350000D01*
G75*
G02*
X54745000Y-37500000I-150000J0D01*
G01*
G37*
G36*
G01*
X56015000Y-37500000D02*
X55715000Y-37500000D01*
G75*
G02*
X55565000Y-37350000I0J150000D01*
G01*
X55565000Y-35700000D01*
G75*
G02*
X55715000Y-35550000I150000J0D01*
G01*
X56015000Y-35550000D01*
G75*
G02*
X56165000Y-35700000I0J-150000D01*
G01*
X56165000Y-37350000D01*
G75*
G02*
X56015000Y-37500000I-150000J0D01*
G01*
G37*
G36*
G01*
X57285000Y-37500000D02*
X56985000Y-37500000D01*
G75*
G02*
X56835000Y-37350000I0J150000D01*
G01*
X56835000Y-35700000D01*
G75*
G02*
X56985000Y-35550000I150000J0D01*
G01*
X57285000Y-35550000D01*
G75*
G02*
X57435000Y-35700000I0J-150000D01*
G01*
X57435000Y-37350000D01*
G75*
G02*
X57285000Y-37500000I-150000J0D01*
G01*
G37*
G36*
G01*
X58555000Y-37500000D02*
X58255000Y-37500000D01*
G75*
G02*
X58105000Y-37350000I0J150000D01*
G01*
X58105000Y-35700000D01*
G75*
G02*
X58255000Y-35550000I150000J0D01*
G01*
X58555000Y-35550000D01*
G75*
G02*
X58705000Y-35700000I0J-150000D01*
G01*
X58705000Y-37350000D01*
G75*
G02*
X58555000Y-37500000I-150000J0D01*
G01*
G37*
G36*
G01*
X58555000Y-42450000D02*
X58255000Y-42450000D01*
G75*
G02*
X58105000Y-42300000I0J150000D01*
G01*
X58105000Y-40650000D01*
G75*
G02*
X58255000Y-40500000I150000J0D01*
G01*
X58555000Y-40500000D01*
G75*
G02*
X58705000Y-40650000I0J-150000D01*
G01*
X58705000Y-42300000D01*
G75*
G02*
X58555000Y-42450000I-150000J0D01*
G01*
G37*
G36*
G01*
X57285000Y-42450000D02*
X56985000Y-42450000D01*
G75*
G02*
X56835000Y-42300000I0J150000D01*
G01*
X56835000Y-40650000D01*
G75*
G02*
X56985000Y-40500000I150000J0D01*
G01*
X57285000Y-40500000D01*
G75*
G02*
X57435000Y-40650000I0J-150000D01*
G01*
X57435000Y-42300000D01*
G75*
G02*
X57285000Y-42450000I-150000J0D01*
G01*
G37*
G36*
G01*
X56015000Y-42450000D02*
X55715000Y-42450000D01*
G75*
G02*
X55565000Y-42300000I0J150000D01*
G01*
X55565000Y-40650000D01*
G75*
G02*
X55715000Y-40500000I150000J0D01*
G01*
X56015000Y-40500000D01*
G75*
G02*
X56165000Y-40650000I0J-150000D01*
G01*
X56165000Y-42300000D01*
G75*
G02*
X56015000Y-42450000I-150000J0D01*
G01*
G37*
G36*
G01*
X54745000Y-42450000D02*
X54445000Y-42450000D01*
G75*
G02*
X54295000Y-42300000I0J150000D01*
G01*
X54295000Y-40650000D01*
G75*
G02*
X54445000Y-40500000I150000J0D01*
G01*
X54745000Y-40500000D01*
G75*
G02*
X54895000Y-40650000I0J-150000D01*
G01*
X54895000Y-42300000D01*
G75*
G02*
X54745000Y-42450000I-150000J0D01*
G01*
G37*
D15*
X77850000Y-69500000D03*
X80150000Y-68550000D03*
X80150000Y-70450000D03*
G36*
G01*
X66400000Y-66743750D02*
X66400000Y-67256250D01*
G75*
G02*
X66181250Y-67475000I-218750J0D01*
G01*
X65743750Y-67475000D01*
G75*
G02*
X65525000Y-67256250I0J218750D01*
G01*
X65525000Y-66743750D01*
G75*
G02*
X65743750Y-66525000I218750J0D01*
G01*
X66181250Y-66525000D01*
G75*
G02*
X66400000Y-66743750I0J-218750D01*
G01*
G37*
G36*
G01*
X67975000Y-66743750D02*
X67975000Y-67256250D01*
G75*
G02*
X67756250Y-67475000I-218750J0D01*
G01*
X67318750Y-67475000D01*
G75*
G02*
X67100000Y-67256250I0J218750D01*
G01*
X67100000Y-66743750D01*
G75*
G02*
X67318750Y-66525000I218750J0D01*
G01*
X67756250Y-66525000D01*
G75*
G02*
X67975000Y-66743750I0J-218750D01*
G01*
G37*
G36*
G01*
X70701244Y-47129621D02*
X70338851Y-46767229D01*
G75*
G02*
X70338851Y-46457869I154680J154680D01*
G01*
X70648210Y-46148510D01*
G75*
G02*
X70957570Y-46148510I154680J-154680D01*
G01*
X71319963Y-46510903D01*
G75*
G02*
X71319963Y-46820263I-154680J-154680D01*
G01*
X71010604Y-47129622D01*
G75*
G02*
X70701244Y-47129622I-154680J154680D01*
G01*
G37*
G36*
G01*
X71814938Y-46015927D02*
X71452545Y-45653535D01*
G75*
G02*
X71452545Y-45344175I154680J154680D01*
G01*
X71761904Y-45034816D01*
G75*
G02*
X72071264Y-45034816I154680J-154680D01*
G01*
X72433657Y-45397209D01*
G75*
G02*
X72433657Y-45706569I-154680J-154680D01*
G01*
X72124298Y-46015928D01*
G75*
G02*
X71814938Y-46015928I-154680J154680D01*
G01*
G37*
G36*
G01*
X76743750Y-31850000D02*
X77256250Y-31850000D01*
G75*
G02*
X77475000Y-32068750I0J-218750D01*
G01*
X77475000Y-32506250D01*
G75*
G02*
X77256250Y-32725000I-218750J0D01*
G01*
X76743750Y-32725000D01*
G75*
G02*
X76525000Y-32506250I0J218750D01*
G01*
X76525000Y-32068750D01*
G75*
G02*
X76743750Y-31850000I218750J0D01*
G01*
G37*
G36*
G01*
X76743750Y-30275000D02*
X77256250Y-30275000D01*
G75*
G02*
X77475000Y-30493750I0J-218750D01*
G01*
X77475000Y-30931250D01*
G75*
G02*
X77256250Y-31150000I-218750J0D01*
G01*
X76743750Y-31150000D01*
G75*
G02*
X76525000Y-30931250I0J218750D01*
G01*
X76525000Y-30493750D01*
G75*
G02*
X76743750Y-30275000I218750J0D01*
G01*
G37*
G36*
G01*
X74590331Y-60918203D02*
X74227938Y-60555811D01*
G75*
G02*
X74227938Y-60246451I154680J154680D01*
G01*
X74537297Y-59937092D01*
G75*
G02*
X74846657Y-59937092I154680J-154680D01*
G01*
X75209050Y-60299485D01*
G75*
G02*
X75209050Y-60608845I-154680J-154680D01*
G01*
X74899691Y-60918204D01*
G75*
G02*
X74590331Y-60918204I-154680J154680D01*
G01*
G37*
G36*
G01*
X75704025Y-59804509D02*
X75341632Y-59442117D01*
G75*
G02*
X75341632Y-59132757I154680J154680D01*
G01*
X75650991Y-58823398D01*
G75*
G02*
X75960351Y-58823398I154680J-154680D01*
G01*
X76322744Y-59185791D01*
G75*
G02*
X76322744Y-59495151I-154680J-154680D01*
G01*
X76013385Y-59804510D01*
G75*
G02*
X75704025Y-59804510I-154680J154680D01*
G01*
G37*
G36*
G01*
X66767963Y-46802584D02*
X67130356Y-47164976D01*
G75*
G02*
X67130356Y-47474336I-154680J-154680D01*
G01*
X66820997Y-47783695D01*
G75*
G02*
X66511637Y-47783695I-154680J154680D01*
G01*
X66149244Y-47421302D01*
G75*
G02*
X66149244Y-47111942I154680J154680D01*
G01*
X66458603Y-46802583D01*
G75*
G02*
X66767963Y-46802583I154680J-154680D01*
G01*
G37*
G36*
G01*
X65654269Y-47916278D02*
X66016662Y-48278670D01*
G75*
G02*
X66016662Y-48588030I-154680J-154680D01*
G01*
X65707303Y-48897389D01*
G75*
G02*
X65397943Y-48897389I-154680J154680D01*
G01*
X65035550Y-48534996D01*
G75*
G02*
X65035550Y-48225636I154680J154680D01*
G01*
X65344909Y-47916277D01*
G75*
G02*
X65654269Y-47916277I154680J-154680D01*
G01*
G37*
G36*
G01*
X54243750Y-32275000D02*
X54756250Y-32275000D01*
G75*
G02*
X54975000Y-32493750I0J-218750D01*
G01*
X54975000Y-32931250D01*
G75*
G02*
X54756250Y-33150000I-218750J0D01*
G01*
X54243750Y-33150000D01*
G75*
G02*
X54025000Y-32931250I0J218750D01*
G01*
X54025000Y-32493750D01*
G75*
G02*
X54243750Y-32275000I218750J0D01*
G01*
G37*
G36*
G01*
X54243750Y-33850000D02*
X54756250Y-33850000D01*
G75*
G02*
X54975000Y-34068750I0J-218750D01*
G01*
X54975000Y-34506250D01*
G75*
G02*
X54756250Y-34725000I-218750J0D01*
G01*
X54243750Y-34725000D01*
G75*
G02*
X54025000Y-34506250I0J218750D01*
G01*
X54025000Y-34068750D01*
G75*
G02*
X54243750Y-33850000I218750J0D01*
G01*
G37*
G36*
G01*
X80756250Y-45725000D02*
X80243750Y-45725000D01*
G75*
G02*
X80025000Y-45506250I0J218750D01*
G01*
X80025000Y-45068750D01*
G75*
G02*
X80243750Y-44850000I218750J0D01*
G01*
X80756250Y-44850000D01*
G75*
G02*
X80975000Y-45068750I0J-218750D01*
G01*
X80975000Y-45506250D01*
G75*
G02*
X80756250Y-45725000I-218750J0D01*
G01*
G37*
G36*
G01*
X80756250Y-44150000D02*
X80243750Y-44150000D01*
G75*
G02*
X80025000Y-43931250I0J218750D01*
G01*
X80025000Y-43493750D01*
G75*
G02*
X80243750Y-43275000I218750J0D01*
G01*
X80756250Y-43275000D01*
G75*
G02*
X80975000Y-43493750I0J-218750D01*
G01*
X80975000Y-43931250D01*
G75*
G02*
X80756250Y-44150000I-218750J0D01*
G01*
G37*
G36*
G01*
X60756250Y-48725000D02*
X60243750Y-48725000D01*
G75*
G02*
X60025000Y-48506250I0J218750D01*
G01*
X60025000Y-48068750D01*
G75*
G02*
X60243750Y-47850000I218750J0D01*
G01*
X60756250Y-47850000D01*
G75*
G02*
X60975000Y-48068750I0J-218750D01*
G01*
X60975000Y-48506250D01*
G75*
G02*
X60756250Y-48725000I-218750J0D01*
G01*
G37*
G36*
G01*
X60756250Y-47150000D02*
X60243750Y-47150000D01*
G75*
G02*
X60025000Y-46931250I0J218750D01*
G01*
X60025000Y-46493750D01*
G75*
G02*
X60243750Y-46275000I218750J0D01*
G01*
X60756250Y-46275000D01*
G75*
G02*
X60975000Y-46493750I0J-218750D01*
G01*
X60975000Y-46931250D01*
G75*
G02*
X60756250Y-47150000I-218750J0D01*
G01*
G37*
G36*
G01*
X80756250Y-41725000D02*
X80243750Y-41725000D01*
G75*
G02*
X80025000Y-41506250I0J218750D01*
G01*
X80025000Y-41068750D01*
G75*
G02*
X80243750Y-40850000I218750J0D01*
G01*
X80756250Y-40850000D01*
G75*
G02*
X80975000Y-41068750I0J-218750D01*
G01*
X80975000Y-41506250D01*
G75*
G02*
X80756250Y-41725000I-218750J0D01*
G01*
G37*
G36*
G01*
X80756250Y-40150000D02*
X80243750Y-40150000D01*
G75*
G02*
X80025000Y-39931250I0J218750D01*
G01*
X80025000Y-39493750D01*
G75*
G02*
X80243750Y-39275000I218750J0D01*
G01*
X80756250Y-39275000D01*
G75*
G02*
X80975000Y-39493750I0J-218750D01*
G01*
X80975000Y-39931250D01*
G75*
G02*
X80756250Y-40150000I-218750J0D01*
G01*
G37*
G36*
G01*
X74554976Y-48181442D02*
X74192584Y-48543835D01*
G75*
G02*
X73883224Y-48543835I-154680J154680D01*
G01*
X73573865Y-48234476D01*
G75*
G02*
X73573865Y-47925116I154680J154680D01*
G01*
X73936258Y-47562723D01*
G75*
G02*
X74245618Y-47562723I154680J-154680D01*
G01*
X74554977Y-47872082D01*
G75*
G02*
X74554977Y-48181442I-154680J-154680D01*
G01*
G37*
G36*
G01*
X73441282Y-47067748D02*
X73078890Y-47430141D01*
G75*
G02*
X72769530Y-47430141I-154680J154680D01*
G01*
X72460171Y-47120782D01*
G75*
G02*
X72460171Y-46811422I154680J154680D01*
G01*
X72822564Y-46449029D01*
G75*
G02*
X73131924Y-46449029I154680J-154680D01*
G01*
X73441283Y-46758388D01*
G75*
G02*
X73441283Y-47067748I-154680J-154680D01*
G01*
G37*
G36*
G01*
X86725000Y-67743750D02*
X86725000Y-68256250D01*
G75*
G02*
X86506250Y-68475000I-218750J0D01*
G01*
X86068750Y-68475000D01*
G75*
G02*
X85850000Y-68256250I0J218750D01*
G01*
X85850000Y-67743750D01*
G75*
G02*
X86068750Y-67525000I218750J0D01*
G01*
X86506250Y-67525000D01*
G75*
G02*
X86725000Y-67743750I0J-218750D01*
G01*
G37*
G36*
G01*
X85150000Y-67743750D02*
X85150000Y-68256250D01*
G75*
G02*
X84931250Y-68475000I-218750J0D01*
G01*
X84493750Y-68475000D01*
G75*
G02*
X84275000Y-68256250I0J218750D01*
G01*
X84275000Y-67743750D01*
G75*
G02*
X84493750Y-67525000I218750J0D01*
G01*
X84931250Y-67525000D01*
G75*
G02*
X85150000Y-67743750I0J-218750D01*
G01*
G37*
G36*
G01*
X69650000Y-41743750D02*
X69650000Y-42256250D01*
G75*
G02*
X69431250Y-42475000I-218750J0D01*
G01*
X68993750Y-42475000D01*
G75*
G02*
X68775000Y-42256250I0J218750D01*
G01*
X68775000Y-41743750D01*
G75*
G02*
X68993750Y-41525000I218750J0D01*
G01*
X69431250Y-41525000D01*
G75*
G02*
X69650000Y-41743750I0J-218750D01*
G01*
G37*
G36*
G01*
X71225000Y-41743750D02*
X71225000Y-42256250D01*
G75*
G02*
X71006250Y-42475000I-218750J0D01*
G01*
X70568750Y-42475000D01*
G75*
G02*
X70350000Y-42256250I0J218750D01*
G01*
X70350000Y-41743750D01*
G75*
G02*
X70568750Y-41525000I218750J0D01*
G01*
X71006250Y-41525000D01*
G75*
G02*
X71225000Y-41743750I0J-218750D01*
G01*
G37*
D16*
X78688000Y-63405000D03*
X78688000Y-62135000D03*
X78688000Y-60865000D03*
X78688000Y-59595000D03*
X86312000Y-59595000D03*
X86312000Y-60865000D03*
X86312000Y-62135000D03*
X86312000Y-63405000D03*
D17*
X85075000Y-53575000D03*
X80925000Y-53575000D03*
X85075000Y-51425000D03*
X80925000Y-51425000D03*
D10*
X18535000Y-62560000D03*
X14465000Y-62560000D03*
X18535000Y-61290000D03*
X14465000Y-61290000D03*
X18535000Y-60020000D03*
X14465000Y-60020000D03*
X18535000Y-58750000D03*
X14465000Y-58750000D03*
X18535000Y-57480000D03*
X14465000Y-57480000D03*
X18535000Y-56210000D03*
X14465000Y-56210000D03*
X18535000Y-54940000D03*
X14465000Y-54940000D03*
G36*
G01*
X28037778Y-47340544D02*
X28143844Y-47234478D01*
G75*
G02*
X28249910Y-47234478I53033J-53033D01*
G01*
X29239860Y-48224428D01*
G75*
G02*
X29239860Y-48330494I-53033J-53033D01*
G01*
X29133794Y-48436560D01*
G75*
G02*
X29027728Y-48436560I-53033J53033D01*
G01*
X28037778Y-47446610D01*
G75*
G02*
X28037778Y-47340544I53033J53033D01*
G01*
G37*
G36*
G01*
X27684225Y-47694097D02*
X27790291Y-47588031D01*
G75*
G02*
X27896357Y-47588031I53033J-53033D01*
G01*
X28886307Y-48577981D01*
G75*
G02*
X28886307Y-48684047I-53033J-53033D01*
G01*
X28780241Y-48790113D01*
G75*
G02*
X28674175Y-48790113I-53033J53033D01*
G01*
X27684225Y-47800163D01*
G75*
G02*
X27684225Y-47694097I53033J53033D01*
G01*
G37*
G36*
G01*
X27330672Y-48047650D02*
X27436738Y-47941584D01*
G75*
G02*
X27542804Y-47941584I53033J-53033D01*
G01*
X28532754Y-48931534D01*
G75*
G02*
X28532754Y-49037600I-53033J-53033D01*
G01*
X28426688Y-49143666D01*
G75*
G02*
X28320622Y-49143666I-53033J53033D01*
G01*
X27330672Y-48153716D01*
G75*
G02*
X27330672Y-48047650I53033J53033D01*
G01*
G37*
G36*
G01*
X26977118Y-48401204D02*
X27083184Y-48295138D01*
G75*
G02*
X27189250Y-48295138I53033J-53033D01*
G01*
X28179200Y-49285088D01*
G75*
G02*
X28179200Y-49391154I-53033J-53033D01*
G01*
X28073134Y-49497220D01*
G75*
G02*
X27967068Y-49497220I-53033J53033D01*
G01*
X26977118Y-48507270D01*
G75*
G02*
X26977118Y-48401204I53033J53033D01*
G01*
G37*
G36*
G01*
X26623565Y-48754757D02*
X26729631Y-48648691D01*
G75*
G02*
X26835697Y-48648691I53033J-53033D01*
G01*
X27825647Y-49638641D01*
G75*
G02*
X27825647Y-49744707I-53033J-53033D01*
G01*
X27719581Y-49850773D01*
G75*
G02*
X27613515Y-49850773I-53033J53033D01*
G01*
X26623565Y-48860823D01*
G75*
G02*
X26623565Y-48754757I53033J53033D01*
G01*
G37*
G36*
G01*
X26270011Y-49108311D02*
X26376077Y-49002245D01*
G75*
G02*
X26482143Y-49002245I53033J-53033D01*
G01*
X27472093Y-49992195D01*
G75*
G02*
X27472093Y-50098261I-53033J-53033D01*
G01*
X27366027Y-50204327D01*
G75*
G02*
X27259961Y-50204327I-53033J53033D01*
G01*
X26270011Y-49214377D01*
G75*
G02*
X26270011Y-49108311I53033J53033D01*
G01*
G37*
G36*
G01*
X25916458Y-49461864D02*
X26022524Y-49355798D01*
G75*
G02*
X26128590Y-49355798I53033J-53033D01*
G01*
X27118540Y-50345748D01*
G75*
G02*
X27118540Y-50451814I-53033J-53033D01*
G01*
X27012474Y-50557880D01*
G75*
G02*
X26906408Y-50557880I-53033J53033D01*
G01*
X25916458Y-49567930D01*
G75*
G02*
X25916458Y-49461864I53033J53033D01*
G01*
G37*
G36*
G01*
X25562905Y-49815417D02*
X25668971Y-49709351D01*
G75*
G02*
X25775037Y-49709351I53033J-53033D01*
G01*
X26764987Y-50699301D01*
G75*
G02*
X26764987Y-50805367I-53033J-53033D01*
G01*
X26658921Y-50911433D01*
G75*
G02*
X26552855Y-50911433I-53033J53033D01*
G01*
X25562905Y-49921483D01*
G75*
G02*
X25562905Y-49815417I53033J53033D01*
G01*
G37*
G36*
G01*
X25209351Y-50168971D02*
X25315417Y-50062905D01*
G75*
G02*
X25421483Y-50062905I53033J-53033D01*
G01*
X26411433Y-51052855D01*
G75*
G02*
X26411433Y-51158921I-53033J-53033D01*
G01*
X26305367Y-51264987D01*
G75*
G02*
X26199301Y-51264987I-53033J53033D01*
G01*
X25209351Y-50275037D01*
G75*
G02*
X25209351Y-50168971I53033J53033D01*
G01*
G37*
G36*
G01*
X24855798Y-50522524D02*
X24961864Y-50416458D01*
G75*
G02*
X25067930Y-50416458I53033J-53033D01*
G01*
X26057880Y-51406408D01*
G75*
G02*
X26057880Y-51512474I-53033J-53033D01*
G01*
X25951814Y-51618540D01*
G75*
G02*
X25845748Y-51618540I-53033J53033D01*
G01*
X24855798Y-50628590D01*
G75*
G02*
X24855798Y-50522524I53033J53033D01*
G01*
G37*
G36*
G01*
X24502245Y-50876077D02*
X24608311Y-50770011D01*
G75*
G02*
X24714377Y-50770011I53033J-53033D01*
G01*
X25704327Y-51759961D01*
G75*
G02*
X25704327Y-51866027I-53033J-53033D01*
G01*
X25598261Y-51972093D01*
G75*
G02*
X25492195Y-51972093I-53033J53033D01*
G01*
X24502245Y-50982143D01*
G75*
G02*
X24502245Y-50876077I53033J53033D01*
G01*
G37*
G36*
G01*
X24148691Y-51229631D02*
X24254757Y-51123565D01*
G75*
G02*
X24360823Y-51123565I53033J-53033D01*
G01*
X25350773Y-52113515D01*
G75*
G02*
X25350773Y-52219581I-53033J-53033D01*
G01*
X25244707Y-52325647D01*
G75*
G02*
X25138641Y-52325647I-53033J53033D01*
G01*
X24148691Y-51335697D01*
G75*
G02*
X24148691Y-51229631I53033J53033D01*
G01*
G37*
G36*
G01*
X23795138Y-51583184D02*
X23901204Y-51477118D01*
G75*
G02*
X24007270Y-51477118I53033J-53033D01*
G01*
X24997220Y-52467068D01*
G75*
G02*
X24997220Y-52573134I-53033J-53033D01*
G01*
X24891154Y-52679200D01*
G75*
G02*
X24785088Y-52679200I-53033J53033D01*
G01*
X23795138Y-51689250D01*
G75*
G02*
X23795138Y-51583184I53033J53033D01*
G01*
G37*
G36*
G01*
X23441584Y-51936738D02*
X23547650Y-51830672D01*
G75*
G02*
X23653716Y-51830672I53033J-53033D01*
G01*
X24643666Y-52820622D01*
G75*
G02*
X24643666Y-52926688I-53033J-53033D01*
G01*
X24537600Y-53032754D01*
G75*
G02*
X24431534Y-53032754I-53033J53033D01*
G01*
X23441584Y-52042804D01*
G75*
G02*
X23441584Y-51936738I53033J53033D01*
G01*
G37*
G36*
G01*
X23088031Y-52290291D02*
X23194097Y-52184225D01*
G75*
G02*
X23300163Y-52184225I53033J-53033D01*
G01*
X24290113Y-53174175D01*
G75*
G02*
X24290113Y-53280241I-53033J-53033D01*
G01*
X24184047Y-53386307D01*
G75*
G02*
X24077981Y-53386307I-53033J53033D01*
G01*
X23088031Y-52396357D01*
G75*
G02*
X23088031Y-52290291I53033J53033D01*
G01*
G37*
G36*
G01*
X22734478Y-52643844D02*
X22840544Y-52537778D01*
G75*
G02*
X22946610Y-52537778I53033J-53033D01*
G01*
X23936560Y-53527728D01*
G75*
G02*
X23936560Y-53633794I-53033J-53033D01*
G01*
X23830494Y-53739860D01*
G75*
G02*
X23724428Y-53739860I-53033J53033D01*
G01*
X22734478Y-52749910D01*
G75*
G02*
X22734478Y-52643844I53033J53033D01*
G01*
G37*
G36*
G01*
X22734478Y-56250090D02*
X23724428Y-55260140D01*
G75*
G02*
X23830494Y-55260140I53033J-53033D01*
G01*
X23936560Y-55366206D01*
G75*
G02*
X23936560Y-55472272I-53033J-53033D01*
G01*
X22946610Y-56462222D01*
G75*
G02*
X22840544Y-56462222I-53033J53033D01*
G01*
X22734478Y-56356156D01*
G75*
G02*
X22734478Y-56250090I53033J53033D01*
G01*
G37*
G36*
G01*
X23088031Y-56603643D02*
X24077981Y-55613693D01*
G75*
G02*
X24184047Y-55613693I53033J-53033D01*
G01*
X24290113Y-55719759D01*
G75*
G02*
X24290113Y-55825825I-53033J-53033D01*
G01*
X23300163Y-56815775D01*
G75*
G02*
X23194097Y-56815775I-53033J53033D01*
G01*
X23088031Y-56709709D01*
G75*
G02*
X23088031Y-56603643I53033J53033D01*
G01*
G37*
G36*
G01*
X23441584Y-56957196D02*
X24431534Y-55967246D01*
G75*
G02*
X24537600Y-55967246I53033J-53033D01*
G01*
X24643666Y-56073312D01*
G75*
G02*
X24643666Y-56179378I-53033J-53033D01*
G01*
X23653716Y-57169328D01*
G75*
G02*
X23547650Y-57169328I-53033J53033D01*
G01*
X23441584Y-57063262D01*
G75*
G02*
X23441584Y-56957196I53033J53033D01*
G01*
G37*
G36*
G01*
X23795138Y-57310750D02*
X24785088Y-56320800D01*
G75*
G02*
X24891154Y-56320800I53033J-53033D01*
G01*
X24997220Y-56426866D01*
G75*
G02*
X24997220Y-56532932I-53033J-53033D01*
G01*
X24007270Y-57522882D01*
G75*
G02*
X23901204Y-57522882I-53033J53033D01*
G01*
X23795138Y-57416816D01*
G75*
G02*
X23795138Y-57310750I53033J53033D01*
G01*
G37*
G36*
G01*
X24148691Y-57664303D02*
X25138641Y-56674353D01*
G75*
G02*
X25244707Y-56674353I53033J-53033D01*
G01*
X25350773Y-56780419D01*
G75*
G02*
X25350773Y-56886485I-53033J-53033D01*
G01*
X24360823Y-57876435D01*
G75*
G02*
X24254757Y-57876435I-53033J53033D01*
G01*
X24148691Y-57770369D01*
G75*
G02*
X24148691Y-57664303I53033J53033D01*
G01*
G37*
G36*
G01*
X24502245Y-58017857D02*
X25492195Y-57027907D01*
G75*
G02*
X25598261Y-57027907I53033J-53033D01*
G01*
X25704327Y-57133973D01*
G75*
G02*
X25704327Y-57240039I-53033J-53033D01*
G01*
X24714377Y-58229989D01*
G75*
G02*
X24608311Y-58229989I-53033J53033D01*
G01*
X24502245Y-58123923D01*
G75*
G02*
X24502245Y-58017857I53033J53033D01*
G01*
G37*
G36*
G01*
X24855798Y-58371410D02*
X25845748Y-57381460D01*
G75*
G02*
X25951814Y-57381460I53033J-53033D01*
G01*
X26057880Y-57487526D01*
G75*
G02*
X26057880Y-57593592I-53033J-53033D01*
G01*
X25067930Y-58583542D01*
G75*
G02*
X24961864Y-58583542I-53033J53033D01*
G01*
X24855798Y-58477476D01*
G75*
G02*
X24855798Y-58371410I53033J53033D01*
G01*
G37*
G36*
G01*
X25209351Y-58724963D02*
X26199301Y-57735013D01*
G75*
G02*
X26305367Y-57735013I53033J-53033D01*
G01*
X26411433Y-57841079D01*
G75*
G02*
X26411433Y-57947145I-53033J-53033D01*
G01*
X25421483Y-58937095D01*
G75*
G02*
X25315417Y-58937095I-53033J53033D01*
G01*
X25209351Y-58831029D01*
G75*
G02*
X25209351Y-58724963I53033J53033D01*
G01*
G37*
G36*
G01*
X25562905Y-59078517D02*
X26552855Y-58088567D01*
G75*
G02*
X26658921Y-58088567I53033J-53033D01*
G01*
X26764987Y-58194633D01*
G75*
G02*
X26764987Y-58300699I-53033J-53033D01*
G01*
X25775037Y-59290649D01*
G75*
G02*
X25668971Y-59290649I-53033J53033D01*
G01*
X25562905Y-59184583D01*
G75*
G02*
X25562905Y-59078517I53033J53033D01*
G01*
G37*
G36*
G01*
X25916458Y-59432070D02*
X26906408Y-58442120D01*
G75*
G02*
X27012474Y-58442120I53033J-53033D01*
G01*
X27118540Y-58548186D01*
G75*
G02*
X27118540Y-58654252I-53033J-53033D01*
G01*
X26128590Y-59644202D01*
G75*
G02*
X26022524Y-59644202I-53033J53033D01*
G01*
X25916458Y-59538136D01*
G75*
G02*
X25916458Y-59432070I53033J53033D01*
G01*
G37*
G36*
G01*
X26270011Y-59785623D02*
X27259961Y-58795673D01*
G75*
G02*
X27366027Y-58795673I53033J-53033D01*
G01*
X27472093Y-58901739D01*
G75*
G02*
X27472093Y-59007805I-53033J-53033D01*
G01*
X26482143Y-59997755D01*
G75*
G02*
X26376077Y-59997755I-53033J53033D01*
G01*
X26270011Y-59891689D01*
G75*
G02*
X26270011Y-59785623I53033J53033D01*
G01*
G37*
G36*
G01*
X26623565Y-60139177D02*
X27613515Y-59149227D01*
G75*
G02*
X27719581Y-59149227I53033J-53033D01*
G01*
X27825647Y-59255293D01*
G75*
G02*
X27825647Y-59361359I-53033J-53033D01*
G01*
X26835697Y-60351309D01*
G75*
G02*
X26729631Y-60351309I-53033J53033D01*
G01*
X26623565Y-60245243D01*
G75*
G02*
X26623565Y-60139177I53033J53033D01*
G01*
G37*
G36*
G01*
X26977118Y-60492730D02*
X27967068Y-59502780D01*
G75*
G02*
X28073134Y-59502780I53033J-53033D01*
G01*
X28179200Y-59608846D01*
G75*
G02*
X28179200Y-59714912I-53033J-53033D01*
G01*
X27189250Y-60704862D01*
G75*
G02*
X27083184Y-60704862I-53033J53033D01*
G01*
X26977118Y-60598796D01*
G75*
G02*
X26977118Y-60492730I53033J53033D01*
G01*
G37*
G36*
G01*
X27330672Y-60846284D02*
X28320622Y-59856334D01*
G75*
G02*
X28426688Y-59856334I53033J-53033D01*
G01*
X28532754Y-59962400D01*
G75*
G02*
X28532754Y-60068466I-53033J-53033D01*
G01*
X27542804Y-61058416D01*
G75*
G02*
X27436738Y-61058416I-53033J53033D01*
G01*
X27330672Y-60952350D01*
G75*
G02*
X27330672Y-60846284I53033J53033D01*
G01*
G37*
G36*
G01*
X27684225Y-61199837D02*
X28674175Y-60209887D01*
G75*
G02*
X28780241Y-60209887I53033J-53033D01*
G01*
X28886307Y-60315953D01*
G75*
G02*
X28886307Y-60422019I-53033J-53033D01*
G01*
X27896357Y-61411969D01*
G75*
G02*
X27790291Y-61411969I-53033J53033D01*
G01*
X27684225Y-61305903D01*
G75*
G02*
X27684225Y-61199837I53033J53033D01*
G01*
G37*
G36*
G01*
X28037778Y-61553390D02*
X29027728Y-60563440D01*
G75*
G02*
X29133794Y-60563440I53033J-53033D01*
G01*
X29239860Y-60669506D01*
G75*
G02*
X29239860Y-60775572I-53033J-53033D01*
G01*
X28249910Y-61765522D01*
G75*
G02*
X28143844Y-61765522I-53033J53033D01*
G01*
X28037778Y-61659456D01*
G75*
G02*
X28037778Y-61553390I53033J53033D01*
G01*
G37*
G36*
G01*
X30760140Y-60669506D02*
X30866206Y-60563440D01*
G75*
G02*
X30972272Y-60563440I53033J-53033D01*
G01*
X31962222Y-61553390D01*
G75*
G02*
X31962222Y-61659456I-53033J-53033D01*
G01*
X31856156Y-61765522D01*
G75*
G02*
X31750090Y-61765522I-53033J53033D01*
G01*
X30760140Y-60775572D01*
G75*
G02*
X30760140Y-60669506I53033J53033D01*
G01*
G37*
G36*
G01*
X31113693Y-60315953D02*
X31219759Y-60209887D01*
G75*
G02*
X31325825Y-60209887I53033J-53033D01*
G01*
X32315775Y-61199837D01*
G75*
G02*
X32315775Y-61305903I-53033J-53033D01*
G01*
X32209709Y-61411969D01*
G75*
G02*
X32103643Y-61411969I-53033J53033D01*
G01*
X31113693Y-60422019D01*
G75*
G02*
X31113693Y-60315953I53033J53033D01*
G01*
G37*
G36*
G01*
X31467246Y-59962400D02*
X31573312Y-59856334D01*
G75*
G02*
X31679378Y-59856334I53033J-53033D01*
G01*
X32669328Y-60846284D01*
G75*
G02*
X32669328Y-60952350I-53033J-53033D01*
G01*
X32563262Y-61058416D01*
G75*
G02*
X32457196Y-61058416I-53033J53033D01*
G01*
X31467246Y-60068466D01*
G75*
G02*
X31467246Y-59962400I53033J53033D01*
G01*
G37*
G36*
G01*
X31820800Y-59608846D02*
X31926866Y-59502780D01*
G75*
G02*
X32032932Y-59502780I53033J-53033D01*
G01*
X33022882Y-60492730D01*
G75*
G02*
X33022882Y-60598796I-53033J-53033D01*
G01*
X32916816Y-60704862D01*
G75*
G02*
X32810750Y-60704862I-53033J53033D01*
G01*
X31820800Y-59714912D01*
G75*
G02*
X31820800Y-59608846I53033J53033D01*
G01*
G37*
G36*
G01*
X32174353Y-59255293D02*
X32280419Y-59149227D01*
G75*
G02*
X32386485Y-59149227I53033J-53033D01*
G01*
X33376435Y-60139177D01*
G75*
G02*
X33376435Y-60245243I-53033J-53033D01*
G01*
X33270369Y-60351309D01*
G75*
G02*
X33164303Y-60351309I-53033J53033D01*
G01*
X32174353Y-59361359D01*
G75*
G02*
X32174353Y-59255293I53033J53033D01*
G01*
G37*
G36*
G01*
X32527907Y-58901739D02*
X32633973Y-58795673D01*
G75*
G02*
X32740039Y-58795673I53033J-53033D01*
G01*
X33729989Y-59785623D01*
G75*
G02*
X33729989Y-59891689I-53033J-53033D01*
G01*
X33623923Y-59997755D01*
G75*
G02*
X33517857Y-59997755I-53033J53033D01*
G01*
X32527907Y-59007805D01*
G75*
G02*
X32527907Y-58901739I53033J53033D01*
G01*
G37*
G36*
G01*
X32881460Y-58548186D02*
X32987526Y-58442120D01*
G75*
G02*
X33093592Y-58442120I53033J-53033D01*
G01*
X34083542Y-59432070D01*
G75*
G02*
X34083542Y-59538136I-53033J-53033D01*
G01*
X33977476Y-59644202D01*
G75*
G02*
X33871410Y-59644202I-53033J53033D01*
G01*
X32881460Y-58654252D01*
G75*
G02*
X32881460Y-58548186I53033J53033D01*
G01*
G37*
G36*
G01*
X33235013Y-58194633D02*
X33341079Y-58088567D01*
G75*
G02*
X33447145Y-58088567I53033J-53033D01*
G01*
X34437095Y-59078517D01*
G75*
G02*
X34437095Y-59184583I-53033J-53033D01*
G01*
X34331029Y-59290649D01*
G75*
G02*
X34224963Y-59290649I-53033J53033D01*
G01*
X33235013Y-58300699D01*
G75*
G02*
X33235013Y-58194633I53033J53033D01*
G01*
G37*
G36*
G01*
X33588567Y-57841079D02*
X33694633Y-57735013D01*
G75*
G02*
X33800699Y-57735013I53033J-53033D01*
G01*
X34790649Y-58724963D01*
G75*
G02*
X34790649Y-58831029I-53033J-53033D01*
G01*
X34684583Y-58937095D01*
G75*
G02*
X34578517Y-58937095I-53033J53033D01*
G01*
X33588567Y-57947145D01*
G75*
G02*
X33588567Y-57841079I53033J53033D01*
G01*
G37*
G36*
G01*
X33942120Y-57487526D02*
X34048186Y-57381460D01*
G75*
G02*
X34154252Y-57381460I53033J-53033D01*
G01*
X35144202Y-58371410D01*
G75*
G02*
X35144202Y-58477476I-53033J-53033D01*
G01*
X35038136Y-58583542D01*
G75*
G02*
X34932070Y-58583542I-53033J53033D01*
G01*
X33942120Y-57593592D01*
G75*
G02*
X33942120Y-57487526I53033J53033D01*
G01*
G37*
G36*
G01*
X34295673Y-57133973D02*
X34401739Y-57027907D01*
G75*
G02*
X34507805Y-57027907I53033J-53033D01*
G01*
X35497755Y-58017857D01*
G75*
G02*
X35497755Y-58123923I-53033J-53033D01*
G01*
X35391689Y-58229989D01*
G75*
G02*
X35285623Y-58229989I-53033J53033D01*
G01*
X34295673Y-57240039D01*
G75*
G02*
X34295673Y-57133973I53033J53033D01*
G01*
G37*
G36*
G01*
X34649227Y-56780419D02*
X34755293Y-56674353D01*
G75*
G02*
X34861359Y-56674353I53033J-53033D01*
G01*
X35851309Y-57664303D01*
G75*
G02*
X35851309Y-57770369I-53033J-53033D01*
G01*
X35745243Y-57876435D01*
G75*
G02*
X35639177Y-57876435I-53033J53033D01*
G01*
X34649227Y-56886485D01*
G75*
G02*
X34649227Y-56780419I53033J53033D01*
G01*
G37*
G36*
G01*
X35002780Y-56426866D02*
X35108846Y-56320800D01*
G75*
G02*
X35214912Y-56320800I53033J-53033D01*
G01*
X36204862Y-57310750D01*
G75*
G02*
X36204862Y-57416816I-53033J-53033D01*
G01*
X36098796Y-57522882D01*
G75*
G02*
X35992730Y-57522882I-53033J53033D01*
G01*
X35002780Y-56532932D01*
G75*
G02*
X35002780Y-56426866I53033J53033D01*
G01*
G37*
G36*
G01*
X35356334Y-56073312D02*
X35462400Y-55967246D01*
G75*
G02*
X35568466Y-55967246I53033J-53033D01*
G01*
X36558416Y-56957196D01*
G75*
G02*
X36558416Y-57063262I-53033J-53033D01*
G01*
X36452350Y-57169328D01*
G75*
G02*
X36346284Y-57169328I-53033J53033D01*
G01*
X35356334Y-56179378D01*
G75*
G02*
X35356334Y-56073312I53033J53033D01*
G01*
G37*
G36*
G01*
X35709887Y-55719759D02*
X35815953Y-55613693D01*
G75*
G02*
X35922019Y-55613693I53033J-53033D01*
G01*
X36911969Y-56603643D01*
G75*
G02*
X36911969Y-56709709I-53033J-53033D01*
G01*
X36805903Y-56815775D01*
G75*
G02*
X36699837Y-56815775I-53033J53033D01*
G01*
X35709887Y-55825825D01*
G75*
G02*
X35709887Y-55719759I53033J53033D01*
G01*
G37*
G36*
G01*
X36063440Y-55366206D02*
X36169506Y-55260140D01*
G75*
G02*
X36275572Y-55260140I53033J-53033D01*
G01*
X37265522Y-56250090D01*
G75*
G02*
X37265522Y-56356156I-53033J-53033D01*
G01*
X37159456Y-56462222D01*
G75*
G02*
X37053390Y-56462222I-53033J53033D01*
G01*
X36063440Y-55472272D01*
G75*
G02*
X36063440Y-55366206I53033J53033D01*
G01*
G37*
G36*
G01*
X36063440Y-53527728D02*
X37053390Y-52537778D01*
G75*
G02*
X37159456Y-52537778I53033J-53033D01*
G01*
X37265522Y-52643844D01*
G75*
G02*
X37265522Y-52749910I-53033J-53033D01*
G01*
X36275572Y-53739860D01*
G75*
G02*
X36169506Y-53739860I-53033J53033D01*
G01*
X36063440Y-53633794D01*
G75*
G02*
X36063440Y-53527728I53033J53033D01*
G01*
G37*
G36*
G01*
X35709887Y-53174175D02*
X36699837Y-52184225D01*
G75*
G02*
X36805903Y-52184225I53033J-53033D01*
G01*
X36911969Y-52290291D01*
G75*
G02*
X36911969Y-52396357I-53033J-53033D01*
G01*
X35922019Y-53386307D01*
G75*
G02*
X35815953Y-53386307I-53033J53033D01*
G01*
X35709887Y-53280241D01*
G75*
G02*
X35709887Y-53174175I53033J53033D01*
G01*
G37*
G36*
G01*
X35356334Y-52820622D02*
X36346284Y-51830672D01*
G75*
G02*
X36452350Y-51830672I53033J-53033D01*
G01*
X36558416Y-51936738D01*
G75*
G02*
X36558416Y-52042804I-53033J-53033D01*
G01*
X35568466Y-53032754D01*
G75*
G02*
X35462400Y-53032754I-53033J53033D01*
G01*
X35356334Y-52926688D01*
G75*
G02*
X35356334Y-52820622I53033J53033D01*
G01*
G37*
G36*
G01*
X35002780Y-52467068D02*
X35992730Y-51477118D01*
G75*
G02*
X36098796Y-51477118I53033J-53033D01*
G01*
X36204862Y-51583184D01*
G75*
G02*
X36204862Y-51689250I-53033J-53033D01*
G01*
X35214912Y-52679200D01*
G75*
G02*
X35108846Y-52679200I-53033J53033D01*
G01*
X35002780Y-52573134D01*
G75*
G02*
X35002780Y-52467068I53033J53033D01*
G01*
G37*
G36*
G01*
X34649227Y-52113515D02*
X35639177Y-51123565D01*
G75*
G02*
X35745243Y-51123565I53033J-53033D01*
G01*
X35851309Y-51229631D01*
G75*
G02*
X35851309Y-51335697I-53033J-53033D01*
G01*
X34861359Y-52325647D01*
G75*
G02*
X34755293Y-52325647I-53033J53033D01*
G01*
X34649227Y-52219581D01*
G75*
G02*
X34649227Y-52113515I53033J53033D01*
G01*
G37*
G36*
G01*
X34295673Y-51759961D02*
X35285623Y-50770011D01*
G75*
G02*
X35391689Y-50770011I53033J-53033D01*
G01*
X35497755Y-50876077D01*
G75*
G02*
X35497755Y-50982143I-53033J-53033D01*
G01*
X34507805Y-51972093D01*
G75*
G02*
X34401739Y-51972093I-53033J53033D01*
G01*
X34295673Y-51866027D01*
G75*
G02*
X34295673Y-51759961I53033J53033D01*
G01*
G37*
G36*
G01*
X33942120Y-51406408D02*
X34932070Y-50416458D01*
G75*
G02*
X35038136Y-50416458I53033J-53033D01*
G01*
X35144202Y-50522524D01*
G75*
G02*
X35144202Y-50628590I-53033J-53033D01*
G01*
X34154252Y-51618540D01*
G75*
G02*
X34048186Y-51618540I-53033J53033D01*
G01*
X33942120Y-51512474D01*
G75*
G02*
X33942120Y-51406408I53033J53033D01*
G01*
G37*
G36*
G01*
X33588567Y-51052855D02*
X34578517Y-50062905D01*
G75*
G02*
X34684583Y-50062905I53033J-53033D01*
G01*
X34790649Y-50168971D01*
G75*
G02*
X34790649Y-50275037I-53033J-53033D01*
G01*
X33800699Y-51264987D01*
G75*
G02*
X33694633Y-51264987I-53033J53033D01*
G01*
X33588567Y-51158921D01*
G75*
G02*
X33588567Y-51052855I53033J53033D01*
G01*
G37*
G36*
G01*
X33235013Y-50699301D02*
X34224963Y-49709351D01*
G75*
G02*
X34331029Y-49709351I53033J-53033D01*
G01*
X34437095Y-49815417D01*
G75*
G02*
X34437095Y-49921483I-53033J-53033D01*
G01*
X33447145Y-50911433D01*
G75*
G02*
X33341079Y-50911433I-53033J53033D01*
G01*
X33235013Y-50805367D01*
G75*
G02*
X33235013Y-50699301I53033J53033D01*
G01*
G37*
G36*
G01*
X32881460Y-50345748D02*
X33871410Y-49355798D01*
G75*
G02*
X33977476Y-49355798I53033J-53033D01*
G01*
X34083542Y-49461864D01*
G75*
G02*
X34083542Y-49567930I-53033J-53033D01*
G01*
X33093592Y-50557880D01*
G75*
G02*
X32987526Y-50557880I-53033J53033D01*
G01*
X32881460Y-50451814D01*
G75*
G02*
X32881460Y-50345748I53033J53033D01*
G01*
G37*
G36*
G01*
X32527907Y-49992195D02*
X33517857Y-49002245D01*
G75*
G02*
X33623923Y-49002245I53033J-53033D01*
G01*
X33729989Y-49108311D01*
G75*
G02*
X33729989Y-49214377I-53033J-53033D01*
G01*
X32740039Y-50204327D01*
G75*
G02*
X32633973Y-50204327I-53033J53033D01*
G01*
X32527907Y-50098261D01*
G75*
G02*
X32527907Y-49992195I53033J53033D01*
G01*
G37*
G36*
G01*
X32174353Y-49638641D02*
X33164303Y-48648691D01*
G75*
G02*
X33270369Y-48648691I53033J-53033D01*
G01*
X33376435Y-48754757D01*
G75*
G02*
X33376435Y-48860823I-53033J-53033D01*
G01*
X32386485Y-49850773D01*
G75*
G02*
X32280419Y-49850773I-53033J53033D01*
G01*
X32174353Y-49744707D01*
G75*
G02*
X32174353Y-49638641I53033J53033D01*
G01*
G37*
G36*
G01*
X31820800Y-49285088D02*
X32810750Y-48295138D01*
G75*
G02*
X32916816Y-48295138I53033J-53033D01*
G01*
X33022882Y-48401204D01*
G75*
G02*
X33022882Y-48507270I-53033J-53033D01*
G01*
X32032932Y-49497220D01*
G75*
G02*
X31926866Y-49497220I-53033J53033D01*
G01*
X31820800Y-49391154D01*
G75*
G02*
X31820800Y-49285088I53033J53033D01*
G01*
G37*
G36*
G01*
X31467246Y-48931534D02*
X32457196Y-47941584D01*
G75*
G02*
X32563262Y-47941584I53033J-53033D01*
G01*
X32669328Y-48047650D01*
G75*
G02*
X32669328Y-48153716I-53033J-53033D01*
G01*
X31679378Y-49143666D01*
G75*
G02*
X31573312Y-49143666I-53033J53033D01*
G01*
X31467246Y-49037600D01*
G75*
G02*
X31467246Y-48931534I53033J53033D01*
G01*
G37*
G36*
G01*
X31113693Y-48577981D02*
X32103643Y-47588031D01*
G75*
G02*
X32209709Y-47588031I53033J-53033D01*
G01*
X32315775Y-47694097D01*
G75*
G02*
X32315775Y-47800163I-53033J-53033D01*
G01*
X31325825Y-48790113D01*
G75*
G02*
X31219759Y-48790113I-53033J53033D01*
G01*
X31113693Y-48684047D01*
G75*
G02*
X31113693Y-48577981I53033J53033D01*
G01*
G37*
G36*
G01*
X30760140Y-48224428D02*
X31750090Y-47234478D01*
G75*
G02*
X31856156Y-47234478I53033J-53033D01*
G01*
X31962222Y-47340544D01*
G75*
G02*
X31962222Y-47446610I-53033J-53033D01*
G01*
X30972272Y-48436560D01*
G75*
G02*
X30866206Y-48436560I-53033J53033D01*
G01*
X30760140Y-48330494D01*
G75*
G02*
X30760140Y-48224428I53033J53033D01*
G01*
G37*
G36*
G01*
X25742658Y-61307111D02*
X26105050Y-60944718D01*
G75*
G02*
X26414410Y-60944718I154680J-154680D01*
G01*
X26723769Y-61254077D01*
G75*
G02*
X26723769Y-61563437I-154680J-154680D01*
G01*
X26361376Y-61925830D01*
G75*
G02*
X26052016Y-61925830I-154680J154680D01*
G01*
X25742657Y-61616471D01*
G75*
G02*
X25742657Y-61307111I154680J154680D01*
G01*
G37*
G36*
G01*
X26856352Y-62420805D02*
X27218744Y-62058412D01*
G75*
G02*
X27528104Y-62058412I154680J-154680D01*
G01*
X27837463Y-62367771D01*
G75*
G02*
X27837463Y-62677131I-154680J-154680D01*
G01*
X27475070Y-63039524D01*
G75*
G02*
X27165710Y-63039524I-154680J154680D01*
G01*
X26856351Y-62730165D01*
G75*
G02*
X26856351Y-62420805I154680J154680D01*
G01*
G37*
G36*
G01*
X38850000Y-72756250D02*
X38850000Y-72243750D01*
G75*
G02*
X39068750Y-72025000I218750J0D01*
G01*
X39506250Y-72025000D01*
G75*
G02*
X39725000Y-72243750I0J-218750D01*
G01*
X39725000Y-72756250D01*
G75*
G02*
X39506250Y-72975000I-218750J0D01*
G01*
X39068750Y-72975000D01*
G75*
G02*
X38850000Y-72756250I0J218750D01*
G01*
G37*
G36*
G01*
X37275000Y-72756250D02*
X37275000Y-72243750D01*
G75*
G02*
X37493750Y-72025000I218750J0D01*
G01*
X37931250Y-72025000D01*
G75*
G02*
X38150000Y-72243750I0J-218750D01*
G01*
X38150000Y-72756250D01*
G75*
G02*
X37931250Y-72975000I-218750J0D01*
G01*
X37493750Y-72975000D01*
G75*
G02*
X37275000Y-72756250I0J218750D01*
G01*
G37*
G36*
G01*
X42243750Y-68275000D02*
X42756250Y-68275000D01*
G75*
G02*
X42975000Y-68493750I0J-218750D01*
G01*
X42975000Y-68931250D01*
G75*
G02*
X42756250Y-69150000I-218750J0D01*
G01*
X42243750Y-69150000D01*
G75*
G02*
X42025000Y-68931250I0J218750D01*
G01*
X42025000Y-68493750D01*
G75*
G02*
X42243750Y-68275000I218750J0D01*
G01*
G37*
G36*
G01*
X42243750Y-69850000D02*
X42756250Y-69850000D01*
G75*
G02*
X42975000Y-70068750I0J-218750D01*
G01*
X42975000Y-70506250D01*
G75*
G02*
X42756250Y-70725000I-218750J0D01*
G01*
X42243750Y-70725000D01*
G75*
G02*
X42025000Y-70506250I0J218750D01*
G01*
X42025000Y-70068750D01*
G75*
G02*
X42243750Y-69850000I218750J0D01*
G01*
G37*
G36*
G01*
X19743750Y-37775000D02*
X20256250Y-37775000D01*
G75*
G02*
X20475000Y-37993750I0J-218750D01*
G01*
X20475000Y-38431250D01*
G75*
G02*
X20256250Y-38650000I-218750J0D01*
G01*
X19743750Y-38650000D01*
G75*
G02*
X19525000Y-38431250I0J218750D01*
G01*
X19525000Y-37993750D01*
G75*
G02*
X19743750Y-37775000I218750J0D01*
G01*
G37*
G36*
G01*
X19743750Y-39350000D02*
X20256250Y-39350000D01*
G75*
G02*
X20475000Y-39568750I0J-218750D01*
G01*
X20475000Y-40006250D01*
G75*
G02*
X20256250Y-40225000I-218750J0D01*
G01*
X19743750Y-40225000D01*
G75*
G02*
X19525000Y-40006250I0J218750D01*
G01*
X19525000Y-39568750D01*
G75*
G02*
X19743750Y-39350000I218750J0D01*
G01*
G37*
G36*
G01*
X17725000Y-43243750D02*
X17725000Y-43756250D01*
G75*
G02*
X17506250Y-43975000I-218750J0D01*
G01*
X17068750Y-43975000D01*
G75*
G02*
X16850000Y-43756250I0J218750D01*
G01*
X16850000Y-43243750D01*
G75*
G02*
X17068750Y-43025000I218750J0D01*
G01*
X17506250Y-43025000D01*
G75*
G02*
X17725000Y-43243750I0J-218750D01*
G01*
G37*
G36*
G01*
X16150000Y-43243750D02*
X16150000Y-43756250D01*
G75*
G02*
X15931250Y-43975000I-218750J0D01*
G01*
X15493750Y-43975000D01*
G75*
G02*
X15275000Y-43756250I0J218750D01*
G01*
X15275000Y-43243750D01*
G75*
G02*
X15493750Y-43025000I218750J0D01*
G01*
X15931250Y-43025000D01*
G75*
G02*
X16150000Y-43243750I0J-218750D01*
G01*
G37*
G36*
G01*
X30350000Y-43756250D02*
X30350000Y-43243750D01*
G75*
G02*
X30568750Y-43025000I218750J0D01*
G01*
X31006250Y-43025000D01*
G75*
G02*
X31225000Y-43243750I0J-218750D01*
G01*
X31225000Y-43756250D01*
G75*
G02*
X31006250Y-43975000I-218750J0D01*
G01*
X30568750Y-43975000D01*
G75*
G02*
X30350000Y-43756250I0J218750D01*
G01*
G37*
G36*
G01*
X28775000Y-43756250D02*
X28775000Y-43243750D01*
G75*
G02*
X28993750Y-43025000I218750J0D01*
G01*
X29431250Y-43025000D01*
G75*
G02*
X29650000Y-43243750I0J-218750D01*
G01*
X29650000Y-43756250D01*
G75*
G02*
X29431250Y-43975000I-218750J0D01*
G01*
X28993750Y-43975000D01*
G75*
G02*
X28775000Y-43756250I0J218750D01*
G01*
G37*
G36*
G01*
X44275000Y-70256250D02*
X44275000Y-69743750D01*
G75*
G02*
X44493750Y-69525000I218750J0D01*
G01*
X44931250Y-69525000D01*
G75*
G02*
X45150000Y-69743750I0J-218750D01*
G01*
X45150000Y-70256250D01*
G75*
G02*
X44931250Y-70475000I-218750J0D01*
G01*
X44493750Y-70475000D01*
G75*
G02*
X44275000Y-70256250I0J218750D01*
G01*
G37*
G36*
G01*
X45850000Y-70256250D02*
X45850000Y-69743750D01*
G75*
G02*
X46068750Y-69525000I218750J0D01*
G01*
X46506250Y-69525000D01*
G75*
G02*
X46725000Y-69743750I0J-218750D01*
G01*
X46725000Y-70256250D01*
G75*
G02*
X46506250Y-70475000I-218750J0D01*
G01*
X46068750Y-70475000D01*
G75*
G02*
X45850000Y-70256250I0J218750D01*
G01*
G37*
G36*
G01*
X34475000Y-66743750D02*
X34475000Y-67256250D01*
G75*
G02*
X34256250Y-67475000I-218750J0D01*
G01*
X33818750Y-67475000D01*
G75*
G02*
X33600000Y-67256250I0J218750D01*
G01*
X33600000Y-66743750D01*
G75*
G02*
X33818750Y-66525000I218750J0D01*
G01*
X34256250Y-66525000D01*
G75*
G02*
X34475000Y-66743750I0J-218750D01*
G01*
G37*
G36*
G01*
X32900000Y-66743750D02*
X32900000Y-67256250D01*
G75*
G02*
X32681250Y-67475000I-218750J0D01*
G01*
X32243750Y-67475000D01*
G75*
G02*
X32025000Y-67256250I0J218750D01*
G01*
X32025000Y-66743750D01*
G75*
G02*
X32243750Y-66525000I218750J0D01*
G01*
X32681250Y-66525000D01*
G75*
G02*
X32900000Y-66743750I0J-218750D01*
G01*
G37*
D14*
X31300000Y-69575000D03*
X30650000Y-69575000D03*
X30000000Y-69575000D03*
X29350000Y-69575000D03*
X28700000Y-69575000D03*
D13*
X26700000Y-69900000D03*
X33300000Y-69900000D03*
D12*
X25900000Y-72250000D03*
X34100000Y-72250000D03*
D11*
X29150000Y-72250000D03*
X30850000Y-72250000D03*
G36*
G01*
X33441282Y-47067748D02*
X33078890Y-47430141D01*
G75*
G02*
X32769530Y-47430141I-154680J154680D01*
G01*
X32460171Y-47120782D01*
G75*
G02*
X32460171Y-46811422I154680J154680D01*
G01*
X32822564Y-46449029D01*
G75*
G02*
X33131924Y-46449029I154680J-154680D01*
G01*
X33441283Y-46758388D01*
G75*
G02*
X33441283Y-47067748I-154680J-154680D01*
G01*
G37*
G36*
G01*
X34554976Y-48181442D02*
X34192584Y-48543835D01*
G75*
G02*
X33883224Y-48543835I-154680J154680D01*
G01*
X33573865Y-48234476D01*
G75*
G02*
X33573865Y-47925116I154680J154680D01*
G01*
X33936258Y-47562723D01*
G75*
G02*
X34245618Y-47562723I154680J-154680D01*
G01*
X34554977Y-47872082D01*
G75*
G02*
X34554977Y-48181442I-154680J-154680D01*
G01*
G37*
G36*
G01*
X25654269Y-47916278D02*
X26016662Y-48278670D01*
G75*
G02*
X26016662Y-48588030I-154680J-154680D01*
G01*
X25707303Y-48897389D01*
G75*
G02*
X25397943Y-48897389I-154680J154680D01*
G01*
X25035550Y-48534996D01*
G75*
G02*
X25035550Y-48225636I154680J154680D01*
G01*
X25344909Y-47916277D01*
G75*
G02*
X25654269Y-47916277I154680J-154680D01*
G01*
G37*
G36*
G01*
X26767963Y-46802584D02*
X27130356Y-47164976D01*
G75*
G02*
X27130356Y-47474336I-154680J-154680D01*
G01*
X26820997Y-47783695D01*
G75*
G02*
X26511637Y-47783695I-154680J154680D01*
G01*
X26149244Y-47421302D01*
G75*
G02*
X26149244Y-47111942I154680J154680D01*
G01*
X26458603Y-46802583D01*
G75*
G02*
X26767963Y-46802583I154680J-154680D01*
G01*
G37*
G36*
G01*
X35704025Y-59804509D02*
X35341632Y-59442117D01*
G75*
G02*
X35341632Y-59132757I154680J154680D01*
G01*
X35650991Y-58823398D01*
G75*
G02*
X35960351Y-58823398I154680J-154680D01*
G01*
X36322744Y-59185791D01*
G75*
G02*
X36322744Y-59495151I-154680J-154680D01*
G01*
X36013385Y-59804510D01*
G75*
G02*
X35704025Y-59804510I-154680J154680D01*
G01*
G37*
G36*
G01*
X34590331Y-60918203D02*
X34227938Y-60555811D01*
G75*
G02*
X34227938Y-60246451I154680J154680D01*
G01*
X34537297Y-59937092D01*
G75*
G02*
X34846657Y-59937092I154680J-154680D01*
G01*
X35209050Y-60299485D01*
G75*
G02*
X35209050Y-60608845I-154680J-154680D01*
G01*
X34899691Y-60918204D01*
G75*
G02*
X34590331Y-60918204I-154680J154680D01*
G01*
G37*
G36*
G01*
X40756250Y-40150000D02*
X40243750Y-40150000D01*
G75*
G02*
X40025000Y-39931250I0J218750D01*
G01*
X40025000Y-39493750D01*
G75*
G02*
X40243750Y-39275000I218750J0D01*
G01*
X40756250Y-39275000D01*
G75*
G02*
X40975000Y-39493750I0J-218750D01*
G01*
X40975000Y-39931250D01*
G75*
G02*
X40756250Y-40150000I-218750J0D01*
G01*
G37*
G36*
G01*
X40756250Y-41725000D02*
X40243750Y-41725000D01*
G75*
G02*
X40025000Y-41506250I0J218750D01*
G01*
X40025000Y-41068750D01*
G75*
G02*
X40243750Y-40850000I218750J0D01*
G01*
X40756250Y-40850000D01*
G75*
G02*
X40975000Y-41068750I0J-218750D01*
G01*
X40975000Y-41506250D01*
G75*
G02*
X40756250Y-41725000I-218750J0D01*
G01*
G37*
G36*
G01*
X40756250Y-44150000D02*
X40243750Y-44150000D01*
G75*
G02*
X40025000Y-43931250I0J218750D01*
G01*
X40025000Y-43493750D01*
G75*
G02*
X40243750Y-43275000I218750J0D01*
G01*
X40756250Y-43275000D01*
G75*
G02*
X40975000Y-43493750I0J-218750D01*
G01*
X40975000Y-43931250D01*
G75*
G02*
X40756250Y-44150000I-218750J0D01*
G01*
G37*
G36*
G01*
X40756250Y-45725000D02*
X40243750Y-45725000D01*
G75*
G02*
X40025000Y-45506250I0J218750D01*
G01*
X40025000Y-45068750D01*
G75*
G02*
X40243750Y-44850000I218750J0D01*
G01*
X40756250Y-44850000D01*
G75*
G02*
X40975000Y-45068750I0J-218750D01*
G01*
X40975000Y-45506250D01*
G75*
G02*
X40756250Y-45725000I-218750J0D01*
G01*
G37*
G36*
G01*
X20756250Y-47150000D02*
X20243750Y-47150000D01*
G75*
G02*
X20025000Y-46931250I0J218750D01*
G01*
X20025000Y-46493750D01*
G75*
G02*
X20243750Y-46275000I218750J0D01*
G01*
X20756250Y-46275000D01*
G75*
G02*
X20975000Y-46493750I0J-218750D01*
G01*
X20975000Y-46931250D01*
G75*
G02*
X20756250Y-47150000I-218750J0D01*
G01*
G37*
G36*
G01*
X20756250Y-48725000D02*
X20243750Y-48725000D01*
G75*
G02*
X20025000Y-48506250I0J218750D01*
G01*
X20025000Y-48068750D01*
G75*
G02*
X20243750Y-47850000I218750J0D01*
G01*
X20756250Y-47850000D01*
G75*
G02*
X20975000Y-48068750I0J-218750D01*
G01*
X20975000Y-48506250D01*
G75*
G02*
X20756250Y-48725000I-218750J0D01*
G01*
G37*
G36*
G01*
X14243750Y-33850000D02*
X14756250Y-33850000D01*
G75*
G02*
X14975000Y-34068750I0J-218750D01*
G01*
X14975000Y-34506250D01*
G75*
G02*
X14756250Y-34725000I-218750J0D01*
G01*
X14243750Y-34725000D01*
G75*
G02*
X14025000Y-34506250I0J218750D01*
G01*
X14025000Y-34068750D01*
G75*
G02*
X14243750Y-33850000I218750J0D01*
G01*
G37*
G36*
G01*
X14243750Y-32275000D02*
X14756250Y-32275000D01*
G75*
G02*
X14975000Y-32493750I0J-218750D01*
G01*
X14975000Y-32931250D01*
G75*
G02*
X14756250Y-33150000I-218750J0D01*
G01*
X14243750Y-33150000D01*
G75*
G02*
X14025000Y-32931250I0J218750D01*
G01*
X14025000Y-32493750D01*
G75*
G02*
X14243750Y-32275000I218750J0D01*
G01*
G37*
G36*
G01*
X31225000Y-41743750D02*
X31225000Y-42256250D01*
G75*
G02*
X31006250Y-42475000I-218750J0D01*
G01*
X30568750Y-42475000D01*
G75*
G02*
X30350000Y-42256250I0J218750D01*
G01*
X30350000Y-41743750D01*
G75*
G02*
X30568750Y-41525000I218750J0D01*
G01*
X31006250Y-41525000D01*
G75*
G02*
X31225000Y-41743750I0J-218750D01*
G01*
G37*
G36*
G01*
X29650000Y-41743750D02*
X29650000Y-42256250D01*
G75*
G02*
X29431250Y-42475000I-218750J0D01*
G01*
X28993750Y-42475000D01*
G75*
G02*
X28775000Y-42256250I0J218750D01*
G01*
X28775000Y-41743750D01*
G75*
G02*
X28993750Y-41525000I218750J0D01*
G01*
X29431250Y-41525000D01*
G75*
G02*
X29650000Y-41743750I0J-218750D01*
G01*
G37*
G36*
G01*
X45150000Y-67743750D02*
X45150000Y-68256250D01*
G75*
G02*
X44931250Y-68475000I-218750J0D01*
G01*
X44493750Y-68475000D01*
G75*
G02*
X44275000Y-68256250I0J218750D01*
G01*
X44275000Y-67743750D01*
G75*
G02*
X44493750Y-67525000I218750J0D01*
G01*
X44931250Y-67525000D01*
G75*
G02*
X45150000Y-67743750I0J-218750D01*
G01*
G37*
G36*
G01*
X46725000Y-67743750D02*
X46725000Y-68256250D01*
G75*
G02*
X46506250Y-68475000I-218750J0D01*
G01*
X46068750Y-68475000D01*
G75*
G02*
X45850000Y-68256250I0J218750D01*
G01*
X45850000Y-67743750D01*
G75*
G02*
X46068750Y-67525000I218750J0D01*
G01*
X46506250Y-67525000D01*
G75*
G02*
X46725000Y-67743750I0J-218750D01*
G01*
G37*
G36*
G01*
X36743750Y-30275000D02*
X37256250Y-30275000D01*
G75*
G02*
X37475000Y-30493750I0J-218750D01*
G01*
X37475000Y-30931250D01*
G75*
G02*
X37256250Y-31150000I-218750J0D01*
G01*
X36743750Y-31150000D01*
G75*
G02*
X36525000Y-30931250I0J218750D01*
G01*
X36525000Y-30493750D01*
G75*
G02*
X36743750Y-30275000I218750J0D01*
G01*
G37*
G36*
G01*
X36743750Y-31850000D02*
X37256250Y-31850000D01*
G75*
G02*
X37475000Y-32068750I0J-218750D01*
G01*
X37475000Y-32506250D01*
G75*
G02*
X37256250Y-32725000I-218750J0D01*
G01*
X36743750Y-32725000D01*
G75*
G02*
X36525000Y-32506250I0J218750D01*
G01*
X36525000Y-32068750D01*
G75*
G02*
X36743750Y-31850000I218750J0D01*
G01*
G37*
D17*
X40925000Y-51425000D03*
X45075000Y-51425000D03*
X40925000Y-53575000D03*
X45075000Y-53575000D03*
D16*
X46312000Y-63405000D03*
X46312000Y-62135000D03*
X46312000Y-60865000D03*
X46312000Y-59595000D03*
X38688000Y-59595000D03*
X38688000Y-60865000D03*
X38688000Y-62135000D03*
X38688000Y-63405000D03*
G36*
G01*
X14745000Y-42450000D02*
X14445000Y-42450000D01*
G75*
G02*
X14295000Y-42300000I0J150000D01*
G01*
X14295000Y-40650000D01*
G75*
G02*
X14445000Y-40500000I150000J0D01*
G01*
X14745000Y-40500000D01*
G75*
G02*
X14895000Y-40650000I0J-150000D01*
G01*
X14895000Y-42300000D01*
G75*
G02*
X14745000Y-42450000I-150000J0D01*
G01*
G37*
G36*
G01*
X16015000Y-42450000D02*
X15715000Y-42450000D01*
G75*
G02*
X15565000Y-42300000I0J150000D01*
G01*
X15565000Y-40650000D01*
G75*
G02*
X15715000Y-40500000I150000J0D01*
G01*
X16015000Y-40500000D01*
G75*
G02*
X16165000Y-40650000I0J-150000D01*
G01*
X16165000Y-42300000D01*
G75*
G02*
X16015000Y-42450000I-150000J0D01*
G01*
G37*
G36*
G01*
X17285000Y-42450000D02*
X16985000Y-42450000D01*
G75*
G02*
X16835000Y-42300000I0J150000D01*
G01*
X16835000Y-40650000D01*
G75*
G02*
X16985000Y-40500000I150000J0D01*
G01*
X17285000Y-40500000D01*
G75*
G02*
X17435000Y-40650000I0J-150000D01*
G01*
X17435000Y-42300000D01*
G75*
G02*
X17285000Y-42450000I-150000J0D01*
G01*
G37*
G36*
G01*
X18555000Y-42450000D02*
X18255000Y-42450000D01*
G75*
G02*
X18105000Y-42300000I0J150000D01*
G01*
X18105000Y-40650000D01*
G75*
G02*
X18255000Y-40500000I150000J0D01*
G01*
X18555000Y-40500000D01*
G75*
G02*
X18705000Y-40650000I0J-150000D01*
G01*
X18705000Y-42300000D01*
G75*
G02*
X18555000Y-42450000I-150000J0D01*
G01*
G37*
G36*
G01*
X18555000Y-37500000D02*
X18255000Y-37500000D01*
G75*
G02*
X18105000Y-37350000I0J150000D01*
G01*
X18105000Y-35700000D01*
G75*
G02*
X18255000Y-35550000I150000J0D01*
G01*
X18555000Y-35550000D01*
G75*
G02*
X18705000Y-35700000I0J-150000D01*
G01*
X18705000Y-37350000D01*
G75*
G02*
X18555000Y-37500000I-150000J0D01*
G01*
G37*
G36*
G01*
X17285000Y-37500000D02*
X16985000Y-37500000D01*
G75*
G02*
X16835000Y-37350000I0J150000D01*
G01*
X16835000Y-35700000D01*
G75*
G02*
X16985000Y-35550000I150000J0D01*
G01*
X17285000Y-35550000D01*
G75*
G02*
X17435000Y-35700000I0J-150000D01*
G01*
X17435000Y-37350000D01*
G75*
G02*
X17285000Y-37500000I-150000J0D01*
G01*
G37*
G36*
G01*
X16015000Y-37500000D02*
X15715000Y-37500000D01*
G75*
G02*
X15565000Y-37350000I0J150000D01*
G01*
X15565000Y-35700000D01*
G75*
G02*
X15715000Y-35550000I150000J0D01*
G01*
X16015000Y-35550000D01*
G75*
G02*
X16165000Y-35700000I0J-150000D01*
G01*
X16165000Y-37350000D01*
G75*
G02*
X16015000Y-37500000I-150000J0D01*
G01*
G37*
G36*
G01*
X14745000Y-37500000D02*
X14445000Y-37500000D01*
G75*
G02*
X14295000Y-37350000I0J150000D01*
G01*
X14295000Y-35700000D01*
G75*
G02*
X14445000Y-35550000I150000J0D01*
G01*
X14745000Y-35550000D01*
G75*
G02*
X14895000Y-35700000I0J-150000D01*
G01*
X14895000Y-37350000D01*
G75*
G02*
X14745000Y-37500000I-150000J0D01*
G01*
G37*
G36*
G01*
X23756250Y-70150000D02*
X23243750Y-70150000D01*
G75*
G02*
X23025000Y-69931250I0J218750D01*
G01*
X23025000Y-69493750D01*
G75*
G02*
X23243750Y-69275000I218750J0D01*
G01*
X23756250Y-69275000D01*
G75*
G02*
X23975000Y-69493750I0J-218750D01*
G01*
X23975000Y-69931250D01*
G75*
G02*
X23756250Y-70150000I-218750J0D01*
G01*
G37*
G36*
G01*
X23756250Y-71725000D02*
X23243750Y-71725000D01*
G75*
G02*
X23025000Y-71506250I0J218750D01*
G01*
X23025000Y-71068750D01*
G75*
G02*
X23243750Y-70850000I218750J0D01*
G01*
X23756250Y-70850000D01*
G75*
G02*
X23975000Y-71068750I0J-218750D01*
G01*
X23975000Y-71506250D01*
G75*
G02*
X23756250Y-71725000I-218750J0D01*
G01*
G37*
G36*
G01*
X27975000Y-66743750D02*
X27975000Y-67256250D01*
G75*
G02*
X27756250Y-67475000I-218750J0D01*
G01*
X27318750Y-67475000D01*
G75*
G02*
X27100000Y-67256250I0J218750D01*
G01*
X27100000Y-66743750D01*
G75*
G02*
X27318750Y-66525000I218750J0D01*
G01*
X27756250Y-66525000D01*
G75*
G02*
X27975000Y-66743750I0J-218750D01*
G01*
G37*
G36*
G01*
X26400000Y-66743750D02*
X26400000Y-67256250D01*
G75*
G02*
X26181250Y-67475000I-218750J0D01*
G01*
X25743750Y-67475000D01*
G75*
G02*
X25525000Y-67256250I0J218750D01*
G01*
X25525000Y-66743750D01*
G75*
G02*
X25743750Y-66525000I218750J0D01*
G01*
X26181250Y-66525000D01*
G75*
G02*
X26400000Y-66743750I0J-218750D01*
G01*
G37*
D15*
X40150000Y-70450000D03*
X40150000Y-68550000D03*
X37850000Y-69500000D03*
G36*
G01*
X23683210Y-50612121D02*
X23320817Y-50249729D01*
G75*
G02*
X23320817Y-49940369I154680J154680D01*
G01*
X23630176Y-49631010D01*
G75*
G02*
X23939536Y-49631010I154680J-154680D01*
G01*
X24301929Y-49993403D01*
G75*
G02*
X24301929Y-50302763I-154680J-154680D01*
G01*
X23992570Y-50612122D01*
G75*
G02*
X23683210Y-50612122I-154680J154680D01*
G01*
G37*
G36*
G01*
X22569516Y-51725815D02*
X22207123Y-51363423D01*
G75*
G02*
X22207123Y-51054063I154680J154680D01*
G01*
X22516482Y-50744704D01*
G75*
G02*
X22825842Y-50744704I154680J-154680D01*
G01*
X23188235Y-51107097D01*
G75*
G02*
X23188235Y-51416457I-154680J-154680D01*
G01*
X22878876Y-51725816D01*
G75*
G02*
X22569516Y-51725816I-154680J154680D01*
G01*
G37*
G36*
G01*
X29596390Y-62452598D02*
X29958783Y-62814990D01*
G75*
G02*
X29958783Y-63124350I-154680J-154680D01*
G01*
X29649424Y-63433709D01*
G75*
G02*
X29340064Y-63433709I-154680J154680D01*
G01*
X28977671Y-63071316D01*
G75*
G02*
X28977671Y-62761956I154680J154680D01*
G01*
X29287030Y-62452597D01*
G75*
G02*
X29596390Y-62452597I154680J-154680D01*
G01*
G37*
G36*
G01*
X28482696Y-63566292D02*
X28845089Y-63928684D01*
G75*
G02*
X28845089Y-64238044I-154680J-154680D01*
G01*
X28535730Y-64547403D01*
G75*
G02*
X28226370Y-64547403I-154680J154680D01*
G01*
X27863977Y-64185010D01*
G75*
G02*
X27863977Y-63875650I154680J154680D01*
G01*
X28173336Y-63566291D01*
G75*
G02*
X28482696Y-63566291I154680J-154680D01*
G01*
G37*
G36*
G01*
X31814938Y-46015927D02*
X31452545Y-45653535D01*
G75*
G02*
X31452545Y-45344175I154680J154680D01*
G01*
X31761904Y-45034816D01*
G75*
G02*
X32071264Y-45034816I154680J-154680D01*
G01*
X32433657Y-45397209D01*
G75*
G02*
X32433657Y-45706569I-154680J-154680D01*
G01*
X32124298Y-46015928D01*
G75*
G02*
X31814938Y-46015928I-154680J154680D01*
G01*
G37*
G36*
G01*
X30701244Y-47129621D02*
X30338851Y-46767229D01*
G75*
G02*
X30338851Y-46457869I154680J154680D01*
G01*
X30648210Y-46148510D01*
G75*
G02*
X30957570Y-46148510I154680J-154680D01*
G01*
X31319963Y-46510903D01*
G75*
G02*
X31319963Y-46820263I-154680J-154680D01*
G01*
X31010604Y-47129622D01*
G75*
G02*
X30701244Y-47129622I-154680J154680D01*
G01*
G37*
G36*
G01*
X37952598Y-55314990D02*
X38314990Y-54952597D01*
G75*
G02*
X38624350Y-54952597I154680J-154680D01*
G01*
X38933709Y-55261956D01*
G75*
G02*
X38933709Y-55571316I-154680J-154680D01*
G01*
X38571316Y-55933709D01*
G75*
G02*
X38261956Y-55933709I-154680J154680D01*
G01*
X37952597Y-55624350D01*
G75*
G02*
X37952597Y-55314990I154680J154680D01*
G01*
G37*
G36*
G01*
X39066292Y-56428684D02*
X39428684Y-56066291D01*
G75*
G02*
X39738044Y-56066291I154680J-154680D01*
G01*
X40047403Y-56375650D01*
G75*
G02*
X40047403Y-56685010I-154680J-154680D01*
G01*
X39685010Y-57047403D01*
G75*
G02*
X39375650Y-57047403I-154680J154680D01*
G01*
X39066291Y-56738044D01*
G75*
G02*
X39066291Y-56428684I154680J154680D01*
G01*
G37*
M02*
