G04 #@! TF.GenerationSoftware,KiCad,Pcbnew,(5.1.6)-1*
G04 #@! TF.CreationDate,2020-09-04T00:39:58+09:00*
G04 #@! TF.ProjectId,forMnu,666f724d-6e75-42e6-9b69-6361645f7063,rev?*
G04 #@! TF.SameCoordinates,Original*
G04 #@! TF.FileFunction,Soldermask,Bot*
G04 #@! TF.FilePolarity,Negative*
%FSLAX46Y46*%
G04 Gerber Fmt 4.6, Leading zero omitted, Abs format (unit mm)*
G04 Created by KiCad (PCBNEW (5.1.6)-1) date 2020-09-04 00:39:58*
%MOMM*%
%LPD*%
G01*
G04 APERTURE LIST*
%ADD10C,0.700000*%
%ADD11O,1.800000X1.800000*%
%ADD12R,1.800000X1.800000*%
%ADD13O,1.850000X1.300000*%
%ADD14C,1.120000*%
%ADD15C,2.100000*%
%ADD16O,1.300000X1.850000*%
G04 APERTURE END LIST*
D10*
X82500000Y-73750000D03*
X57500000Y-73750000D03*
X42500000Y-73750000D03*
X17500000Y-73750000D03*
X17500000Y-26250000D03*
X42500000Y-26250000D03*
X57500000Y-26250000D03*
X82500000Y-26250000D03*
D11*
X73800000Y-38460000D03*
X71260000Y-38460000D03*
X68720000Y-38460000D03*
D12*
X66180000Y-38460000D03*
D13*
X85000000Y-44500000D03*
X85000000Y-42500000D03*
G36*
G01*
X84345832Y-39850000D02*
X85654168Y-39850000D01*
G75*
G02*
X85925000Y-40120832I0J-270832D01*
G01*
X85925000Y-40879168D01*
G75*
G02*
X85654168Y-41150000I-270832J0D01*
G01*
X84345832Y-41150000D01*
G75*
G02*
X84075000Y-40879168I0J270832D01*
G01*
X84075000Y-40120832D01*
G75*
G02*
X84345832Y-39850000I270832J0D01*
G01*
G37*
D14*
X56500000Y-55575000D03*
X56500000Y-61925000D03*
D15*
X66000000Y-28000000D03*
X85000000Y-29500000D03*
D11*
X54960000Y-46500000D03*
D12*
X57500000Y-46500000D03*
D11*
X80000000Y-28460000D03*
D12*
X80000000Y-31000000D03*
X60000000Y-31000000D03*
D11*
X60000000Y-28460000D03*
D15*
X74000000Y-28000000D03*
D16*
X73000000Y-32500000D03*
X71000000Y-32500000D03*
X69000000Y-32500000D03*
G36*
G01*
X66350000Y-33154168D02*
X66350000Y-31845832D01*
G75*
G02*
X66620832Y-31575000I270832J0D01*
G01*
X67379168Y-31575000D01*
G75*
G02*
X67650000Y-31845832I0J-270832D01*
G01*
X67650000Y-33154168D01*
G75*
G02*
X67379168Y-33425000I-270832J0D01*
G01*
X66620832Y-33425000D01*
G75*
G02*
X66350000Y-33154168I0J270832D01*
G01*
G37*
D15*
X70000000Y-28000000D03*
D14*
X16500000Y-61925000D03*
X16500000Y-55575000D03*
G36*
G01*
X44345832Y-39850000D02*
X45654168Y-39850000D01*
G75*
G02*
X45925000Y-40120832I0J-270832D01*
G01*
X45925000Y-40879168D01*
G75*
G02*
X45654168Y-41150000I-270832J0D01*
G01*
X44345832Y-41150000D01*
G75*
G02*
X44075000Y-40879168I0J270832D01*
G01*
X44075000Y-40120832D01*
G75*
G02*
X44345832Y-39850000I270832J0D01*
G01*
G37*
D13*
X45000000Y-42500000D03*
X45000000Y-44500000D03*
D12*
X26180000Y-38460000D03*
D11*
X28720000Y-38460000D03*
X31260000Y-38460000D03*
X33800000Y-38460000D03*
G36*
G01*
X26350000Y-33154168D02*
X26350000Y-31845832D01*
G75*
G02*
X26620832Y-31575000I270832J0D01*
G01*
X27379168Y-31575000D01*
G75*
G02*
X27650000Y-31845832I0J-270832D01*
G01*
X27650000Y-33154168D01*
G75*
G02*
X27379168Y-33425000I-270832J0D01*
G01*
X26620832Y-33425000D01*
G75*
G02*
X26350000Y-33154168I0J270832D01*
G01*
G37*
D16*
X29000000Y-32500000D03*
X31000000Y-32500000D03*
X33000000Y-32500000D03*
D12*
X17500000Y-46500000D03*
D11*
X14960000Y-46500000D03*
D12*
X40000000Y-31000000D03*
D11*
X40000000Y-28460000D03*
X20000000Y-28460000D03*
D12*
X20000000Y-31000000D03*
D15*
X30000000Y-28000000D03*
X34000000Y-28000000D03*
X26000000Y-28000000D03*
X45000000Y-29500000D03*
M02*
