M48
; DRILL file {KiCad (5.1.6)-1} date 09/04/20 00:40:13
; FORMAT={-:-/ absolute / metric / decimal}
; #@! TF.CreationDate,2020-09-04T00:40:13+09:00
; #@! TF.GenerationSoftware,Kicad,Pcbnew,(5.1.6)-1
FMAT,2
METRIC
T1C0.400
T2C0.750
T3C1.000
T4C0.600
T5C1.020
%
G90
G05
T1
X15.0Y-27.5
X15.0Y-30.0
X15.0Y-50.0
X15.0Y-52.5
X15.0Y-65.0
X15.0Y-70.0
X16.494Y-59.75
X16.5Y-54.25
X16.5Y-56.75
X16.5Y-57.8
X16.5Y-60.75
X17.3Y-44.7
X17.5Y-27.5
X17.5Y-30.0
X17.5Y-52.5
X17.5Y-67.5
X17.5Y-72.5
X20.0Y-36.0
X20.0Y-40.75
X20.0Y-65.0
X20.0Y-70.0
X20.25Y-55.0
X20.5Y-60.0
X21.2Y-44.0
X22.5Y-27.5
X22.5Y-42.5
X22.5Y-47.5
X22.5Y-62.5
X22.5Y-67.5
X22.5Y-72.5
X22.779Y-58.481
X23.5Y-68.75
X23.528Y-54.794
X23.75Y-59.5
X24.25Y-54.0
X24.505Y-55.005
X25.0Y-30.0
X25.0Y-35.0
X25.0Y-65.0
X25.033Y-49.267
X25.25Y-54.0
X26.0Y-68.0
X27.138Y-55.862
X27.5Y-42.5
X27.5Y-58.0
X28.5Y-59.11
X28.5Y-68.25
X29.0Y-52.0
X29.25Y-44.5
X29.5Y-59.75
X29.75Y-50.25
X30.0Y-57.0
X30.05Y-68.193
X30.75Y-67.25
X30.893Y-49.793
X31.6Y-50.5
X32.0Y-56.0
X32.1Y-30.8
X32.5Y-42.5
X33.0Y-44.5
X33.0Y-64.0
X33.5Y-52.0
X33.5Y-62.5
X33.522Y-60.905
X33.9Y-30.8
X34.3Y-61.749
X34.3Y-63.2
X34.45Y-55.05
X35.0Y-42.5
X35.0Y-64.3
X35.1Y-67.0
X35.5Y-44.5
X36.0Y-48.0
X36.25Y-54.547
X36.25Y-58.25
X37.0Y-46.0
X37.0Y-57.5
X37.5Y-27.5
X37.5Y-35.0
X37.5Y-40.0
X37.5Y-60.0
X37.5Y-65.0
X37.575Y-52.15
X38.62Y-51.12
X39.5Y-48.7
X40.0Y-52.25
X40.0Y-37.5
X40.25Y-57.25
X40.25Y-64.75
X40.25Y-67.25
X40.25Y-72.5
X42.5Y-30.0
X42.5Y-35.0
X42.5Y-47.5
X42.5Y-52.5
X42.5Y-72.5
X43.0Y-44.5
X44.9Y-62.1
X45.0Y-32.5
X45.0Y-37.5
X45.0Y-47.5
X45.0Y-50.0
X45.0Y-55.0
X45.0Y-57.5
X45.0Y-59.6
X45.0Y-63.3
X45.0Y-65.0
X45.0Y-72.5
X45.095Y-60.895
X46.0Y-51.5
X55.0Y-27.5
X55.0Y-30.0
X55.0Y-50.0
X55.0Y-52.5
X55.0Y-65.0
X55.0Y-70.0
X56.494Y-59.75
X56.5Y-54.25
X56.5Y-56.75
X56.5Y-57.8
X56.5Y-60.75
X57.3Y-44.7
X57.5Y-27.5
X57.5Y-30.0
X57.5Y-52.5
X57.5Y-67.5
X57.5Y-72.5
X60.0Y-36.0
X60.0Y-40.75
X60.0Y-65.0
X60.0Y-70.0
X60.25Y-55.0
X60.5Y-60.0
X61.2Y-44.0
X62.5Y-27.5
X62.5Y-42.5
X62.5Y-47.5
X62.5Y-62.5
X62.5Y-67.5
X62.5Y-72.5
X62.779Y-58.481
X63.5Y-68.75
X63.528Y-54.794
X63.75Y-59.5
X64.25Y-54.0
X64.505Y-55.005
X65.0Y-30.0
X65.0Y-35.0
X65.0Y-65.0
X65.033Y-49.267
X65.25Y-54.0
X66.0Y-68.0
X67.138Y-55.862
X67.5Y-42.5
X67.5Y-58.0
X68.5Y-59.11
X68.5Y-68.25
X69.0Y-52.0
X69.25Y-44.5
X69.5Y-59.75
X69.75Y-50.25
X70.0Y-57.0
X70.05Y-68.193
X70.75Y-67.25
X70.893Y-49.793
X71.6Y-50.5
X72.0Y-56.0
X72.1Y-30.8
X72.5Y-42.5
X73.0Y-44.5
X73.0Y-64.0
X73.5Y-52.0
X73.5Y-62.5
X73.522Y-60.905
X73.9Y-30.8
X74.3Y-61.749
X74.3Y-63.2
X74.45Y-55.05
X75.0Y-42.5
X75.0Y-64.3
X75.1Y-67.0
X75.5Y-44.5
X76.0Y-48.0
X76.25Y-54.547
X76.25Y-58.25
X77.0Y-46.0
X77.0Y-57.5
X77.5Y-27.5
X77.5Y-35.0
X77.5Y-40.0
X77.5Y-60.0
X77.5Y-65.0
X77.575Y-52.15
X78.62Y-51.12
X79.5Y-48.7
X80.0Y-52.25
X80.0Y-37.5
X80.25Y-57.25
X80.25Y-64.75
X80.25Y-67.25
X80.25Y-72.5
X82.5Y-30.0
X82.5Y-35.0
X82.5Y-47.5
X82.5Y-52.5
X82.5Y-72.5
X83.0Y-44.5
X84.9Y-62.1
X85.0Y-32.5
X85.0Y-37.5
X85.0Y-47.5
X85.0Y-50.0
X85.0Y-55.0
X85.0Y-57.5
X85.0Y-59.6
X85.0Y-63.3
X85.0Y-65.0
X85.0Y-72.5
X85.095Y-60.895
X86.0Y-51.5
T2
X27.0Y-32.5
X29.0Y-32.5
X31.0Y-32.5
X33.0Y-32.5
X67.0Y-32.5
X69.0Y-32.5
X71.0Y-32.5
X73.0Y-32.5
X85.0Y-40.5
X85.0Y-42.5
X85.0Y-44.5
X45.0Y-40.5
X45.0Y-42.5
X45.0Y-44.5
T3
X80.0Y-28.46
X80.0Y-31.0
X26.0Y-28.0
X14.96Y-46.5
X17.5Y-46.5
X40.0Y-28.46
X40.0Y-31.0
X30.0Y-28.0
X54.96Y-46.5
X57.5Y-46.5
X20.0Y-28.46
X20.0Y-31.0
X60.0Y-28.46
X60.0Y-31.0
X45.0Y-29.5
X26.18Y-38.46
X28.72Y-38.46
X31.26Y-38.46
X33.8Y-38.46
X74.0Y-28.0
X66.18Y-38.46
X68.72Y-38.46
X71.26Y-38.46
X73.8Y-38.46
X34.0Y-28.0
X85.0Y-29.5
X70.0Y-28.0
X66.0Y-28.0
T4
X42.5Y-26.25
X17.5Y-73.75
X57.5Y-26.25
X17.5Y-26.25
X82.5Y-26.25
X57.5Y-73.75
X42.5Y-73.75
X82.5Y-73.75
T5
X16.5Y-55.575
X16.5Y-61.925
X56.5Y-55.575
X56.5Y-61.925
T0
M30
