G04 #@! TF.GenerationSoftware,KiCad,Pcbnew,(5.1.6)-1*
G04 #@! TF.CreationDate,2020-09-04T00:39:58+09:00*
G04 #@! TF.ProjectId,forMnu,666f724d-6e75-42e6-9b69-6361645f7063,rev?*
G04 #@! TF.SameCoordinates,Original*
G04 #@! TF.FileFunction,Soldermask,Top*
G04 #@! TF.FilePolarity,Negative*
%FSLAX46Y46*%
G04 Gerber Fmt 4.6, Leading zero omitted, Abs format (unit mm)*
G04 Created by KiCad (PCBNEW (5.1.6)-1) date 2020-09-04 00:39:58*
%MOMM*%
%LPD*%
G01*
G04 APERTURE LIST*
%ADD10C,0.100000*%
%ADD11C,0.700000*%
%ADD12O,1.800000X1.800000*%
%ADD13R,1.800000X1.800000*%
%ADD14O,1.850000X1.300000*%
%ADD15C,1.120000*%
%ADD16R,2.890000X0.840000*%
%ADD17R,1.300000X2.000000*%
%ADD18R,1.700000X2.000000*%
%ADD19R,2.200000X2.100000*%
%ADD20R,0.500000X1.450000*%
%ADD21C,2.100000*%
%ADD22R,1.500000X0.700000*%
%ADD23O,1.300000X1.850000*%
%ADD24R,1.525000X0.850000*%
%ADD25R,1.150000X0.750000*%
G04 APERTURE END LIST*
D10*
G36*
X95000000Y-98000000D02*
G01*
X60000000Y-98000000D01*
X60000000Y-82000000D01*
X95000000Y-82000000D01*
X95000000Y-98000000D01*
G37*
X95000000Y-98000000D02*
X60000000Y-98000000D01*
X60000000Y-82000000D01*
X95000000Y-82000000D01*
X95000000Y-98000000D01*
D11*
X82500000Y-73750000D03*
X57500000Y-73750000D03*
X42500000Y-73750000D03*
X17500000Y-73750000D03*
X17500000Y-26250000D03*
X42500000Y-26250000D03*
X57500000Y-26250000D03*
X82500000Y-26250000D03*
G36*
G01*
X72950000Y-66718750D02*
X72950000Y-67281250D01*
G75*
G02*
X72706250Y-67525000I-243750J0D01*
G01*
X72218750Y-67525000D01*
G75*
G02*
X71975000Y-67281250I0J243750D01*
G01*
X71975000Y-66718750D01*
G75*
G02*
X72218750Y-66475000I243750J0D01*
G01*
X72706250Y-66475000D01*
G75*
G02*
X72950000Y-66718750I0J-243750D01*
G01*
G37*
G36*
G01*
X74525000Y-66718750D02*
X74525000Y-67281250D01*
G75*
G02*
X74281250Y-67525000I-243750J0D01*
G01*
X73793750Y-67525000D01*
G75*
G02*
X73550000Y-67281250I0J243750D01*
G01*
X73550000Y-66718750D01*
G75*
G02*
X73793750Y-66475000I243750J0D01*
G01*
X74281250Y-66475000D01*
G75*
G02*
X74525000Y-66718750I0J-243750D01*
G01*
G37*
G36*
G01*
X77225000Y-72781250D02*
X77225000Y-72218750D01*
G75*
G02*
X77468750Y-71975000I243750J0D01*
G01*
X77956250Y-71975000D01*
G75*
G02*
X78200000Y-72218750I0J-243750D01*
G01*
X78200000Y-72781250D01*
G75*
G02*
X77956250Y-73025000I-243750J0D01*
G01*
X77468750Y-73025000D01*
G75*
G02*
X77225000Y-72781250I0J243750D01*
G01*
G37*
G36*
G01*
X78800000Y-72781250D02*
X78800000Y-72218750D01*
G75*
G02*
X79043750Y-71975000I243750J0D01*
G01*
X79531250Y-71975000D01*
G75*
G02*
X79775000Y-72218750I0J-243750D01*
G01*
X79775000Y-72781250D01*
G75*
G02*
X79531250Y-73025000I-243750J0D01*
G01*
X79043750Y-73025000D01*
G75*
G02*
X78800000Y-72781250I0J243750D01*
G01*
G37*
G36*
G01*
X66803319Y-62403127D02*
X67201067Y-62005380D01*
G75*
G02*
X67545781Y-62005380I172357J-172357D01*
G01*
X67890495Y-62350094D01*
G75*
G02*
X67890495Y-62694808I-172357J-172357D01*
G01*
X67492747Y-63092556D01*
G75*
G02*
X67148033Y-63092556I-172357J172357D01*
G01*
X66803319Y-62747842D01*
G75*
G02*
X66803319Y-62403128I172357J172357D01*
G01*
G37*
G36*
G01*
X65689625Y-61289433D02*
X66087373Y-60891686D01*
G75*
G02*
X66432087Y-60891686I172357J-172357D01*
G01*
X66776801Y-61236400D01*
G75*
G02*
X66776801Y-61581114I-172357J-172357D01*
G01*
X66379053Y-61978862D01*
G75*
G02*
X66034339Y-61978862I-172357J172357D01*
G01*
X65689625Y-61634148D01*
G75*
G02*
X65689625Y-61289434I172357J172357D01*
G01*
G37*
D12*
X73800000Y-38460000D03*
X71260000Y-38460000D03*
X68720000Y-38460000D03*
D13*
X66180000Y-38460000D03*
G36*
G01*
X59718750Y-39300000D02*
X60281250Y-39300000D01*
G75*
G02*
X60525000Y-39543750I0J-243750D01*
G01*
X60525000Y-40031250D01*
G75*
G02*
X60281250Y-40275000I-243750J0D01*
G01*
X59718750Y-40275000D01*
G75*
G02*
X59475000Y-40031250I0J243750D01*
G01*
X59475000Y-39543750D01*
G75*
G02*
X59718750Y-39300000I243750J0D01*
G01*
G37*
G36*
G01*
X59718750Y-37725000D02*
X60281250Y-37725000D01*
G75*
G02*
X60525000Y-37968750I0J-243750D01*
G01*
X60525000Y-38456250D01*
G75*
G02*
X60281250Y-38700000I-243750J0D01*
G01*
X59718750Y-38700000D01*
G75*
G02*
X59475000Y-38456250I0J243750D01*
G01*
X59475000Y-37968750D01*
G75*
G02*
X59718750Y-37725000I243750J0D01*
G01*
G37*
D14*
X85000000Y-44500000D03*
X85000000Y-42500000D03*
G36*
G01*
X84345832Y-39850000D02*
X85654168Y-39850000D01*
G75*
G02*
X85925000Y-40120832I0J-270832D01*
G01*
X85925000Y-40879168D01*
G75*
G02*
X85654168Y-41150000I-270832J0D01*
G01*
X84345832Y-41150000D01*
G75*
G02*
X84075000Y-40879168I0J270832D01*
G01*
X84075000Y-40120832D01*
G75*
G02*
X84345832Y-39850000I270832J0D01*
G01*
G37*
G36*
G01*
X82218750Y-69800000D02*
X82781250Y-69800000D01*
G75*
G02*
X83025000Y-70043750I0J-243750D01*
G01*
X83025000Y-70531250D01*
G75*
G02*
X82781250Y-70775000I-243750J0D01*
G01*
X82218750Y-70775000D01*
G75*
G02*
X81975000Y-70531250I0J243750D01*
G01*
X81975000Y-70043750D01*
G75*
G02*
X82218750Y-69800000I243750J0D01*
G01*
G37*
G36*
G01*
X82218750Y-68225000D02*
X82781250Y-68225000D01*
G75*
G02*
X83025000Y-68468750I0J-243750D01*
G01*
X83025000Y-68956250D01*
G75*
G02*
X82781250Y-69200000I-243750J0D01*
G01*
X82218750Y-69200000D01*
G75*
G02*
X81975000Y-68956250I0J243750D01*
G01*
X81975000Y-68468750D01*
G75*
G02*
X82218750Y-68225000I243750J0D01*
G01*
G37*
G36*
G01*
X70707107Y-48206750D02*
X71732412Y-47181445D01*
G75*
G02*
X71873834Y-47181445I70711J-70711D01*
G01*
X72015255Y-47322866D01*
G75*
G02*
X72015255Y-47464288I-70711J-70711D01*
G01*
X70989950Y-48489593D01*
G75*
G02*
X70848528Y-48489593I-70711J70711D01*
G01*
X70707107Y-48348172D01*
G75*
G02*
X70707107Y-48206750I70711J70711D01*
G01*
G37*
G36*
G01*
X71060660Y-48560303D02*
X72085965Y-47534998D01*
G75*
G02*
X72227387Y-47534998I70711J-70711D01*
G01*
X72368808Y-47676419D01*
G75*
G02*
X72368808Y-47817841I-70711J-70711D01*
G01*
X71343503Y-48843146D01*
G75*
G02*
X71202081Y-48843146I-70711J70711D01*
G01*
X71060660Y-48701725D01*
G75*
G02*
X71060660Y-48560303I70711J70711D01*
G01*
G37*
G36*
G01*
X71414213Y-48913856D02*
X72439518Y-47888551D01*
G75*
G02*
X72580940Y-47888551I70711J-70711D01*
G01*
X72722361Y-48029972D01*
G75*
G02*
X72722361Y-48171394I-70711J-70711D01*
G01*
X71697056Y-49196699D01*
G75*
G02*
X71555634Y-49196699I-70711J70711D01*
G01*
X71414213Y-49055278D01*
G75*
G02*
X71414213Y-48913856I70711J70711D01*
G01*
G37*
G36*
G01*
X71767767Y-49267410D02*
X72793072Y-48242105D01*
G75*
G02*
X72934494Y-48242105I70711J-70711D01*
G01*
X73075915Y-48383526D01*
G75*
G02*
X73075915Y-48524948I-70711J-70711D01*
G01*
X72050610Y-49550253D01*
G75*
G02*
X71909188Y-49550253I-70711J70711D01*
G01*
X71767767Y-49408832D01*
G75*
G02*
X71767767Y-49267410I70711J70711D01*
G01*
G37*
G36*
G01*
X72121320Y-49620963D02*
X73146625Y-48595658D01*
G75*
G02*
X73288047Y-48595658I70711J-70711D01*
G01*
X73429468Y-48737079D01*
G75*
G02*
X73429468Y-48878501I-70711J-70711D01*
G01*
X72404163Y-49903806D01*
G75*
G02*
X72262741Y-49903806I-70711J70711D01*
G01*
X72121320Y-49762385D01*
G75*
G02*
X72121320Y-49620963I70711J70711D01*
G01*
G37*
G36*
G01*
X72474874Y-49974517D02*
X73500179Y-48949212D01*
G75*
G02*
X73641601Y-48949212I70711J-70711D01*
G01*
X73783022Y-49090633D01*
G75*
G02*
X73783022Y-49232055I-70711J-70711D01*
G01*
X72757717Y-50257360D01*
G75*
G02*
X72616295Y-50257360I-70711J70711D01*
G01*
X72474874Y-50115939D01*
G75*
G02*
X72474874Y-49974517I70711J70711D01*
G01*
G37*
G36*
G01*
X72828427Y-50328070D02*
X73853732Y-49302765D01*
G75*
G02*
X73995154Y-49302765I70711J-70711D01*
G01*
X74136575Y-49444186D01*
G75*
G02*
X74136575Y-49585608I-70711J-70711D01*
G01*
X73111270Y-50610913D01*
G75*
G02*
X72969848Y-50610913I-70711J70711D01*
G01*
X72828427Y-50469492D01*
G75*
G02*
X72828427Y-50328070I70711J70711D01*
G01*
G37*
G36*
G01*
X73181980Y-50681623D02*
X74207285Y-49656318D01*
G75*
G02*
X74348707Y-49656318I70711J-70711D01*
G01*
X74490128Y-49797739D01*
G75*
G02*
X74490128Y-49939161I-70711J-70711D01*
G01*
X73464823Y-50964466D01*
G75*
G02*
X73323401Y-50964466I-70711J70711D01*
G01*
X73181980Y-50823045D01*
G75*
G02*
X73181980Y-50681623I70711J70711D01*
G01*
G37*
G36*
G01*
X73535534Y-51035177D02*
X74560839Y-50009872D01*
G75*
G02*
X74702261Y-50009872I70711J-70711D01*
G01*
X74843682Y-50151293D01*
G75*
G02*
X74843682Y-50292715I-70711J-70711D01*
G01*
X73818377Y-51318020D01*
G75*
G02*
X73676955Y-51318020I-70711J70711D01*
G01*
X73535534Y-51176599D01*
G75*
G02*
X73535534Y-51035177I70711J70711D01*
G01*
G37*
G36*
G01*
X73889087Y-51388730D02*
X74914392Y-50363425D01*
G75*
G02*
X75055814Y-50363425I70711J-70711D01*
G01*
X75197235Y-50504846D01*
G75*
G02*
X75197235Y-50646268I-70711J-70711D01*
G01*
X74171930Y-51671573D01*
G75*
G02*
X74030508Y-51671573I-70711J70711D01*
G01*
X73889087Y-51530152D01*
G75*
G02*
X73889087Y-51388730I70711J70711D01*
G01*
G37*
G36*
G01*
X74242640Y-51742283D02*
X75267945Y-50716978D01*
G75*
G02*
X75409367Y-50716978I70711J-70711D01*
G01*
X75550788Y-50858399D01*
G75*
G02*
X75550788Y-50999821I-70711J-70711D01*
G01*
X74525483Y-52025126D01*
G75*
G02*
X74384061Y-52025126I-70711J70711D01*
G01*
X74242640Y-51883705D01*
G75*
G02*
X74242640Y-51742283I70711J70711D01*
G01*
G37*
G36*
G01*
X74596194Y-52095837D02*
X75621499Y-51070532D01*
G75*
G02*
X75762921Y-51070532I70711J-70711D01*
G01*
X75904342Y-51211953D01*
G75*
G02*
X75904342Y-51353375I-70711J-70711D01*
G01*
X74879037Y-52378680D01*
G75*
G02*
X74737615Y-52378680I-70711J70711D01*
G01*
X74596194Y-52237259D01*
G75*
G02*
X74596194Y-52095837I70711J70711D01*
G01*
G37*
G36*
G01*
X74949747Y-52449390D02*
X75975052Y-51424085D01*
G75*
G02*
X76116474Y-51424085I70711J-70711D01*
G01*
X76257895Y-51565506D01*
G75*
G02*
X76257895Y-51706928I-70711J-70711D01*
G01*
X75232590Y-52732233D01*
G75*
G02*
X75091168Y-52732233I-70711J70711D01*
G01*
X74949747Y-52590812D01*
G75*
G02*
X74949747Y-52449390I70711J70711D01*
G01*
G37*
G36*
G01*
X75303301Y-52802944D02*
X76328606Y-51777639D01*
G75*
G02*
X76470028Y-51777639I70711J-70711D01*
G01*
X76611449Y-51919060D01*
G75*
G02*
X76611449Y-52060482I-70711J-70711D01*
G01*
X75586144Y-53085787D01*
G75*
G02*
X75444722Y-53085787I-70711J70711D01*
G01*
X75303301Y-52944366D01*
G75*
G02*
X75303301Y-52802944I70711J70711D01*
G01*
G37*
G36*
G01*
X75656854Y-53156497D02*
X76682159Y-52131192D01*
G75*
G02*
X76823581Y-52131192I70711J-70711D01*
G01*
X76965002Y-52272613D01*
G75*
G02*
X76965002Y-52414035I-70711J-70711D01*
G01*
X75939697Y-53439340D01*
G75*
G02*
X75798275Y-53439340I-70711J70711D01*
G01*
X75656854Y-53297919D01*
G75*
G02*
X75656854Y-53156497I70711J70711D01*
G01*
G37*
G36*
G01*
X76010407Y-53510050D02*
X77035712Y-52484745D01*
G75*
G02*
X77177134Y-52484745I70711J-70711D01*
G01*
X77318555Y-52626166D01*
G75*
G02*
X77318555Y-52767588I-70711J-70711D01*
G01*
X76293250Y-53792893D01*
G75*
G02*
X76151828Y-53792893I-70711J70711D01*
G01*
X76010407Y-53651472D01*
G75*
G02*
X76010407Y-53510050I70711J70711D01*
G01*
G37*
G36*
G01*
X76010407Y-55348529D02*
X76151828Y-55207107D01*
G75*
G02*
X76293250Y-55207107I70711J-70711D01*
G01*
X77318555Y-56232412D01*
G75*
G02*
X77318555Y-56373834I-70711J-70711D01*
G01*
X77177134Y-56515255D01*
G75*
G02*
X77035712Y-56515255I-70711J70711D01*
G01*
X76010407Y-55489950D01*
G75*
G02*
X76010407Y-55348528I70711J70711D01*
G01*
G37*
G36*
G01*
X75656854Y-55702082D02*
X75798275Y-55560660D01*
G75*
G02*
X75939697Y-55560660I70711J-70711D01*
G01*
X76965002Y-56585965D01*
G75*
G02*
X76965002Y-56727387I-70711J-70711D01*
G01*
X76823581Y-56868808D01*
G75*
G02*
X76682159Y-56868808I-70711J70711D01*
G01*
X75656854Y-55843503D01*
G75*
G02*
X75656854Y-55702081I70711J70711D01*
G01*
G37*
G36*
G01*
X75303301Y-56055635D02*
X75444722Y-55914213D01*
G75*
G02*
X75586144Y-55914213I70711J-70711D01*
G01*
X76611449Y-56939518D01*
G75*
G02*
X76611449Y-57080940I-70711J-70711D01*
G01*
X76470028Y-57222361D01*
G75*
G02*
X76328606Y-57222361I-70711J70711D01*
G01*
X75303301Y-56197056D01*
G75*
G02*
X75303301Y-56055634I70711J70711D01*
G01*
G37*
G36*
G01*
X74949747Y-56409189D02*
X75091168Y-56267767D01*
G75*
G02*
X75232590Y-56267767I70711J-70711D01*
G01*
X76257895Y-57293072D01*
G75*
G02*
X76257895Y-57434494I-70711J-70711D01*
G01*
X76116474Y-57575915D01*
G75*
G02*
X75975052Y-57575915I-70711J70711D01*
G01*
X74949747Y-56550610D01*
G75*
G02*
X74949747Y-56409188I70711J70711D01*
G01*
G37*
G36*
G01*
X74596194Y-56762742D02*
X74737615Y-56621320D01*
G75*
G02*
X74879037Y-56621320I70711J-70711D01*
G01*
X75904342Y-57646625D01*
G75*
G02*
X75904342Y-57788047I-70711J-70711D01*
G01*
X75762921Y-57929468D01*
G75*
G02*
X75621499Y-57929468I-70711J70711D01*
G01*
X74596194Y-56904163D01*
G75*
G02*
X74596194Y-56762741I70711J70711D01*
G01*
G37*
G36*
G01*
X74242640Y-57116296D02*
X74384061Y-56974874D01*
G75*
G02*
X74525483Y-56974874I70711J-70711D01*
G01*
X75550788Y-58000179D01*
G75*
G02*
X75550788Y-58141601I-70711J-70711D01*
G01*
X75409367Y-58283022D01*
G75*
G02*
X75267945Y-58283022I-70711J70711D01*
G01*
X74242640Y-57257717D01*
G75*
G02*
X74242640Y-57116295I70711J70711D01*
G01*
G37*
G36*
G01*
X73889087Y-57469849D02*
X74030508Y-57328427D01*
G75*
G02*
X74171930Y-57328427I70711J-70711D01*
G01*
X75197235Y-58353732D01*
G75*
G02*
X75197235Y-58495154I-70711J-70711D01*
G01*
X75055814Y-58636575D01*
G75*
G02*
X74914392Y-58636575I-70711J70711D01*
G01*
X73889087Y-57611270D01*
G75*
G02*
X73889087Y-57469848I70711J70711D01*
G01*
G37*
G36*
G01*
X73535534Y-57823402D02*
X73676955Y-57681980D01*
G75*
G02*
X73818377Y-57681980I70711J-70711D01*
G01*
X74843682Y-58707285D01*
G75*
G02*
X74843682Y-58848707I-70711J-70711D01*
G01*
X74702261Y-58990128D01*
G75*
G02*
X74560839Y-58990128I-70711J70711D01*
G01*
X73535534Y-57964823D01*
G75*
G02*
X73535534Y-57823401I70711J70711D01*
G01*
G37*
G36*
G01*
X73181980Y-58176956D02*
X73323401Y-58035534D01*
G75*
G02*
X73464823Y-58035534I70711J-70711D01*
G01*
X74490128Y-59060839D01*
G75*
G02*
X74490128Y-59202261I-70711J-70711D01*
G01*
X74348707Y-59343682D01*
G75*
G02*
X74207285Y-59343682I-70711J70711D01*
G01*
X73181980Y-58318377D01*
G75*
G02*
X73181980Y-58176955I70711J70711D01*
G01*
G37*
G36*
G01*
X72828427Y-58530509D02*
X72969848Y-58389087D01*
G75*
G02*
X73111270Y-58389087I70711J-70711D01*
G01*
X74136575Y-59414392D01*
G75*
G02*
X74136575Y-59555814I-70711J-70711D01*
G01*
X73995154Y-59697235D01*
G75*
G02*
X73853732Y-59697235I-70711J70711D01*
G01*
X72828427Y-58671930D01*
G75*
G02*
X72828427Y-58530508I70711J70711D01*
G01*
G37*
G36*
G01*
X72474874Y-58884062D02*
X72616295Y-58742640D01*
G75*
G02*
X72757717Y-58742640I70711J-70711D01*
G01*
X73783022Y-59767945D01*
G75*
G02*
X73783022Y-59909367I-70711J-70711D01*
G01*
X73641601Y-60050788D01*
G75*
G02*
X73500179Y-60050788I-70711J70711D01*
G01*
X72474874Y-59025483D01*
G75*
G02*
X72474874Y-58884061I70711J70711D01*
G01*
G37*
G36*
G01*
X72121320Y-59237616D02*
X72262741Y-59096194D01*
G75*
G02*
X72404163Y-59096194I70711J-70711D01*
G01*
X73429468Y-60121499D01*
G75*
G02*
X73429468Y-60262921I-70711J-70711D01*
G01*
X73288047Y-60404342D01*
G75*
G02*
X73146625Y-60404342I-70711J70711D01*
G01*
X72121320Y-59379037D01*
G75*
G02*
X72121320Y-59237615I70711J70711D01*
G01*
G37*
G36*
G01*
X71767767Y-59591169D02*
X71909188Y-59449747D01*
G75*
G02*
X72050610Y-59449747I70711J-70711D01*
G01*
X73075915Y-60475052D01*
G75*
G02*
X73075915Y-60616474I-70711J-70711D01*
G01*
X72934494Y-60757895D01*
G75*
G02*
X72793072Y-60757895I-70711J70711D01*
G01*
X71767767Y-59732590D01*
G75*
G02*
X71767767Y-59591168I70711J70711D01*
G01*
G37*
G36*
G01*
X71414213Y-59944723D02*
X71555634Y-59803301D01*
G75*
G02*
X71697056Y-59803301I70711J-70711D01*
G01*
X72722361Y-60828606D01*
G75*
G02*
X72722361Y-60970028I-70711J-70711D01*
G01*
X72580940Y-61111449D01*
G75*
G02*
X72439518Y-61111449I-70711J70711D01*
G01*
X71414213Y-60086144D01*
G75*
G02*
X71414213Y-59944722I70711J70711D01*
G01*
G37*
G36*
G01*
X71060660Y-60298276D02*
X71202081Y-60156854D01*
G75*
G02*
X71343503Y-60156854I70711J-70711D01*
G01*
X72368808Y-61182159D01*
G75*
G02*
X72368808Y-61323581I-70711J-70711D01*
G01*
X72227387Y-61465002D01*
G75*
G02*
X72085965Y-61465002I-70711J70711D01*
G01*
X71060660Y-60439697D01*
G75*
G02*
X71060660Y-60298275I70711J70711D01*
G01*
G37*
G36*
G01*
X70707107Y-60651829D02*
X70848528Y-60510407D01*
G75*
G02*
X70989950Y-60510407I70711J-70711D01*
G01*
X72015255Y-61535712D01*
G75*
G02*
X72015255Y-61677134I-70711J-70711D01*
G01*
X71873834Y-61818555D01*
G75*
G02*
X71732412Y-61818555I-70711J70711D01*
G01*
X70707107Y-60793250D01*
G75*
G02*
X70707107Y-60651828I70711J70711D01*
G01*
G37*
G36*
G01*
X67984745Y-61535712D02*
X69010050Y-60510407D01*
G75*
G02*
X69151472Y-60510407I70711J-70711D01*
G01*
X69292893Y-60651828D01*
G75*
G02*
X69292893Y-60793250I-70711J-70711D01*
G01*
X68267588Y-61818555D01*
G75*
G02*
X68126166Y-61818555I-70711J70711D01*
G01*
X67984745Y-61677134D01*
G75*
G02*
X67984745Y-61535712I70711J70711D01*
G01*
G37*
G36*
G01*
X67631192Y-61182159D02*
X68656497Y-60156854D01*
G75*
G02*
X68797919Y-60156854I70711J-70711D01*
G01*
X68939340Y-60298275D01*
G75*
G02*
X68939340Y-60439697I-70711J-70711D01*
G01*
X67914035Y-61465002D01*
G75*
G02*
X67772613Y-61465002I-70711J70711D01*
G01*
X67631192Y-61323581D01*
G75*
G02*
X67631192Y-61182159I70711J70711D01*
G01*
G37*
G36*
G01*
X67277639Y-60828606D02*
X68302944Y-59803301D01*
G75*
G02*
X68444366Y-59803301I70711J-70711D01*
G01*
X68585787Y-59944722D01*
G75*
G02*
X68585787Y-60086144I-70711J-70711D01*
G01*
X67560482Y-61111449D01*
G75*
G02*
X67419060Y-61111449I-70711J70711D01*
G01*
X67277639Y-60970028D01*
G75*
G02*
X67277639Y-60828606I70711J70711D01*
G01*
G37*
G36*
G01*
X66924085Y-60475052D02*
X67949390Y-59449747D01*
G75*
G02*
X68090812Y-59449747I70711J-70711D01*
G01*
X68232233Y-59591168D01*
G75*
G02*
X68232233Y-59732590I-70711J-70711D01*
G01*
X67206928Y-60757895D01*
G75*
G02*
X67065506Y-60757895I-70711J70711D01*
G01*
X66924085Y-60616474D01*
G75*
G02*
X66924085Y-60475052I70711J70711D01*
G01*
G37*
G36*
G01*
X66570532Y-60121499D02*
X67595837Y-59096194D01*
G75*
G02*
X67737259Y-59096194I70711J-70711D01*
G01*
X67878680Y-59237615D01*
G75*
G02*
X67878680Y-59379037I-70711J-70711D01*
G01*
X66853375Y-60404342D01*
G75*
G02*
X66711953Y-60404342I-70711J70711D01*
G01*
X66570532Y-60262921D01*
G75*
G02*
X66570532Y-60121499I70711J70711D01*
G01*
G37*
G36*
G01*
X66216978Y-59767945D02*
X67242283Y-58742640D01*
G75*
G02*
X67383705Y-58742640I70711J-70711D01*
G01*
X67525126Y-58884061D01*
G75*
G02*
X67525126Y-59025483I-70711J-70711D01*
G01*
X66499821Y-60050788D01*
G75*
G02*
X66358399Y-60050788I-70711J70711D01*
G01*
X66216978Y-59909367D01*
G75*
G02*
X66216978Y-59767945I70711J70711D01*
G01*
G37*
G36*
G01*
X65863425Y-59414392D02*
X66888730Y-58389087D01*
G75*
G02*
X67030152Y-58389087I70711J-70711D01*
G01*
X67171573Y-58530508D01*
G75*
G02*
X67171573Y-58671930I-70711J-70711D01*
G01*
X66146268Y-59697235D01*
G75*
G02*
X66004846Y-59697235I-70711J70711D01*
G01*
X65863425Y-59555814D01*
G75*
G02*
X65863425Y-59414392I70711J70711D01*
G01*
G37*
G36*
G01*
X65509872Y-59060839D02*
X66535177Y-58035534D01*
G75*
G02*
X66676599Y-58035534I70711J-70711D01*
G01*
X66818020Y-58176955D01*
G75*
G02*
X66818020Y-58318377I-70711J-70711D01*
G01*
X65792715Y-59343682D01*
G75*
G02*
X65651293Y-59343682I-70711J70711D01*
G01*
X65509872Y-59202261D01*
G75*
G02*
X65509872Y-59060839I70711J70711D01*
G01*
G37*
G36*
G01*
X65156318Y-58707285D02*
X66181623Y-57681980D01*
G75*
G02*
X66323045Y-57681980I70711J-70711D01*
G01*
X66464466Y-57823401D01*
G75*
G02*
X66464466Y-57964823I-70711J-70711D01*
G01*
X65439161Y-58990128D01*
G75*
G02*
X65297739Y-58990128I-70711J70711D01*
G01*
X65156318Y-58848707D01*
G75*
G02*
X65156318Y-58707285I70711J70711D01*
G01*
G37*
G36*
G01*
X64802765Y-58353732D02*
X65828070Y-57328427D01*
G75*
G02*
X65969492Y-57328427I70711J-70711D01*
G01*
X66110913Y-57469848D01*
G75*
G02*
X66110913Y-57611270I-70711J-70711D01*
G01*
X65085608Y-58636575D01*
G75*
G02*
X64944186Y-58636575I-70711J70711D01*
G01*
X64802765Y-58495154D01*
G75*
G02*
X64802765Y-58353732I70711J70711D01*
G01*
G37*
G36*
G01*
X64449212Y-58000179D02*
X65474517Y-56974874D01*
G75*
G02*
X65615939Y-56974874I70711J-70711D01*
G01*
X65757360Y-57116295D01*
G75*
G02*
X65757360Y-57257717I-70711J-70711D01*
G01*
X64732055Y-58283022D01*
G75*
G02*
X64590633Y-58283022I-70711J70711D01*
G01*
X64449212Y-58141601D01*
G75*
G02*
X64449212Y-58000179I70711J70711D01*
G01*
G37*
G36*
G01*
X64095658Y-57646625D02*
X65120963Y-56621320D01*
G75*
G02*
X65262385Y-56621320I70711J-70711D01*
G01*
X65403806Y-56762741D01*
G75*
G02*
X65403806Y-56904163I-70711J-70711D01*
G01*
X64378501Y-57929468D01*
G75*
G02*
X64237079Y-57929468I-70711J70711D01*
G01*
X64095658Y-57788047D01*
G75*
G02*
X64095658Y-57646625I70711J70711D01*
G01*
G37*
G36*
G01*
X63742105Y-57293072D02*
X64767410Y-56267767D01*
G75*
G02*
X64908832Y-56267767I70711J-70711D01*
G01*
X65050253Y-56409188D01*
G75*
G02*
X65050253Y-56550610I-70711J-70711D01*
G01*
X64024948Y-57575915D01*
G75*
G02*
X63883526Y-57575915I-70711J70711D01*
G01*
X63742105Y-57434494D01*
G75*
G02*
X63742105Y-57293072I70711J70711D01*
G01*
G37*
G36*
G01*
X63388551Y-56939518D02*
X64413856Y-55914213D01*
G75*
G02*
X64555278Y-55914213I70711J-70711D01*
G01*
X64696699Y-56055634D01*
G75*
G02*
X64696699Y-56197056I-70711J-70711D01*
G01*
X63671394Y-57222361D01*
G75*
G02*
X63529972Y-57222361I-70711J70711D01*
G01*
X63388551Y-57080940D01*
G75*
G02*
X63388551Y-56939518I70711J70711D01*
G01*
G37*
G36*
G01*
X63034998Y-56585965D02*
X64060303Y-55560660D01*
G75*
G02*
X64201725Y-55560660I70711J-70711D01*
G01*
X64343146Y-55702081D01*
G75*
G02*
X64343146Y-55843503I-70711J-70711D01*
G01*
X63317841Y-56868808D01*
G75*
G02*
X63176419Y-56868808I-70711J70711D01*
G01*
X63034998Y-56727387D01*
G75*
G02*
X63034998Y-56585965I70711J70711D01*
G01*
G37*
G36*
G01*
X62681445Y-56232412D02*
X63706750Y-55207107D01*
G75*
G02*
X63848172Y-55207107I70711J-70711D01*
G01*
X63989593Y-55348528D01*
G75*
G02*
X63989593Y-55489950I-70711J-70711D01*
G01*
X62964288Y-56515255D01*
G75*
G02*
X62822866Y-56515255I-70711J70711D01*
G01*
X62681445Y-56373834D01*
G75*
G02*
X62681445Y-56232412I70711J70711D01*
G01*
G37*
G36*
G01*
X62681445Y-52626167D02*
X62822866Y-52484745D01*
G75*
G02*
X62964288Y-52484745I70711J-70711D01*
G01*
X63989593Y-53510050D01*
G75*
G02*
X63989593Y-53651472I-70711J-70711D01*
G01*
X63848172Y-53792893D01*
G75*
G02*
X63706750Y-53792893I-70711J70711D01*
G01*
X62681445Y-52767588D01*
G75*
G02*
X62681445Y-52626166I70711J70711D01*
G01*
G37*
G36*
G01*
X63034998Y-52272614D02*
X63176419Y-52131192D01*
G75*
G02*
X63317841Y-52131192I70711J-70711D01*
G01*
X64343146Y-53156497D01*
G75*
G02*
X64343146Y-53297919I-70711J-70711D01*
G01*
X64201725Y-53439340D01*
G75*
G02*
X64060303Y-53439340I-70711J70711D01*
G01*
X63034998Y-52414035D01*
G75*
G02*
X63034998Y-52272613I70711J70711D01*
G01*
G37*
G36*
G01*
X63388551Y-51919061D02*
X63529972Y-51777639D01*
G75*
G02*
X63671394Y-51777639I70711J-70711D01*
G01*
X64696699Y-52802944D01*
G75*
G02*
X64696699Y-52944366I-70711J-70711D01*
G01*
X64555278Y-53085787D01*
G75*
G02*
X64413856Y-53085787I-70711J70711D01*
G01*
X63388551Y-52060482D01*
G75*
G02*
X63388551Y-51919060I70711J70711D01*
G01*
G37*
G36*
G01*
X63742105Y-51565507D02*
X63883526Y-51424085D01*
G75*
G02*
X64024948Y-51424085I70711J-70711D01*
G01*
X65050253Y-52449390D01*
G75*
G02*
X65050253Y-52590812I-70711J-70711D01*
G01*
X64908832Y-52732233D01*
G75*
G02*
X64767410Y-52732233I-70711J70711D01*
G01*
X63742105Y-51706928D01*
G75*
G02*
X63742105Y-51565506I70711J70711D01*
G01*
G37*
G36*
G01*
X64095658Y-51211954D02*
X64237079Y-51070532D01*
G75*
G02*
X64378501Y-51070532I70711J-70711D01*
G01*
X65403806Y-52095837D01*
G75*
G02*
X65403806Y-52237259I-70711J-70711D01*
G01*
X65262385Y-52378680D01*
G75*
G02*
X65120963Y-52378680I-70711J70711D01*
G01*
X64095658Y-51353375D01*
G75*
G02*
X64095658Y-51211953I70711J70711D01*
G01*
G37*
G36*
G01*
X64449212Y-50858400D02*
X64590633Y-50716978D01*
G75*
G02*
X64732055Y-50716978I70711J-70711D01*
G01*
X65757360Y-51742283D01*
G75*
G02*
X65757360Y-51883705I-70711J-70711D01*
G01*
X65615939Y-52025126D01*
G75*
G02*
X65474517Y-52025126I-70711J70711D01*
G01*
X64449212Y-50999821D01*
G75*
G02*
X64449212Y-50858399I70711J70711D01*
G01*
G37*
G36*
G01*
X64802765Y-50504847D02*
X64944186Y-50363425D01*
G75*
G02*
X65085608Y-50363425I70711J-70711D01*
G01*
X66110913Y-51388730D01*
G75*
G02*
X66110913Y-51530152I-70711J-70711D01*
G01*
X65969492Y-51671573D01*
G75*
G02*
X65828070Y-51671573I-70711J70711D01*
G01*
X64802765Y-50646268D01*
G75*
G02*
X64802765Y-50504846I70711J70711D01*
G01*
G37*
G36*
G01*
X65156318Y-50151294D02*
X65297739Y-50009872D01*
G75*
G02*
X65439161Y-50009872I70711J-70711D01*
G01*
X66464466Y-51035177D01*
G75*
G02*
X66464466Y-51176599I-70711J-70711D01*
G01*
X66323045Y-51318020D01*
G75*
G02*
X66181623Y-51318020I-70711J70711D01*
G01*
X65156318Y-50292715D01*
G75*
G02*
X65156318Y-50151293I70711J70711D01*
G01*
G37*
G36*
G01*
X65509872Y-49797740D02*
X65651293Y-49656318D01*
G75*
G02*
X65792715Y-49656318I70711J-70711D01*
G01*
X66818020Y-50681623D01*
G75*
G02*
X66818020Y-50823045I-70711J-70711D01*
G01*
X66676599Y-50964466D01*
G75*
G02*
X66535177Y-50964466I-70711J70711D01*
G01*
X65509872Y-49939161D01*
G75*
G02*
X65509872Y-49797739I70711J70711D01*
G01*
G37*
G36*
G01*
X65863425Y-49444187D02*
X66004846Y-49302765D01*
G75*
G02*
X66146268Y-49302765I70711J-70711D01*
G01*
X67171573Y-50328070D01*
G75*
G02*
X67171573Y-50469492I-70711J-70711D01*
G01*
X67030152Y-50610913D01*
G75*
G02*
X66888730Y-50610913I-70711J70711D01*
G01*
X65863425Y-49585608D01*
G75*
G02*
X65863425Y-49444186I70711J70711D01*
G01*
G37*
G36*
G01*
X66216978Y-49090634D02*
X66358399Y-48949212D01*
G75*
G02*
X66499821Y-48949212I70711J-70711D01*
G01*
X67525126Y-49974517D01*
G75*
G02*
X67525126Y-50115939I-70711J-70711D01*
G01*
X67383705Y-50257360D01*
G75*
G02*
X67242283Y-50257360I-70711J70711D01*
G01*
X66216978Y-49232055D01*
G75*
G02*
X66216978Y-49090633I70711J70711D01*
G01*
G37*
G36*
G01*
X66570532Y-48737080D02*
X66711953Y-48595658D01*
G75*
G02*
X66853375Y-48595658I70711J-70711D01*
G01*
X67878680Y-49620963D01*
G75*
G02*
X67878680Y-49762385I-70711J-70711D01*
G01*
X67737259Y-49903806D01*
G75*
G02*
X67595837Y-49903806I-70711J70711D01*
G01*
X66570532Y-48878501D01*
G75*
G02*
X66570532Y-48737079I70711J70711D01*
G01*
G37*
G36*
G01*
X66924085Y-48383527D02*
X67065506Y-48242105D01*
G75*
G02*
X67206928Y-48242105I70711J-70711D01*
G01*
X68232233Y-49267410D01*
G75*
G02*
X68232233Y-49408832I-70711J-70711D01*
G01*
X68090812Y-49550253D01*
G75*
G02*
X67949390Y-49550253I-70711J70711D01*
G01*
X66924085Y-48524948D01*
G75*
G02*
X66924085Y-48383526I70711J70711D01*
G01*
G37*
G36*
G01*
X67277639Y-48029973D02*
X67419060Y-47888551D01*
G75*
G02*
X67560482Y-47888551I70711J-70711D01*
G01*
X68585787Y-48913856D01*
G75*
G02*
X68585787Y-49055278I-70711J-70711D01*
G01*
X68444366Y-49196699D01*
G75*
G02*
X68302944Y-49196699I-70711J70711D01*
G01*
X67277639Y-48171394D01*
G75*
G02*
X67277639Y-48029972I70711J70711D01*
G01*
G37*
G36*
G01*
X67631192Y-47676420D02*
X67772613Y-47534998D01*
G75*
G02*
X67914035Y-47534998I70711J-70711D01*
G01*
X68939340Y-48560303D01*
G75*
G02*
X68939340Y-48701725I-70711J-70711D01*
G01*
X68797919Y-48843146D01*
G75*
G02*
X68656497Y-48843146I-70711J70711D01*
G01*
X67631192Y-47817841D01*
G75*
G02*
X67631192Y-47676419I70711J70711D01*
G01*
G37*
G36*
G01*
X67984745Y-47322867D02*
X68126166Y-47181445D01*
G75*
G02*
X68267588Y-47181445I70711J-70711D01*
G01*
X69292893Y-48206750D01*
G75*
G02*
X69292893Y-48348172I-70711J-70711D01*
G01*
X69151472Y-48489593D01*
G75*
G02*
X69010050Y-48489593I-70711J70711D01*
G01*
X67984745Y-47464288D01*
G75*
G02*
X67984745Y-47322866I70711J70711D01*
G01*
G37*
G36*
G01*
X85800000Y-70281250D02*
X85800000Y-69718750D01*
G75*
G02*
X86043750Y-69475000I243750J0D01*
G01*
X86531250Y-69475000D01*
G75*
G02*
X86775000Y-69718750I0J-243750D01*
G01*
X86775000Y-70281250D01*
G75*
G02*
X86531250Y-70525000I-243750J0D01*
G01*
X86043750Y-70525000D01*
G75*
G02*
X85800000Y-70281250I0J243750D01*
G01*
G37*
G36*
G01*
X84225000Y-70281250D02*
X84225000Y-69718750D01*
G75*
G02*
X84468750Y-69475000I243750J0D01*
G01*
X84956250Y-69475000D01*
G75*
G02*
X85200000Y-69718750I0J-243750D01*
G01*
X85200000Y-70281250D01*
G75*
G02*
X84956250Y-70525000I-243750J0D01*
G01*
X84468750Y-70525000D01*
G75*
G02*
X84225000Y-70281250I0J243750D01*
G01*
G37*
G36*
G01*
X56200000Y-43218750D02*
X56200000Y-43781250D01*
G75*
G02*
X55956250Y-44025000I-243750J0D01*
G01*
X55468750Y-44025000D01*
G75*
G02*
X55225000Y-43781250I0J243750D01*
G01*
X55225000Y-43218750D01*
G75*
G02*
X55468750Y-42975000I243750J0D01*
G01*
X55956250Y-42975000D01*
G75*
G02*
X56200000Y-43218750I0J-243750D01*
G01*
G37*
G36*
G01*
X57775000Y-43218750D02*
X57775000Y-43781250D01*
G75*
G02*
X57531250Y-44025000I-243750J0D01*
G01*
X57043750Y-44025000D01*
G75*
G02*
X56800000Y-43781250I0J243750D01*
G01*
X56800000Y-43218750D01*
G75*
G02*
X57043750Y-42975000I243750J0D01*
G01*
X57531250Y-42975000D01*
G75*
G02*
X57775000Y-43218750I0J-243750D01*
G01*
G37*
D15*
X56500000Y-55575000D03*
X56500000Y-61925000D03*
D16*
X54465000Y-54940000D03*
X58535000Y-54940000D03*
X54465000Y-56210000D03*
X58535000Y-56210000D03*
X54465000Y-57480000D03*
X58535000Y-57480000D03*
X54465000Y-58750000D03*
X58535000Y-58750000D03*
X54465000Y-60020000D03*
X58535000Y-60020000D03*
X54465000Y-61290000D03*
X58535000Y-61290000D03*
X54465000Y-62560000D03*
X58535000Y-62560000D03*
G36*
G01*
X68725000Y-43781250D02*
X68725000Y-43218750D01*
G75*
G02*
X68968750Y-42975000I243750J0D01*
G01*
X69456250Y-42975000D01*
G75*
G02*
X69700000Y-43218750I0J-243750D01*
G01*
X69700000Y-43781250D01*
G75*
G02*
X69456250Y-44025000I-243750J0D01*
G01*
X68968750Y-44025000D01*
G75*
G02*
X68725000Y-43781250I0J243750D01*
G01*
G37*
G36*
G01*
X70300000Y-43781250D02*
X70300000Y-43218750D01*
G75*
G02*
X70543750Y-42975000I243750J0D01*
G01*
X71031250Y-42975000D01*
G75*
G02*
X71275000Y-43218750I0J-243750D01*
G01*
X71275000Y-43781250D01*
G75*
G02*
X71031250Y-44025000I-243750J0D01*
G01*
X70543750Y-44025000D01*
G75*
G02*
X70300000Y-43781250I0J243750D01*
G01*
G37*
D17*
X70850000Y-72250000D03*
X69150000Y-72250000D03*
D18*
X74100000Y-72250000D03*
X65900000Y-72250000D03*
D19*
X73300000Y-69900000D03*
X66700000Y-69900000D03*
D20*
X68700000Y-69575000D03*
X69350000Y-69575000D03*
X70000000Y-69575000D03*
X70650000Y-69575000D03*
X71300000Y-69575000D03*
D21*
X66000000Y-28000000D03*
G36*
G01*
X63781250Y-71775000D02*
X63218750Y-71775000D01*
G75*
G02*
X62975000Y-71531250I0J243750D01*
G01*
X62975000Y-71043750D01*
G75*
G02*
X63218750Y-70800000I243750J0D01*
G01*
X63781250Y-70800000D01*
G75*
G02*
X64025000Y-71043750I0J-243750D01*
G01*
X64025000Y-71531250D01*
G75*
G02*
X63781250Y-71775000I-243750J0D01*
G01*
G37*
G36*
G01*
X63781250Y-70200000D02*
X63218750Y-70200000D01*
G75*
G02*
X62975000Y-69956250I0J243750D01*
G01*
X62975000Y-69468750D01*
G75*
G02*
X63218750Y-69225000I243750J0D01*
G01*
X63781250Y-69225000D01*
G75*
G02*
X64025000Y-69468750I0J-243750D01*
G01*
X64025000Y-69956250D01*
G75*
G02*
X63781250Y-70200000I-243750J0D01*
G01*
G37*
G36*
G01*
X79013259Y-56411006D02*
X79411007Y-56013259D01*
G75*
G02*
X79755721Y-56013259I172357J-172357D01*
G01*
X80100435Y-56357973D01*
G75*
G02*
X80100435Y-56702687I-172357J-172357D01*
G01*
X79702687Y-57100435D01*
G75*
G02*
X79357973Y-57100435I-172357J172357D01*
G01*
X79013259Y-56755721D01*
G75*
G02*
X79013259Y-56411007I172357J172357D01*
G01*
G37*
G36*
G01*
X77899565Y-55297312D02*
X78297313Y-54899565D01*
G75*
G02*
X78642027Y-54899565I172357J-172357D01*
G01*
X78986741Y-55244279D01*
G75*
G02*
X78986741Y-55588993I-172357J-172357D01*
G01*
X78588993Y-55986741D01*
G75*
G02*
X78244279Y-55986741I-172357J172357D01*
G01*
X77899565Y-55642027D01*
G75*
G02*
X77899565Y-55297313I172357J172357D01*
G01*
G37*
X85000000Y-29500000D03*
G36*
G01*
X62551838Y-51778848D02*
X62154091Y-51381100D01*
G75*
G02*
X62154091Y-51036386I172357J172357D01*
G01*
X62498805Y-50691672D01*
G75*
G02*
X62843519Y-50691672I172357J-172357D01*
G01*
X63241267Y-51089420D01*
G75*
G02*
X63241267Y-51434134I-172357J-172357D01*
G01*
X62896553Y-51778848D01*
G75*
G02*
X62551839Y-51778848I-172357J172357D01*
G01*
G37*
G36*
G01*
X63665532Y-50665154D02*
X63267785Y-50267406D01*
G75*
G02*
X63267785Y-49922692I172357J172357D01*
G01*
X63612499Y-49577978D01*
G75*
G02*
X63957213Y-49577978I172357J-172357D01*
G01*
X64354961Y-49975726D01*
G75*
G02*
X64354961Y-50320440I-172357J-172357D01*
G01*
X64010247Y-50665154D01*
G75*
G02*
X63665533Y-50665154I-172357J172357D01*
G01*
G37*
G36*
G01*
X68500374Y-63513259D02*
X68898121Y-63911007D01*
G75*
G02*
X68898121Y-64255721I-172357J-172357D01*
G01*
X68553407Y-64600435D01*
G75*
G02*
X68208693Y-64600435I-172357J172357D01*
G01*
X67810945Y-64202687D01*
G75*
G02*
X67810945Y-63857973I172357J172357D01*
G01*
X68155659Y-63513259D01*
G75*
G02*
X68500373Y-63513259I172357J-172357D01*
G01*
G37*
G36*
G01*
X69614068Y-62399565D02*
X70011815Y-62797313D01*
G75*
G02*
X70011815Y-63142027I-172357J-172357D01*
G01*
X69667101Y-63486741D01*
G75*
G02*
X69322387Y-63486741I-172357J172357D01*
G01*
X68924639Y-63088993D01*
G75*
G02*
X68924639Y-62744279I172357J172357D01*
G01*
X69269353Y-62399565D01*
G75*
G02*
X69614067Y-62399565I172357J-172357D01*
G01*
G37*
G36*
G01*
X54770000Y-37550000D02*
X54420000Y-37550000D01*
G75*
G02*
X54245000Y-37375000I0J175000D01*
G01*
X54245000Y-35675000D01*
G75*
G02*
X54420000Y-35500000I175000J0D01*
G01*
X54770000Y-35500000D01*
G75*
G02*
X54945000Y-35675000I0J-175000D01*
G01*
X54945000Y-37375000D01*
G75*
G02*
X54770000Y-37550000I-175000J0D01*
G01*
G37*
G36*
G01*
X56040000Y-37550000D02*
X55690000Y-37550000D01*
G75*
G02*
X55515000Y-37375000I0J175000D01*
G01*
X55515000Y-35675000D01*
G75*
G02*
X55690000Y-35500000I175000J0D01*
G01*
X56040000Y-35500000D01*
G75*
G02*
X56215000Y-35675000I0J-175000D01*
G01*
X56215000Y-37375000D01*
G75*
G02*
X56040000Y-37550000I-175000J0D01*
G01*
G37*
G36*
G01*
X57310000Y-37550000D02*
X56960000Y-37550000D01*
G75*
G02*
X56785000Y-37375000I0J175000D01*
G01*
X56785000Y-35675000D01*
G75*
G02*
X56960000Y-35500000I175000J0D01*
G01*
X57310000Y-35500000D01*
G75*
G02*
X57485000Y-35675000I0J-175000D01*
G01*
X57485000Y-37375000D01*
G75*
G02*
X57310000Y-37550000I-175000J0D01*
G01*
G37*
G36*
G01*
X58580000Y-37550000D02*
X58230000Y-37550000D01*
G75*
G02*
X58055000Y-37375000I0J175000D01*
G01*
X58055000Y-35675000D01*
G75*
G02*
X58230000Y-35500000I175000J0D01*
G01*
X58580000Y-35500000D01*
G75*
G02*
X58755000Y-35675000I0J-175000D01*
G01*
X58755000Y-37375000D01*
G75*
G02*
X58580000Y-37550000I-175000J0D01*
G01*
G37*
G36*
G01*
X58580000Y-42500000D02*
X58230000Y-42500000D01*
G75*
G02*
X58055000Y-42325000I0J175000D01*
G01*
X58055000Y-40625000D01*
G75*
G02*
X58230000Y-40450000I175000J0D01*
G01*
X58580000Y-40450000D01*
G75*
G02*
X58755000Y-40625000I0J-175000D01*
G01*
X58755000Y-42325000D01*
G75*
G02*
X58580000Y-42500000I-175000J0D01*
G01*
G37*
G36*
G01*
X57310000Y-42500000D02*
X56960000Y-42500000D01*
G75*
G02*
X56785000Y-42325000I0J175000D01*
G01*
X56785000Y-40625000D01*
G75*
G02*
X56960000Y-40450000I175000J0D01*
G01*
X57310000Y-40450000D01*
G75*
G02*
X57485000Y-40625000I0J-175000D01*
G01*
X57485000Y-42325000D01*
G75*
G02*
X57310000Y-42500000I-175000J0D01*
G01*
G37*
G36*
G01*
X56040000Y-42500000D02*
X55690000Y-42500000D01*
G75*
G02*
X55515000Y-42325000I0J175000D01*
G01*
X55515000Y-40625000D01*
G75*
G02*
X55690000Y-40450000I175000J0D01*
G01*
X56040000Y-40450000D01*
G75*
G02*
X56215000Y-40625000I0J-175000D01*
G01*
X56215000Y-42325000D01*
G75*
G02*
X56040000Y-42500000I-175000J0D01*
G01*
G37*
G36*
G01*
X54770000Y-42500000D02*
X54420000Y-42500000D01*
G75*
G02*
X54245000Y-42325000I0J175000D01*
G01*
X54245000Y-40625000D01*
G75*
G02*
X54420000Y-40450000I175000J0D01*
G01*
X54770000Y-40450000D01*
G75*
G02*
X54945000Y-40625000I0J-175000D01*
G01*
X54945000Y-42325000D01*
G75*
G02*
X54770000Y-42500000I-175000J0D01*
G01*
G37*
D22*
X77850000Y-69500000D03*
X80150000Y-68550000D03*
X80150000Y-70450000D03*
G36*
G01*
X66450000Y-66718750D02*
X66450000Y-67281250D01*
G75*
G02*
X66206250Y-67525000I-243750J0D01*
G01*
X65718750Y-67525000D01*
G75*
G02*
X65475000Y-67281250I0J243750D01*
G01*
X65475000Y-66718750D01*
G75*
G02*
X65718750Y-66475000I243750J0D01*
G01*
X66206250Y-66475000D01*
G75*
G02*
X66450000Y-66718750I0J-243750D01*
G01*
G37*
G36*
G01*
X68025000Y-66718750D02*
X68025000Y-67281250D01*
G75*
G02*
X67781250Y-67525000I-243750J0D01*
G01*
X67293750Y-67525000D01*
G75*
G02*
X67050000Y-67281250I0J243750D01*
G01*
X67050000Y-66718750D01*
G75*
G02*
X67293750Y-66475000I243750J0D01*
G01*
X67781250Y-66475000D01*
G75*
G02*
X68025000Y-66718750I0J-243750D01*
G01*
G37*
G36*
G01*
X70683566Y-47182654D02*
X70285819Y-46784906D01*
G75*
G02*
X70285819Y-46440192I172357J172357D01*
G01*
X70630533Y-46095478D01*
G75*
G02*
X70975247Y-46095478I172357J-172357D01*
G01*
X71372995Y-46493226D01*
G75*
G02*
X71372995Y-46837940I-172357J-172357D01*
G01*
X71028281Y-47182654D01*
G75*
G02*
X70683567Y-47182654I-172357J172357D01*
G01*
G37*
G36*
G01*
X71797260Y-46068960D02*
X71399513Y-45671212D01*
G75*
G02*
X71399513Y-45326498I172357J172357D01*
G01*
X71744227Y-44981784D01*
G75*
G02*
X72088941Y-44981784I172357J-172357D01*
G01*
X72486689Y-45379532D01*
G75*
G02*
X72486689Y-45724246I-172357J-172357D01*
G01*
X72141975Y-46068960D01*
G75*
G02*
X71797261Y-46068960I-172357J172357D01*
G01*
G37*
G36*
G01*
X76718750Y-31800000D02*
X77281250Y-31800000D01*
G75*
G02*
X77525000Y-32043750I0J-243750D01*
G01*
X77525000Y-32531250D01*
G75*
G02*
X77281250Y-32775000I-243750J0D01*
G01*
X76718750Y-32775000D01*
G75*
G02*
X76475000Y-32531250I0J243750D01*
G01*
X76475000Y-32043750D01*
G75*
G02*
X76718750Y-31800000I243750J0D01*
G01*
G37*
G36*
G01*
X76718750Y-30225000D02*
X77281250Y-30225000D01*
G75*
G02*
X77525000Y-30468750I0J-243750D01*
G01*
X77525000Y-30956250D01*
G75*
G02*
X77281250Y-31200000I-243750J0D01*
G01*
X76718750Y-31200000D01*
G75*
G02*
X76475000Y-30956250I0J243750D01*
G01*
X76475000Y-30468750D01*
G75*
G02*
X76718750Y-30225000I243750J0D01*
G01*
G37*
D12*
X54960000Y-46500000D03*
D13*
X57500000Y-46500000D03*
G36*
G01*
X74572653Y-60971236D02*
X74174906Y-60573488D01*
G75*
G02*
X74174906Y-60228774I172357J172357D01*
G01*
X74519620Y-59884060D01*
G75*
G02*
X74864334Y-59884060I172357J-172357D01*
G01*
X75262082Y-60281808D01*
G75*
G02*
X75262082Y-60626522I-172357J-172357D01*
G01*
X74917368Y-60971236D01*
G75*
G02*
X74572654Y-60971236I-172357J172357D01*
G01*
G37*
G36*
G01*
X75686347Y-59857542D02*
X75288600Y-59459794D01*
G75*
G02*
X75288600Y-59115080I172357J172357D01*
G01*
X75633314Y-58770366D01*
G75*
G02*
X75978028Y-58770366I172357J-172357D01*
G01*
X76375776Y-59168114D01*
G75*
G02*
X76375776Y-59512828I-172357J-172357D01*
G01*
X76031062Y-59857542D01*
G75*
G02*
X75686348Y-59857542I-172357J172357D01*
G01*
G37*
G36*
G01*
X66785641Y-46749551D02*
X67183388Y-47147299D01*
G75*
G02*
X67183388Y-47492013I-172357J-172357D01*
G01*
X66838674Y-47836727D01*
G75*
G02*
X66493960Y-47836727I-172357J172357D01*
G01*
X66096212Y-47438979D01*
G75*
G02*
X66096212Y-47094265I172357J172357D01*
G01*
X66440926Y-46749551D01*
G75*
G02*
X66785640Y-46749551I172357J-172357D01*
G01*
G37*
G36*
G01*
X65671947Y-47863245D02*
X66069694Y-48260993D01*
G75*
G02*
X66069694Y-48605707I-172357J-172357D01*
G01*
X65724980Y-48950421D01*
G75*
G02*
X65380266Y-48950421I-172357J172357D01*
G01*
X64982518Y-48552673D01*
G75*
G02*
X64982518Y-48207959I172357J172357D01*
G01*
X65327232Y-47863245D01*
G75*
G02*
X65671946Y-47863245I172357J-172357D01*
G01*
G37*
G36*
G01*
X54218750Y-32225000D02*
X54781250Y-32225000D01*
G75*
G02*
X55025000Y-32468750I0J-243750D01*
G01*
X55025000Y-32956250D01*
G75*
G02*
X54781250Y-33200000I-243750J0D01*
G01*
X54218750Y-33200000D01*
G75*
G02*
X53975000Y-32956250I0J243750D01*
G01*
X53975000Y-32468750D01*
G75*
G02*
X54218750Y-32225000I243750J0D01*
G01*
G37*
G36*
G01*
X54218750Y-33800000D02*
X54781250Y-33800000D01*
G75*
G02*
X55025000Y-34043750I0J-243750D01*
G01*
X55025000Y-34531250D01*
G75*
G02*
X54781250Y-34775000I-243750J0D01*
G01*
X54218750Y-34775000D01*
G75*
G02*
X53975000Y-34531250I0J243750D01*
G01*
X53975000Y-34043750D01*
G75*
G02*
X54218750Y-33800000I243750J0D01*
G01*
G37*
G36*
G01*
X80781250Y-45775000D02*
X80218750Y-45775000D01*
G75*
G02*
X79975000Y-45531250I0J243750D01*
G01*
X79975000Y-45043750D01*
G75*
G02*
X80218750Y-44800000I243750J0D01*
G01*
X80781250Y-44800000D01*
G75*
G02*
X81025000Y-45043750I0J-243750D01*
G01*
X81025000Y-45531250D01*
G75*
G02*
X80781250Y-45775000I-243750J0D01*
G01*
G37*
G36*
G01*
X80781250Y-44200000D02*
X80218750Y-44200000D01*
G75*
G02*
X79975000Y-43956250I0J243750D01*
G01*
X79975000Y-43468750D01*
G75*
G02*
X80218750Y-43225000I243750J0D01*
G01*
X80781250Y-43225000D01*
G75*
G02*
X81025000Y-43468750I0J-243750D01*
G01*
X81025000Y-43956250D01*
G75*
G02*
X80781250Y-44200000I-243750J0D01*
G01*
G37*
G36*
G01*
X60781250Y-48775000D02*
X60218750Y-48775000D01*
G75*
G02*
X59975000Y-48531250I0J243750D01*
G01*
X59975000Y-48043750D01*
G75*
G02*
X60218750Y-47800000I243750J0D01*
G01*
X60781250Y-47800000D01*
G75*
G02*
X61025000Y-48043750I0J-243750D01*
G01*
X61025000Y-48531250D01*
G75*
G02*
X60781250Y-48775000I-243750J0D01*
G01*
G37*
G36*
G01*
X60781250Y-47200000D02*
X60218750Y-47200000D01*
G75*
G02*
X59975000Y-46956250I0J243750D01*
G01*
X59975000Y-46468750D01*
G75*
G02*
X60218750Y-46225000I243750J0D01*
G01*
X60781250Y-46225000D01*
G75*
G02*
X61025000Y-46468750I0J-243750D01*
G01*
X61025000Y-46956250D01*
G75*
G02*
X60781250Y-47200000I-243750J0D01*
G01*
G37*
G36*
G01*
X80781250Y-41775000D02*
X80218750Y-41775000D01*
G75*
G02*
X79975000Y-41531250I0J243750D01*
G01*
X79975000Y-41043750D01*
G75*
G02*
X80218750Y-40800000I243750J0D01*
G01*
X80781250Y-40800000D01*
G75*
G02*
X81025000Y-41043750I0J-243750D01*
G01*
X81025000Y-41531250D01*
G75*
G02*
X80781250Y-41775000I-243750J0D01*
G01*
G37*
G36*
G01*
X80781250Y-40200000D02*
X80218750Y-40200000D01*
G75*
G02*
X79975000Y-39956250I0J243750D01*
G01*
X79975000Y-39468750D01*
G75*
G02*
X80218750Y-39225000I243750J0D01*
G01*
X80781250Y-39225000D01*
G75*
G02*
X81025000Y-39468750I0J-243750D01*
G01*
X81025000Y-39956250D01*
G75*
G02*
X80781250Y-40200000I-243750J0D01*
G01*
G37*
D12*
X80000000Y-28460000D03*
D13*
X80000000Y-31000000D03*
G36*
G01*
X74608009Y-48199120D02*
X74210261Y-48596867D01*
G75*
G02*
X73865547Y-48596867I-172357J172357D01*
G01*
X73520833Y-48252153D01*
G75*
G02*
X73520833Y-47907439I172357J172357D01*
G01*
X73918581Y-47509691D01*
G75*
G02*
X74263295Y-47509691I172357J-172357D01*
G01*
X74608009Y-47854405D01*
G75*
G02*
X74608009Y-48199119I-172357J-172357D01*
G01*
G37*
G36*
G01*
X73494315Y-47085426D02*
X73096567Y-47483173D01*
G75*
G02*
X72751853Y-47483173I-172357J172357D01*
G01*
X72407139Y-47138459D01*
G75*
G02*
X72407139Y-46793745I172357J172357D01*
G01*
X72804887Y-46395997D01*
G75*
G02*
X73149601Y-46395997I172357J-172357D01*
G01*
X73494315Y-46740711D01*
G75*
G02*
X73494315Y-47085425I-172357J-172357D01*
G01*
G37*
X60000000Y-31000000D03*
D12*
X60000000Y-28460000D03*
G36*
G01*
X86775000Y-67718750D02*
X86775000Y-68281250D01*
G75*
G02*
X86531250Y-68525000I-243750J0D01*
G01*
X86043750Y-68525000D01*
G75*
G02*
X85800000Y-68281250I0J243750D01*
G01*
X85800000Y-67718750D01*
G75*
G02*
X86043750Y-67475000I243750J0D01*
G01*
X86531250Y-67475000D01*
G75*
G02*
X86775000Y-67718750I0J-243750D01*
G01*
G37*
G36*
G01*
X85200000Y-67718750D02*
X85200000Y-68281250D01*
G75*
G02*
X84956250Y-68525000I-243750J0D01*
G01*
X84468750Y-68525000D01*
G75*
G02*
X84225000Y-68281250I0J243750D01*
G01*
X84225000Y-67718750D01*
G75*
G02*
X84468750Y-67475000I243750J0D01*
G01*
X84956250Y-67475000D01*
G75*
G02*
X85200000Y-67718750I0J-243750D01*
G01*
G37*
D21*
X74000000Y-28000000D03*
G36*
G01*
X69700000Y-41718750D02*
X69700000Y-42281250D01*
G75*
G02*
X69456250Y-42525000I-243750J0D01*
G01*
X68968750Y-42525000D01*
G75*
G02*
X68725000Y-42281250I0J243750D01*
G01*
X68725000Y-41718750D01*
G75*
G02*
X68968750Y-41475000I243750J0D01*
G01*
X69456250Y-41475000D01*
G75*
G02*
X69700000Y-41718750I0J-243750D01*
G01*
G37*
G36*
G01*
X71275000Y-41718750D02*
X71275000Y-42281250D01*
G75*
G02*
X71031250Y-42525000I-243750J0D01*
G01*
X70543750Y-42525000D01*
G75*
G02*
X70300000Y-42281250I0J243750D01*
G01*
X70300000Y-41718750D01*
G75*
G02*
X70543750Y-41475000I243750J0D01*
G01*
X71031250Y-41475000D01*
G75*
G02*
X71275000Y-41718750I0J-243750D01*
G01*
G37*
D23*
X73000000Y-32500000D03*
X71000000Y-32500000D03*
X69000000Y-32500000D03*
G36*
G01*
X66350000Y-33154168D02*
X66350000Y-31845832D01*
G75*
G02*
X66620832Y-31575000I270832J0D01*
G01*
X67379168Y-31575000D01*
G75*
G02*
X67650000Y-31845832I0J-270832D01*
G01*
X67650000Y-33154168D01*
G75*
G02*
X67379168Y-33425000I-270832J0D01*
G01*
X66620832Y-33425000D01*
G75*
G02*
X66350000Y-33154168I0J270832D01*
G01*
G37*
D21*
X70000000Y-28000000D03*
D24*
X78688000Y-63405000D03*
X78688000Y-62135000D03*
X78688000Y-60865000D03*
X78688000Y-59595000D03*
X86312000Y-59595000D03*
X86312000Y-60865000D03*
X86312000Y-62135000D03*
X86312000Y-63405000D03*
D25*
X85075000Y-53575000D03*
X80925000Y-53575000D03*
X85075000Y-51425000D03*
X80925000Y-51425000D03*
D16*
X18535000Y-62560000D03*
X14465000Y-62560000D03*
X18535000Y-61290000D03*
X14465000Y-61290000D03*
X18535000Y-60020000D03*
X14465000Y-60020000D03*
X18535000Y-58750000D03*
X14465000Y-58750000D03*
X18535000Y-57480000D03*
X14465000Y-57480000D03*
X18535000Y-56210000D03*
X14465000Y-56210000D03*
X18535000Y-54940000D03*
X14465000Y-54940000D03*
D15*
X16500000Y-61925000D03*
X16500000Y-55575000D03*
G36*
G01*
X27984745Y-47322867D02*
X28126166Y-47181445D01*
G75*
G02*
X28267588Y-47181445I70711J-70711D01*
G01*
X29292893Y-48206750D01*
G75*
G02*
X29292893Y-48348172I-70711J-70711D01*
G01*
X29151472Y-48489593D01*
G75*
G02*
X29010050Y-48489593I-70711J70711D01*
G01*
X27984745Y-47464288D01*
G75*
G02*
X27984745Y-47322866I70711J70711D01*
G01*
G37*
G36*
G01*
X27631192Y-47676420D02*
X27772613Y-47534998D01*
G75*
G02*
X27914035Y-47534998I70711J-70711D01*
G01*
X28939340Y-48560303D01*
G75*
G02*
X28939340Y-48701725I-70711J-70711D01*
G01*
X28797919Y-48843146D01*
G75*
G02*
X28656497Y-48843146I-70711J70711D01*
G01*
X27631192Y-47817841D01*
G75*
G02*
X27631192Y-47676419I70711J70711D01*
G01*
G37*
G36*
G01*
X27277639Y-48029973D02*
X27419060Y-47888551D01*
G75*
G02*
X27560482Y-47888551I70711J-70711D01*
G01*
X28585787Y-48913856D01*
G75*
G02*
X28585787Y-49055278I-70711J-70711D01*
G01*
X28444366Y-49196699D01*
G75*
G02*
X28302944Y-49196699I-70711J70711D01*
G01*
X27277639Y-48171394D01*
G75*
G02*
X27277639Y-48029972I70711J70711D01*
G01*
G37*
G36*
G01*
X26924085Y-48383527D02*
X27065506Y-48242105D01*
G75*
G02*
X27206928Y-48242105I70711J-70711D01*
G01*
X28232233Y-49267410D01*
G75*
G02*
X28232233Y-49408832I-70711J-70711D01*
G01*
X28090812Y-49550253D01*
G75*
G02*
X27949390Y-49550253I-70711J70711D01*
G01*
X26924085Y-48524948D01*
G75*
G02*
X26924085Y-48383526I70711J70711D01*
G01*
G37*
G36*
G01*
X26570532Y-48737080D02*
X26711953Y-48595658D01*
G75*
G02*
X26853375Y-48595658I70711J-70711D01*
G01*
X27878680Y-49620963D01*
G75*
G02*
X27878680Y-49762385I-70711J-70711D01*
G01*
X27737259Y-49903806D01*
G75*
G02*
X27595837Y-49903806I-70711J70711D01*
G01*
X26570532Y-48878501D01*
G75*
G02*
X26570532Y-48737079I70711J70711D01*
G01*
G37*
G36*
G01*
X26216978Y-49090634D02*
X26358399Y-48949212D01*
G75*
G02*
X26499821Y-48949212I70711J-70711D01*
G01*
X27525126Y-49974517D01*
G75*
G02*
X27525126Y-50115939I-70711J-70711D01*
G01*
X27383705Y-50257360D01*
G75*
G02*
X27242283Y-50257360I-70711J70711D01*
G01*
X26216978Y-49232055D01*
G75*
G02*
X26216978Y-49090633I70711J70711D01*
G01*
G37*
G36*
G01*
X25863425Y-49444187D02*
X26004846Y-49302765D01*
G75*
G02*
X26146268Y-49302765I70711J-70711D01*
G01*
X27171573Y-50328070D01*
G75*
G02*
X27171573Y-50469492I-70711J-70711D01*
G01*
X27030152Y-50610913D01*
G75*
G02*
X26888730Y-50610913I-70711J70711D01*
G01*
X25863425Y-49585608D01*
G75*
G02*
X25863425Y-49444186I70711J70711D01*
G01*
G37*
G36*
G01*
X25509872Y-49797740D02*
X25651293Y-49656318D01*
G75*
G02*
X25792715Y-49656318I70711J-70711D01*
G01*
X26818020Y-50681623D01*
G75*
G02*
X26818020Y-50823045I-70711J-70711D01*
G01*
X26676599Y-50964466D01*
G75*
G02*
X26535177Y-50964466I-70711J70711D01*
G01*
X25509872Y-49939161D01*
G75*
G02*
X25509872Y-49797739I70711J70711D01*
G01*
G37*
G36*
G01*
X25156318Y-50151294D02*
X25297739Y-50009872D01*
G75*
G02*
X25439161Y-50009872I70711J-70711D01*
G01*
X26464466Y-51035177D01*
G75*
G02*
X26464466Y-51176599I-70711J-70711D01*
G01*
X26323045Y-51318020D01*
G75*
G02*
X26181623Y-51318020I-70711J70711D01*
G01*
X25156318Y-50292715D01*
G75*
G02*
X25156318Y-50151293I70711J70711D01*
G01*
G37*
G36*
G01*
X24802765Y-50504847D02*
X24944186Y-50363425D01*
G75*
G02*
X25085608Y-50363425I70711J-70711D01*
G01*
X26110913Y-51388730D01*
G75*
G02*
X26110913Y-51530152I-70711J-70711D01*
G01*
X25969492Y-51671573D01*
G75*
G02*
X25828070Y-51671573I-70711J70711D01*
G01*
X24802765Y-50646268D01*
G75*
G02*
X24802765Y-50504846I70711J70711D01*
G01*
G37*
G36*
G01*
X24449212Y-50858400D02*
X24590633Y-50716978D01*
G75*
G02*
X24732055Y-50716978I70711J-70711D01*
G01*
X25757360Y-51742283D01*
G75*
G02*
X25757360Y-51883705I-70711J-70711D01*
G01*
X25615939Y-52025126D01*
G75*
G02*
X25474517Y-52025126I-70711J70711D01*
G01*
X24449212Y-50999821D01*
G75*
G02*
X24449212Y-50858399I70711J70711D01*
G01*
G37*
G36*
G01*
X24095658Y-51211954D02*
X24237079Y-51070532D01*
G75*
G02*
X24378501Y-51070532I70711J-70711D01*
G01*
X25403806Y-52095837D01*
G75*
G02*
X25403806Y-52237259I-70711J-70711D01*
G01*
X25262385Y-52378680D01*
G75*
G02*
X25120963Y-52378680I-70711J70711D01*
G01*
X24095658Y-51353375D01*
G75*
G02*
X24095658Y-51211953I70711J70711D01*
G01*
G37*
G36*
G01*
X23742105Y-51565507D02*
X23883526Y-51424085D01*
G75*
G02*
X24024948Y-51424085I70711J-70711D01*
G01*
X25050253Y-52449390D01*
G75*
G02*
X25050253Y-52590812I-70711J-70711D01*
G01*
X24908832Y-52732233D01*
G75*
G02*
X24767410Y-52732233I-70711J70711D01*
G01*
X23742105Y-51706928D01*
G75*
G02*
X23742105Y-51565506I70711J70711D01*
G01*
G37*
G36*
G01*
X23388551Y-51919061D02*
X23529972Y-51777639D01*
G75*
G02*
X23671394Y-51777639I70711J-70711D01*
G01*
X24696699Y-52802944D01*
G75*
G02*
X24696699Y-52944366I-70711J-70711D01*
G01*
X24555278Y-53085787D01*
G75*
G02*
X24413856Y-53085787I-70711J70711D01*
G01*
X23388551Y-52060482D01*
G75*
G02*
X23388551Y-51919060I70711J70711D01*
G01*
G37*
G36*
G01*
X23034998Y-52272614D02*
X23176419Y-52131192D01*
G75*
G02*
X23317841Y-52131192I70711J-70711D01*
G01*
X24343146Y-53156497D01*
G75*
G02*
X24343146Y-53297919I-70711J-70711D01*
G01*
X24201725Y-53439340D01*
G75*
G02*
X24060303Y-53439340I-70711J70711D01*
G01*
X23034998Y-52414035D01*
G75*
G02*
X23034998Y-52272613I70711J70711D01*
G01*
G37*
G36*
G01*
X22681445Y-52626167D02*
X22822866Y-52484745D01*
G75*
G02*
X22964288Y-52484745I70711J-70711D01*
G01*
X23989593Y-53510050D01*
G75*
G02*
X23989593Y-53651472I-70711J-70711D01*
G01*
X23848172Y-53792893D01*
G75*
G02*
X23706750Y-53792893I-70711J70711D01*
G01*
X22681445Y-52767588D01*
G75*
G02*
X22681445Y-52626166I70711J70711D01*
G01*
G37*
G36*
G01*
X22681445Y-56232412D02*
X23706750Y-55207107D01*
G75*
G02*
X23848172Y-55207107I70711J-70711D01*
G01*
X23989593Y-55348528D01*
G75*
G02*
X23989593Y-55489950I-70711J-70711D01*
G01*
X22964288Y-56515255D01*
G75*
G02*
X22822866Y-56515255I-70711J70711D01*
G01*
X22681445Y-56373834D01*
G75*
G02*
X22681445Y-56232412I70711J70711D01*
G01*
G37*
G36*
G01*
X23034998Y-56585965D02*
X24060303Y-55560660D01*
G75*
G02*
X24201725Y-55560660I70711J-70711D01*
G01*
X24343146Y-55702081D01*
G75*
G02*
X24343146Y-55843503I-70711J-70711D01*
G01*
X23317841Y-56868808D01*
G75*
G02*
X23176419Y-56868808I-70711J70711D01*
G01*
X23034998Y-56727387D01*
G75*
G02*
X23034998Y-56585965I70711J70711D01*
G01*
G37*
G36*
G01*
X23388551Y-56939518D02*
X24413856Y-55914213D01*
G75*
G02*
X24555278Y-55914213I70711J-70711D01*
G01*
X24696699Y-56055634D01*
G75*
G02*
X24696699Y-56197056I-70711J-70711D01*
G01*
X23671394Y-57222361D01*
G75*
G02*
X23529972Y-57222361I-70711J70711D01*
G01*
X23388551Y-57080940D01*
G75*
G02*
X23388551Y-56939518I70711J70711D01*
G01*
G37*
G36*
G01*
X23742105Y-57293072D02*
X24767410Y-56267767D01*
G75*
G02*
X24908832Y-56267767I70711J-70711D01*
G01*
X25050253Y-56409188D01*
G75*
G02*
X25050253Y-56550610I-70711J-70711D01*
G01*
X24024948Y-57575915D01*
G75*
G02*
X23883526Y-57575915I-70711J70711D01*
G01*
X23742105Y-57434494D01*
G75*
G02*
X23742105Y-57293072I70711J70711D01*
G01*
G37*
G36*
G01*
X24095658Y-57646625D02*
X25120963Y-56621320D01*
G75*
G02*
X25262385Y-56621320I70711J-70711D01*
G01*
X25403806Y-56762741D01*
G75*
G02*
X25403806Y-56904163I-70711J-70711D01*
G01*
X24378501Y-57929468D01*
G75*
G02*
X24237079Y-57929468I-70711J70711D01*
G01*
X24095658Y-57788047D01*
G75*
G02*
X24095658Y-57646625I70711J70711D01*
G01*
G37*
G36*
G01*
X24449212Y-58000179D02*
X25474517Y-56974874D01*
G75*
G02*
X25615939Y-56974874I70711J-70711D01*
G01*
X25757360Y-57116295D01*
G75*
G02*
X25757360Y-57257717I-70711J-70711D01*
G01*
X24732055Y-58283022D01*
G75*
G02*
X24590633Y-58283022I-70711J70711D01*
G01*
X24449212Y-58141601D01*
G75*
G02*
X24449212Y-58000179I70711J70711D01*
G01*
G37*
G36*
G01*
X24802765Y-58353732D02*
X25828070Y-57328427D01*
G75*
G02*
X25969492Y-57328427I70711J-70711D01*
G01*
X26110913Y-57469848D01*
G75*
G02*
X26110913Y-57611270I-70711J-70711D01*
G01*
X25085608Y-58636575D01*
G75*
G02*
X24944186Y-58636575I-70711J70711D01*
G01*
X24802765Y-58495154D01*
G75*
G02*
X24802765Y-58353732I70711J70711D01*
G01*
G37*
G36*
G01*
X25156318Y-58707285D02*
X26181623Y-57681980D01*
G75*
G02*
X26323045Y-57681980I70711J-70711D01*
G01*
X26464466Y-57823401D01*
G75*
G02*
X26464466Y-57964823I-70711J-70711D01*
G01*
X25439161Y-58990128D01*
G75*
G02*
X25297739Y-58990128I-70711J70711D01*
G01*
X25156318Y-58848707D01*
G75*
G02*
X25156318Y-58707285I70711J70711D01*
G01*
G37*
G36*
G01*
X25509872Y-59060839D02*
X26535177Y-58035534D01*
G75*
G02*
X26676599Y-58035534I70711J-70711D01*
G01*
X26818020Y-58176955D01*
G75*
G02*
X26818020Y-58318377I-70711J-70711D01*
G01*
X25792715Y-59343682D01*
G75*
G02*
X25651293Y-59343682I-70711J70711D01*
G01*
X25509872Y-59202261D01*
G75*
G02*
X25509872Y-59060839I70711J70711D01*
G01*
G37*
G36*
G01*
X25863425Y-59414392D02*
X26888730Y-58389087D01*
G75*
G02*
X27030152Y-58389087I70711J-70711D01*
G01*
X27171573Y-58530508D01*
G75*
G02*
X27171573Y-58671930I-70711J-70711D01*
G01*
X26146268Y-59697235D01*
G75*
G02*
X26004846Y-59697235I-70711J70711D01*
G01*
X25863425Y-59555814D01*
G75*
G02*
X25863425Y-59414392I70711J70711D01*
G01*
G37*
G36*
G01*
X26216978Y-59767945D02*
X27242283Y-58742640D01*
G75*
G02*
X27383705Y-58742640I70711J-70711D01*
G01*
X27525126Y-58884061D01*
G75*
G02*
X27525126Y-59025483I-70711J-70711D01*
G01*
X26499821Y-60050788D01*
G75*
G02*
X26358399Y-60050788I-70711J70711D01*
G01*
X26216978Y-59909367D01*
G75*
G02*
X26216978Y-59767945I70711J70711D01*
G01*
G37*
G36*
G01*
X26570532Y-60121499D02*
X27595837Y-59096194D01*
G75*
G02*
X27737259Y-59096194I70711J-70711D01*
G01*
X27878680Y-59237615D01*
G75*
G02*
X27878680Y-59379037I-70711J-70711D01*
G01*
X26853375Y-60404342D01*
G75*
G02*
X26711953Y-60404342I-70711J70711D01*
G01*
X26570532Y-60262921D01*
G75*
G02*
X26570532Y-60121499I70711J70711D01*
G01*
G37*
G36*
G01*
X26924085Y-60475052D02*
X27949390Y-59449747D01*
G75*
G02*
X28090812Y-59449747I70711J-70711D01*
G01*
X28232233Y-59591168D01*
G75*
G02*
X28232233Y-59732590I-70711J-70711D01*
G01*
X27206928Y-60757895D01*
G75*
G02*
X27065506Y-60757895I-70711J70711D01*
G01*
X26924085Y-60616474D01*
G75*
G02*
X26924085Y-60475052I70711J70711D01*
G01*
G37*
G36*
G01*
X27277639Y-60828606D02*
X28302944Y-59803301D01*
G75*
G02*
X28444366Y-59803301I70711J-70711D01*
G01*
X28585787Y-59944722D01*
G75*
G02*
X28585787Y-60086144I-70711J-70711D01*
G01*
X27560482Y-61111449D01*
G75*
G02*
X27419060Y-61111449I-70711J70711D01*
G01*
X27277639Y-60970028D01*
G75*
G02*
X27277639Y-60828606I70711J70711D01*
G01*
G37*
G36*
G01*
X27631192Y-61182159D02*
X28656497Y-60156854D01*
G75*
G02*
X28797919Y-60156854I70711J-70711D01*
G01*
X28939340Y-60298275D01*
G75*
G02*
X28939340Y-60439697I-70711J-70711D01*
G01*
X27914035Y-61465002D01*
G75*
G02*
X27772613Y-61465002I-70711J70711D01*
G01*
X27631192Y-61323581D01*
G75*
G02*
X27631192Y-61182159I70711J70711D01*
G01*
G37*
G36*
G01*
X27984745Y-61535712D02*
X29010050Y-60510407D01*
G75*
G02*
X29151472Y-60510407I70711J-70711D01*
G01*
X29292893Y-60651828D01*
G75*
G02*
X29292893Y-60793250I-70711J-70711D01*
G01*
X28267588Y-61818555D01*
G75*
G02*
X28126166Y-61818555I-70711J70711D01*
G01*
X27984745Y-61677134D01*
G75*
G02*
X27984745Y-61535712I70711J70711D01*
G01*
G37*
G36*
G01*
X30707107Y-60651829D02*
X30848528Y-60510407D01*
G75*
G02*
X30989950Y-60510407I70711J-70711D01*
G01*
X32015255Y-61535712D01*
G75*
G02*
X32015255Y-61677134I-70711J-70711D01*
G01*
X31873834Y-61818555D01*
G75*
G02*
X31732412Y-61818555I-70711J70711D01*
G01*
X30707107Y-60793250D01*
G75*
G02*
X30707107Y-60651828I70711J70711D01*
G01*
G37*
G36*
G01*
X31060660Y-60298276D02*
X31202081Y-60156854D01*
G75*
G02*
X31343503Y-60156854I70711J-70711D01*
G01*
X32368808Y-61182159D01*
G75*
G02*
X32368808Y-61323581I-70711J-70711D01*
G01*
X32227387Y-61465002D01*
G75*
G02*
X32085965Y-61465002I-70711J70711D01*
G01*
X31060660Y-60439697D01*
G75*
G02*
X31060660Y-60298275I70711J70711D01*
G01*
G37*
G36*
G01*
X31414213Y-59944723D02*
X31555634Y-59803301D01*
G75*
G02*
X31697056Y-59803301I70711J-70711D01*
G01*
X32722361Y-60828606D01*
G75*
G02*
X32722361Y-60970028I-70711J-70711D01*
G01*
X32580940Y-61111449D01*
G75*
G02*
X32439518Y-61111449I-70711J70711D01*
G01*
X31414213Y-60086144D01*
G75*
G02*
X31414213Y-59944722I70711J70711D01*
G01*
G37*
G36*
G01*
X31767767Y-59591169D02*
X31909188Y-59449747D01*
G75*
G02*
X32050610Y-59449747I70711J-70711D01*
G01*
X33075915Y-60475052D01*
G75*
G02*
X33075915Y-60616474I-70711J-70711D01*
G01*
X32934494Y-60757895D01*
G75*
G02*
X32793072Y-60757895I-70711J70711D01*
G01*
X31767767Y-59732590D01*
G75*
G02*
X31767767Y-59591168I70711J70711D01*
G01*
G37*
G36*
G01*
X32121320Y-59237616D02*
X32262741Y-59096194D01*
G75*
G02*
X32404163Y-59096194I70711J-70711D01*
G01*
X33429468Y-60121499D01*
G75*
G02*
X33429468Y-60262921I-70711J-70711D01*
G01*
X33288047Y-60404342D01*
G75*
G02*
X33146625Y-60404342I-70711J70711D01*
G01*
X32121320Y-59379037D01*
G75*
G02*
X32121320Y-59237615I70711J70711D01*
G01*
G37*
G36*
G01*
X32474874Y-58884062D02*
X32616295Y-58742640D01*
G75*
G02*
X32757717Y-58742640I70711J-70711D01*
G01*
X33783022Y-59767945D01*
G75*
G02*
X33783022Y-59909367I-70711J-70711D01*
G01*
X33641601Y-60050788D01*
G75*
G02*
X33500179Y-60050788I-70711J70711D01*
G01*
X32474874Y-59025483D01*
G75*
G02*
X32474874Y-58884061I70711J70711D01*
G01*
G37*
G36*
G01*
X32828427Y-58530509D02*
X32969848Y-58389087D01*
G75*
G02*
X33111270Y-58389087I70711J-70711D01*
G01*
X34136575Y-59414392D01*
G75*
G02*
X34136575Y-59555814I-70711J-70711D01*
G01*
X33995154Y-59697235D01*
G75*
G02*
X33853732Y-59697235I-70711J70711D01*
G01*
X32828427Y-58671930D01*
G75*
G02*
X32828427Y-58530508I70711J70711D01*
G01*
G37*
G36*
G01*
X33181980Y-58176956D02*
X33323401Y-58035534D01*
G75*
G02*
X33464823Y-58035534I70711J-70711D01*
G01*
X34490128Y-59060839D01*
G75*
G02*
X34490128Y-59202261I-70711J-70711D01*
G01*
X34348707Y-59343682D01*
G75*
G02*
X34207285Y-59343682I-70711J70711D01*
G01*
X33181980Y-58318377D01*
G75*
G02*
X33181980Y-58176955I70711J70711D01*
G01*
G37*
G36*
G01*
X33535534Y-57823402D02*
X33676955Y-57681980D01*
G75*
G02*
X33818377Y-57681980I70711J-70711D01*
G01*
X34843682Y-58707285D01*
G75*
G02*
X34843682Y-58848707I-70711J-70711D01*
G01*
X34702261Y-58990128D01*
G75*
G02*
X34560839Y-58990128I-70711J70711D01*
G01*
X33535534Y-57964823D01*
G75*
G02*
X33535534Y-57823401I70711J70711D01*
G01*
G37*
G36*
G01*
X33889087Y-57469849D02*
X34030508Y-57328427D01*
G75*
G02*
X34171930Y-57328427I70711J-70711D01*
G01*
X35197235Y-58353732D01*
G75*
G02*
X35197235Y-58495154I-70711J-70711D01*
G01*
X35055814Y-58636575D01*
G75*
G02*
X34914392Y-58636575I-70711J70711D01*
G01*
X33889087Y-57611270D01*
G75*
G02*
X33889087Y-57469848I70711J70711D01*
G01*
G37*
G36*
G01*
X34242640Y-57116296D02*
X34384061Y-56974874D01*
G75*
G02*
X34525483Y-56974874I70711J-70711D01*
G01*
X35550788Y-58000179D01*
G75*
G02*
X35550788Y-58141601I-70711J-70711D01*
G01*
X35409367Y-58283022D01*
G75*
G02*
X35267945Y-58283022I-70711J70711D01*
G01*
X34242640Y-57257717D01*
G75*
G02*
X34242640Y-57116295I70711J70711D01*
G01*
G37*
G36*
G01*
X34596194Y-56762742D02*
X34737615Y-56621320D01*
G75*
G02*
X34879037Y-56621320I70711J-70711D01*
G01*
X35904342Y-57646625D01*
G75*
G02*
X35904342Y-57788047I-70711J-70711D01*
G01*
X35762921Y-57929468D01*
G75*
G02*
X35621499Y-57929468I-70711J70711D01*
G01*
X34596194Y-56904163D01*
G75*
G02*
X34596194Y-56762741I70711J70711D01*
G01*
G37*
G36*
G01*
X34949747Y-56409189D02*
X35091168Y-56267767D01*
G75*
G02*
X35232590Y-56267767I70711J-70711D01*
G01*
X36257895Y-57293072D01*
G75*
G02*
X36257895Y-57434494I-70711J-70711D01*
G01*
X36116474Y-57575915D01*
G75*
G02*
X35975052Y-57575915I-70711J70711D01*
G01*
X34949747Y-56550610D01*
G75*
G02*
X34949747Y-56409188I70711J70711D01*
G01*
G37*
G36*
G01*
X35303301Y-56055635D02*
X35444722Y-55914213D01*
G75*
G02*
X35586144Y-55914213I70711J-70711D01*
G01*
X36611449Y-56939518D01*
G75*
G02*
X36611449Y-57080940I-70711J-70711D01*
G01*
X36470028Y-57222361D01*
G75*
G02*
X36328606Y-57222361I-70711J70711D01*
G01*
X35303301Y-56197056D01*
G75*
G02*
X35303301Y-56055634I70711J70711D01*
G01*
G37*
G36*
G01*
X35656854Y-55702082D02*
X35798275Y-55560660D01*
G75*
G02*
X35939697Y-55560660I70711J-70711D01*
G01*
X36965002Y-56585965D01*
G75*
G02*
X36965002Y-56727387I-70711J-70711D01*
G01*
X36823581Y-56868808D01*
G75*
G02*
X36682159Y-56868808I-70711J70711D01*
G01*
X35656854Y-55843503D01*
G75*
G02*
X35656854Y-55702081I70711J70711D01*
G01*
G37*
G36*
G01*
X36010407Y-55348529D02*
X36151828Y-55207107D01*
G75*
G02*
X36293250Y-55207107I70711J-70711D01*
G01*
X37318555Y-56232412D01*
G75*
G02*
X37318555Y-56373834I-70711J-70711D01*
G01*
X37177134Y-56515255D01*
G75*
G02*
X37035712Y-56515255I-70711J70711D01*
G01*
X36010407Y-55489950D01*
G75*
G02*
X36010407Y-55348528I70711J70711D01*
G01*
G37*
G36*
G01*
X36010407Y-53510050D02*
X37035712Y-52484745D01*
G75*
G02*
X37177134Y-52484745I70711J-70711D01*
G01*
X37318555Y-52626166D01*
G75*
G02*
X37318555Y-52767588I-70711J-70711D01*
G01*
X36293250Y-53792893D01*
G75*
G02*
X36151828Y-53792893I-70711J70711D01*
G01*
X36010407Y-53651472D01*
G75*
G02*
X36010407Y-53510050I70711J70711D01*
G01*
G37*
G36*
G01*
X35656854Y-53156497D02*
X36682159Y-52131192D01*
G75*
G02*
X36823581Y-52131192I70711J-70711D01*
G01*
X36965002Y-52272613D01*
G75*
G02*
X36965002Y-52414035I-70711J-70711D01*
G01*
X35939697Y-53439340D01*
G75*
G02*
X35798275Y-53439340I-70711J70711D01*
G01*
X35656854Y-53297919D01*
G75*
G02*
X35656854Y-53156497I70711J70711D01*
G01*
G37*
G36*
G01*
X35303301Y-52802944D02*
X36328606Y-51777639D01*
G75*
G02*
X36470028Y-51777639I70711J-70711D01*
G01*
X36611449Y-51919060D01*
G75*
G02*
X36611449Y-52060482I-70711J-70711D01*
G01*
X35586144Y-53085787D01*
G75*
G02*
X35444722Y-53085787I-70711J70711D01*
G01*
X35303301Y-52944366D01*
G75*
G02*
X35303301Y-52802944I70711J70711D01*
G01*
G37*
G36*
G01*
X34949747Y-52449390D02*
X35975052Y-51424085D01*
G75*
G02*
X36116474Y-51424085I70711J-70711D01*
G01*
X36257895Y-51565506D01*
G75*
G02*
X36257895Y-51706928I-70711J-70711D01*
G01*
X35232590Y-52732233D01*
G75*
G02*
X35091168Y-52732233I-70711J70711D01*
G01*
X34949747Y-52590812D01*
G75*
G02*
X34949747Y-52449390I70711J70711D01*
G01*
G37*
G36*
G01*
X34596194Y-52095837D02*
X35621499Y-51070532D01*
G75*
G02*
X35762921Y-51070532I70711J-70711D01*
G01*
X35904342Y-51211953D01*
G75*
G02*
X35904342Y-51353375I-70711J-70711D01*
G01*
X34879037Y-52378680D01*
G75*
G02*
X34737615Y-52378680I-70711J70711D01*
G01*
X34596194Y-52237259D01*
G75*
G02*
X34596194Y-52095837I70711J70711D01*
G01*
G37*
G36*
G01*
X34242640Y-51742283D02*
X35267945Y-50716978D01*
G75*
G02*
X35409367Y-50716978I70711J-70711D01*
G01*
X35550788Y-50858399D01*
G75*
G02*
X35550788Y-50999821I-70711J-70711D01*
G01*
X34525483Y-52025126D01*
G75*
G02*
X34384061Y-52025126I-70711J70711D01*
G01*
X34242640Y-51883705D01*
G75*
G02*
X34242640Y-51742283I70711J70711D01*
G01*
G37*
G36*
G01*
X33889087Y-51388730D02*
X34914392Y-50363425D01*
G75*
G02*
X35055814Y-50363425I70711J-70711D01*
G01*
X35197235Y-50504846D01*
G75*
G02*
X35197235Y-50646268I-70711J-70711D01*
G01*
X34171930Y-51671573D01*
G75*
G02*
X34030508Y-51671573I-70711J70711D01*
G01*
X33889087Y-51530152D01*
G75*
G02*
X33889087Y-51388730I70711J70711D01*
G01*
G37*
G36*
G01*
X33535534Y-51035177D02*
X34560839Y-50009872D01*
G75*
G02*
X34702261Y-50009872I70711J-70711D01*
G01*
X34843682Y-50151293D01*
G75*
G02*
X34843682Y-50292715I-70711J-70711D01*
G01*
X33818377Y-51318020D01*
G75*
G02*
X33676955Y-51318020I-70711J70711D01*
G01*
X33535534Y-51176599D01*
G75*
G02*
X33535534Y-51035177I70711J70711D01*
G01*
G37*
G36*
G01*
X33181980Y-50681623D02*
X34207285Y-49656318D01*
G75*
G02*
X34348707Y-49656318I70711J-70711D01*
G01*
X34490128Y-49797739D01*
G75*
G02*
X34490128Y-49939161I-70711J-70711D01*
G01*
X33464823Y-50964466D01*
G75*
G02*
X33323401Y-50964466I-70711J70711D01*
G01*
X33181980Y-50823045D01*
G75*
G02*
X33181980Y-50681623I70711J70711D01*
G01*
G37*
G36*
G01*
X32828427Y-50328070D02*
X33853732Y-49302765D01*
G75*
G02*
X33995154Y-49302765I70711J-70711D01*
G01*
X34136575Y-49444186D01*
G75*
G02*
X34136575Y-49585608I-70711J-70711D01*
G01*
X33111270Y-50610913D01*
G75*
G02*
X32969848Y-50610913I-70711J70711D01*
G01*
X32828427Y-50469492D01*
G75*
G02*
X32828427Y-50328070I70711J70711D01*
G01*
G37*
G36*
G01*
X32474874Y-49974517D02*
X33500179Y-48949212D01*
G75*
G02*
X33641601Y-48949212I70711J-70711D01*
G01*
X33783022Y-49090633D01*
G75*
G02*
X33783022Y-49232055I-70711J-70711D01*
G01*
X32757717Y-50257360D01*
G75*
G02*
X32616295Y-50257360I-70711J70711D01*
G01*
X32474874Y-50115939D01*
G75*
G02*
X32474874Y-49974517I70711J70711D01*
G01*
G37*
G36*
G01*
X32121320Y-49620963D02*
X33146625Y-48595658D01*
G75*
G02*
X33288047Y-48595658I70711J-70711D01*
G01*
X33429468Y-48737079D01*
G75*
G02*
X33429468Y-48878501I-70711J-70711D01*
G01*
X32404163Y-49903806D01*
G75*
G02*
X32262741Y-49903806I-70711J70711D01*
G01*
X32121320Y-49762385D01*
G75*
G02*
X32121320Y-49620963I70711J70711D01*
G01*
G37*
G36*
G01*
X31767767Y-49267410D02*
X32793072Y-48242105D01*
G75*
G02*
X32934494Y-48242105I70711J-70711D01*
G01*
X33075915Y-48383526D01*
G75*
G02*
X33075915Y-48524948I-70711J-70711D01*
G01*
X32050610Y-49550253D01*
G75*
G02*
X31909188Y-49550253I-70711J70711D01*
G01*
X31767767Y-49408832D01*
G75*
G02*
X31767767Y-49267410I70711J70711D01*
G01*
G37*
G36*
G01*
X31414213Y-48913856D02*
X32439518Y-47888551D01*
G75*
G02*
X32580940Y-47888551I70711J-70711D01*
G01*
X32722361Y-48029972D01*
G75*
G02*
X32722361Y-48171394I-70711J-70711D01*
G01*
X31697056Y-49196699D01*
G75*
G02*
X31555634Y-49196699I-70711J70711D01*
G01*
X31414213Y-49055278D01*
G75*
G02*
X31414213Y-48913856I70711J70711D01*
G01*
G37*
G36*
G01*
X31060660Y-48560303D02*
X32085965Y-47534998D01*
G75*
G02*
X32227387Y-47534998I70711J-70711D01*
G01*
X32368808Y-47676419D01*
G75*
G02*
X32368808Y-47817841I-70711J-70711D01*
G01*
X31343503Y-48843146D01*
G75*
G02*
X31202081Y-48843146I-70711J70711D01*
G01*
X31060660Y-48701725D01*
G75*
G02*
X31060660Y-48560303I70711J70711D01*
G01*
G37*
G36*
G01*
X30707107Y-48206750D02*
X31732412Y-47181445D01*
G75*
G02*
X31873834Y-47181445I70711J-70711D01*
G01*
X32015255Y-47322866D01*
G75*
G02*
X32015255Y-47464288I-70711J-70711D01*
G01*
X30989950Y-48489593D01*
G75*
G02*
X30848528Y-48489593I-70711J70711D01*
G01*
X30707107Y-48348172D01*
G75*
G02*
X30707107Y-48206750I70711J70711D01*
G01*
G37*
G36*
G01*
X25689625Y-61289433D02*
X26087373Y-60891686D01*
G75*
G02*
X26432087Y-60891686I172357J-172357D01*
G01*
X26776801Y-61236400D01*
G75*
G02*
X26776801Y-61581114I-172357J-172357D01*
G01*
X26379053Y-61978862D01*
G75*
G02*
X26034339Y-61978862I-172357J172357D01*
G01*
X25689625Y-61634148D01*
G75*
G02*
X25689625Y-61289434I172357J172357D01*
G01*
G37*
G36*
G01*
X26803319Y-62403127D02*
X27201067Y-62005380D01*
G75*
G02*
X27545781Y-62005380I172357J-172357D01*
G01*
X27890495Y-62350094D01*
G75*
G02*
X27890495Y-62694808I-172357J-172357D01*
G01*
X27492747Y-63092556D01*
G75*
G02*
X27148033Y-63092556I-172357J172357D01*
G01*
X26803319Y-62747842D01*
G75*
G02*
X26803319Y-62403128I172357J172357D01*
G01*
G37*
G36*
G01*
X38800000Y-72781250D02*
X38800000Y-72218750D01*
G75*
G02*
X39043750Y-71975000I243750J0D01*
G01*
X39531250Y-71975000D01*
G75*
G02*
X39775000Y-72218750I0J-243750D01*
G01*
X39775000Y-72781250D01*
G75*
G02*
X39531250Y-73025000I-243750J0D01*
G01*
X39043750Y-73025000D01*
G75*
G02*
X38800000Y-72781250I0J243750D01*
G01*
G37*
G36*
G01*
X37225000Y-72781250D02*
X37225000Y-72218750D01*
G75*
G02*
X37468750Y-71975000I243750J0D01*
G01*
X37956250Y-71975000D01*
G75*
G02*
X38200000Y-72218750I0J-243750D01*
G01*
X38200000Y-72781250D01*
G75*
G02*
X37956250Y-73025000I-243750J0D01*
G01*
X37468750Y-73025000D01*
G75*
G02*
X37225000Y-72781250I0J243750D01*
G01*
G37*
G36*
G01*
X42218750Y-68225000D02*
X42781250Y-68225000D01*
G75*
G02*
X43025000Y-68468750I0J-243750D01*
G01*
X43025000Y-68956250D01*
G75*
G02*
X42781250Y-69200000I-243750J0D01*
G01*
X42218750Y-69200000D01*
G75*
G02*
X41975000Y-68956250I0J243750D01*
G01*
X41975000Y-68468750D01*
G75*
G02*
X42218750Y-68225000I243750J0D01*
G01*
G37*
G36*
G01*
X42218750Y-69800000D02*
X42781250Y-69800000D01*
G75*
G02*
X43025000Y-70043750I0J-243750D01*
G01*
X43025000Y-70531250D01*
G75*
G02*
X42781250Y-70775000I-243750J0D01*
G01*
X42218750Y-70775000D01*
G75*
G02*
X41975000Y-70531250I0J243750D01*
G01*
X41975000Y-70043750D01*
G75*
G02*
X42218750Y-69800000I243750J0D01*
G01*
G37*
G36*
G01*
X19718750Y-37725000D02*
X20281250Y-37725000D01*
G75*
G02*
X20525000Y-37968750I0J-243750D01*
G01*
X20525000Y-38456250D01*
G75*
G02*
X20281250Y-38700000I-243750J0D01*
G01*
X19718750Y-38700000D01*
G75*
G02*
X19475000Y-38456250I0J243750D01*
G01*
X19475000Y-37968750D01*
G75*
G02*
X19718750Y-37725000I243750J0D01*
G01*
G37*
G36*
G01*
X19718750Y-39300000D02*
X20281250Y-39300000D01*
G75*
G02*
X20525000Y-39543750I0J-243750D01*
G01*
X20525000Y-40031250D01*
G75*
G02*
X20281250Y-40275000I-243750J0D01*
G01*
X19718750Y-40275000D01*
G75*
G02*
X19475000Y-40031250I0J243750D01*
G01*
X19475000Y-39543750D01*
G75*
G02*
X19718750Y-39300000I243750J0D01*
G01*
G37*
G36*
G01*
X17775000Y-43218750D02*
X17775000Y-43781250D01*
G75*
G02*
X17531250Y-44025000I-243750J0D01*
G01*
X17043750Y-44025000D01*
G75*
G02*
X16800000Y-43781250I0J243750D01*
G01*
X16800000Y-43218750D01*
G75*
G02*
X17043750Y-42975000I243750J0D01*
G01*
X17531250Y-42975000D01*
G75*
G02*
X17775000Y-43218750I0J-243750D01*
G01*
G37*
G36*
G01*
X16200000Y-43218750D02*
X16200000Y-43781250D01*
G75*
G02*
X15956250Y-44025000I-243750J0D01*
G01*
X15468750Y-44025000D01*
G75*
G02*
X15225000Y-43781250I0J243750D01*
G01*
X15225000Y-43218750D01*
G75*
G02*
X15468750Y-42975000I243750J0D01*
G01*
X15956250Y-42975000D01*
G75*
G02*
X16200000Y-43218750I0J-243750D01*
G01*
G37*
G36*
G01*
X30300000Y-43781250D02*
X30300000Y-43218750D01*
G75*
G02*
X30543750Y-42975000I243750J0D01*
G01*
X31031250Y-42975000D01*
G75*
G02*
X31275000Y-43218750I0J-243750D01*
G01*
X31275000Y-43781250D01*
G75*
G02*
X31031250Y-44025000I-243750J0D01*
G01*
X30543750Y-44025000D01*
G75*
G02*
X30300000Y-43781250I0J243750D01*
G01*
G37*
G36*
G01*
X28725000Y-43781250D02*
X28725000Y-43218750D01*
G75*
G02*
X28968750Y-42975000I243750J0D01*
G01*
X29456250Y-42975000D01*
G75*
G02*
X29700000Y-43218750I0J-243750D01*
G01*
X29700000Y-43781250D01*
G75*
G02*
X29456250Y-44025000I-243750J0D01*
G01*
X28968750Y-44025000D01*
G75*
G02*
X28725000Y-43781250I0J243750D01*
G01*
G37*
G36*
G01*
X44225000Y-70281250D02*
X44225000Y-69718750D01*
G75*
G02*
X44468750Y-69475000I243750J0D01*
G01*
X44956250Y-69475000D01*
G75*
G02*
X45200000Y-69718750I0J-243750D01*
G01*
X45200000Y-70281250D01*
G75*
G02*
X44956250Y-70525000I-243750J0D01*
G01*
X44468750Y-70525000D01*
G75*
G02*
X44225000Y-70281250I0J243750D01*
G01*
G37*
G36*
G01*
X45800000Y-70281250D02*
X45800000Y-69718750D01*
G75*
G02*
X46043750Y-69475000I243750J0D01*
G01*
X46531250Y-69475000D01*
G75*
G02*
X46775000Y-69718750I0J-243750D01*
G01*
X46775000Y-70281250D01*
G75*
G02*
X46531250Y-70525000I-243750J0D01*
G01*
X46043750Y-70525000D01*
G75*
G02*
X45800000Y-70281250I0J243750D01*
G01*
G37*
G36*
G01*
X34525000Y-66718750D02*
X34525000Y-67281250D01*
G75*
G02*
X34281250Y-67525000I-243750J0D01*
G01*
X33793750Y-67525000D01*
G75*
G02*
X33550000Y-67281250I0J243750D01*
G01*
X33550000Y-66718750D01*
G75*
G02*
X33793750Y-66475000I243750J0D01*
G01*
X34281250Y-66475000D01*
G75*
G02*
X34525000Y-66718750I0J-243750D01*
G01*
G37*
G36*
G01*
X32950000Y-66718750D02*
X32950000Y-67281250D01*
G75*
G02*
X32706250Y-67525000I-243750J0D01*
G01*
X32218750Y-67525000D01*
G75*
G02*
X31975000Y-67281250I0J243750D01*
G01*
X31975000Y-66718750D01*
G75*
G02*
X32218750Y-66475000I243750J0D01*
G01*
X32706250Y-66475000D01*
G75*
G02*
X32950000Y-66718750I0J-243750D01*
G01*
G37*
D20*
X31300000Y-69575000D03*
X30650000Y-69575000D03*
X30000000Y-69575000D03*
X29350000Y-69575000D03*
X28700000Y-69575000D03*
D19*
X26700000Y-69900000D03*
X33300000Y-69900000D03*
D18*
X25900000Y-72250000D03*
X34100000Y-72250000D03*
D17*
X29150000Y-72250000D03*
X30850000Y-72250000D03*
G36*
G01*
X44345832Y-39850000D02*
X45654168Y-39850000D01*
G75*
G02*
X45925000Y-40120832I0J-270832D01*
G01*
X45925000Y-40879168D01*
G75*
G02*
X45654168Y-41150000I-270832J0D01*
G01*
X44345832Y-41150000D01*
G75*
G02*
X44075000Y-40879168I0J270832D01*
G01*
X44075000Y-40120832D01*
G75*
G02*
X44345832Y-39850000I270832J0D01*
G01*
G37*
D14*
X45000000Y-42500000D03*
X45000000Y-44500000D03*
D13*
X26180000Y-38460000D03*
D12*
X28720000Y-38460000D03*
X31260000Y-38460000D03*
X33800000Y-38460000D03*
G36*
G01*
X26350000Y-33154168D02*
X26350000Y-31845832D01*
G75*
G02*
X26620832Y-31575000I270832J0D01*
G01*
X27379168Y-31575000D01*
G75*
G02*
X27650000Y-31845832I0J-270832D01*
G01*
X27650000Y-33154168D01*
G75*
G02*
X27379168Y-33425000I-270832J0D01*
G01*
X26620832Y-33425000D01*
G75*
G02*
X26350000Y-33154168I0J270832D01*
G01*
G37*
D23*
X29000000Y-32500000D03*
X31000000Y-32500000D03*
X33000000Y-32500000D03*
D13*
X17500000Y-46500000D03*
D12*
X14960000Y-46500000D03*
D13*
X40000000Y-31000000D03*
D12*
X40000000Y-28460000D03*
X20000000Y-28460000D03*
D13*
X20000000Y-31000000D03*
G36*
G01*
X33494315Y-47085426D02*
X33096567Y-47483173D01*
G75*
G02*
X32751853Y-47483173I-172357J172357D01*
G01*
X32407139Y-47138459D01*
G75*
G02*
X32407139Y-46793745I172357J172357D01*
G01*
X32804887Y-46395997D01*
G75*
G02*
X33149601Y-46395997I172357J-172357D01*
G01*
X33494315Y-46740711D01*
G75*
G02*
X33494315Y-47085425I-172357J-172357D01*
G01*
G37*
G36*
G01*
X34608009Y-48199120D02*
X34210261Y-48596867D01*
G75*
G02*
X33865547Y-48596867I-172357J172357D01*
G01*
X33520833Y-48252153D01*
G75*
G02*
X33520833Y-47907439I172357J172357D01*
G01*
X33918581Y-47509691D01*
G75*
G02*
X34263295Y-47509691I172357J-172357D01*
G01*
X34608009Y-47854405D01*
G75*
G02*
X34608009Y-48199119I-172357J-172357D01*
G01*
G37*
G36*
G01*
X25671947Y-47863245D02*
X26069694Y-48260993D01*
G75*
G02*
X26069694Y-48605707I-172357J-172357D01*
G01*
X25724980Y-48950421D01*
G75*
G02*
X25380266Y-48950421I-172357J172357D01*
G01*
X24982518Y-48552673D01*
G75*
G02*
X24982518Y-48207959I172357J172357D01*
G01*
X25327232Y-47863245D01*
G75*
G02*
X25671946Y-47863245I172357J-172357D01*
G01*
G37*
G36*
G01*
X26785641Y-46749551D02*
X27183388Y-47147299D01*
G75*
G02*
X27183388Y-47492013I-172357J-172357D01*
G01*
X26838674Y-47836727D01*
G75*
G02*
X26493960Y-47836727I-172357J172357D01*
G01*
X26096212Y-47438979D01*
G75*
G02*
X26096212Y-47094265I172357J172357D01*
G01*
X26440926Y-46749551D01*
G75*
G02*
X26785640Y-46749551I172357J-172357D01*
G01*
G37*
G36*
G01*
X35686347Y-59857542D02*
X35288600Y-59459794D01*
G75*
G02*
X35288600Y-59115080I172357J172357D01*
G01*
X35633314Y-58770366D01*
G75*
G02*
X35978028Y-58770366I172357J-172357D01*
G01*
X36375776Y-59168114D01*
G75*
G02*
X36375776Y-59512828I-172357J-172357D01*
G01*
X36031062Y-59857542D01*
G75*
G02*
X35686348Y-59857542I-172357J172357D01*
G01*
G37*
G36*
G01*
X34572653Y-60971236D02*
X34174906Y-60573488D01*
G75*
G02*
X34174906Y-60228774I172357J172357D01*
G01*
X34519620Y-59884060D01*
G75*
G02*
X34864334Y-59884060I172357J-172357D01*
G01*
X35262082Y-60281808D01*
G75*
G02*
X35262082Y-60626522I-172357J-172357D01*
G01*
X34917368Y-60971236D01*
G75*
G02*
X34572654Y-60971236I-172357J172357D01*
G01*
G37*
G36*
G01*
X40781250Y-40200000D02*
X40218750Y-40200000D01*
G75*
G02*
X39975000Y-39956250I0J243750D01*
G01*
X39975000Y-39468750D01*
G75*
G02*
X40218750Y-39225000I243750J0D01*
G01*
X40781250Y-39225000D01*
G75*
G02*
X41025000Y-39468750I0J-243750D01*
G01*
X41025000Y-39956250D01*
G75*
G02*
X40781250Y-40200000I-243750J0D01*
G01*
G37*
G36*
G01*
X40781250Y-41775000D02*
X40218750Y-41775000D01*
G75*
G02*
X39975000Y-41531250I0J243750D01*
G01*
X39975000Y-41043750D01*
G75*
G02*
X40218750Y-40800000I243750J0D01*
G01*
X40781250Y-40800000D01*
G75*
G02*
X41025000Y-41043750I0J-243750D01*
G01*
X41025000Y-41531250D01*
G75*
G02*
X40781250Y-41775000I-243750J0D01*
G01*
G37*
G36*
G01*
X40781250Y-44200000D02*
X40218750Y-44200000D01*
G75*
G02*
X39975000Y-43956250I0J243750D01*
G01*
X39975000Y-43468750D01*
G75*
G02*
X40218750Y-43225000I243750J0D01*
G01*
X40781250Y-43225000D01*
G75*
G02*
X41025000Y-43468750I0J-243750D01*
G01*
X41025000Y-43956250D01*
G75*
G02*
X40781250Y-44200000I-243750J0D01*
G01*
G37*
G36*
G01*
X40781250Y-45775000D02*
X40218750Y-45775000D01*
G75*
G02*
X39975000Y-45531250I0J243750D01*
G01*
X39975000Y-45043750D01*
G75*
G02*
X40218750Y-44800000I243750J0D01*
G01*
X40781250Y-44800000D01*
G75*
G02*
X41025000Y-45043750I0J-243750D01*
G01*
X41025000Y-45531250D01*
G75*
G02*
X40781250Y-45775000I-243750J0D01*
G01*
G37*
G36*
G01*
X20781250Y-47200000D02*
X20218750Y-47200000D01*
G75*
G02*
X19975000Y-46956250I0J243750D01*
G01*
X19975000Y-46468750D01*
G75*
G02*
X20218750Y-46225000I243750J0D01*
G01*
X20781250Y-46225000D01*
G75*
G02*
X21025000Y-46468750I0J-243750D01*
G01*
X21025000Y-46956250D01*
G75*
G02*
X20781250Y-47200000I-243750J0D01*
G01*
G37*
G36*
G01*
X20781250Y-48775000D02*
X20218750Y-48775000D01*
G75*
G02*
X19975000Y-48531250I0J243750D01*
G01*
X19975000Y-48043750D01*
G75*
G02*
X20218750Y-47800000I243750J0D01*
G01*
X20781250Y-47800000D01*
G75*
G02*
X21025000Y-48043750I0J-243750D01*
G01*
X21025000Y-48531250D01*
G75*
G02*
X20781250Y-48775000I-243750J0D01*
G01*
G37*
G36*
G01*
X14218750Y-33800000D02*
X14781250Y-33800000D01*
G75*
G02*
X15025000Y-34043750I0J-243750D01*
G01*
X15025000Y-34531250D01*
G75*
G02*
X14781250Y-34775000I-243750J0D01*
G01*
X14218750Y-34775000D01*
G75*
G02*
X13975000Y-34531250I0J243750D01*
G01*
X13975000Y-34043750D01*
G75*
G02*
X14218750Y-33800000I243750J0D01*
G01*
G37*
G36*
G01*
X14218750Y-32225000D02*
X14781250Y-32225000D01*
G75*
G02*
X15025000Y-32468750I0J-243750D01*
G01*
X15025000Y-32956250D01*
G75*
G02*
X14781250Y-33200000I-243750J0D01*
G01*
X14218750Y-33200000D01*
G75*
G02*
X13975000Y-32956250I0J243750D01*
G01*
X13975000Y-32468750D01*
G75*
G02*
X14218750Y-32225000I243750J0D01*
G01*
G37*
G36*
G01*
X31275000Y-41718750D02*
X31275000Y-42281250D01*
G75*
G02*
X31031250Y-42525000I-243750J0D01*
G01*
X30543750Y-42525000D01*
G75*
G02*
X30300000Y-42281250I0J243750D01*
G01*
X30300000Y-41718750D01*
G75*
G02*
X30543750Y-41475000I243750J0D01*
G01*
X31031250Y-41475000D01*
G75*
G02*
X31275000Y-41718750I0J-243750D01*
G01*
G37*
G36*
G01*
X29700000Y-41718750D02*
X29700000Y-42281250D01*
G75*
G02*
X29456250Y-42525000I-243750J0D01*
G01*
X28968750Y-42525000D01*
G75*
G02*
X28725000Y-42281250I0J243750D01*
G01*
X28725000Y-41718750D01*
G75*
G02*
X28968750Y-41475000I243750J0D01*
G01*
X29456250Y-41475000D01*
G75*
G02*
X29700000Y-41718750I0J-243750D01*
G01*
G37*
G36*
G01*
X45200000Y-67718750D02*
X45200000Y-68281250D01*
G75*
G02*
X44956250Y-68525000I-243750J0D01*
G01*
X44468750Y-68525000D01*
G75*
G02*
X44225000Y-68281250I0J243750D01*
G01*
X44225000Y-67718750D01*
G75*
G02*
X44468750Y-67475000I243750J0D01*
G01*
X44956250Y-67475000D01*
G75*
G02*
X45200000Y-67718750I0J-243750D01*
G01*
G37*
G36*
G01*
X46775000Y-67718750D02*
X46775000Y-68281250D01*
G75*
G02*
X46531250Y-68525000I-243750J0D01*
G01*
X46043750Y-68525000D01*
G75*
G02*
X45800000Y-68281250I0J243750D01*
G01*
X45800000Y-67718750D01*
G75*
G02*
X46043750Y-67475000I243750J0D01*
G01*
X46531250Y-67475000D01*
G75*
G02*
X46775000Y-67718750I0J-243750D01*
G01*
G37*
G36*
G01*
X36718750Y-30225000D02*
X37281250Y-30225000D01*
G75*
G02*
X37525000Y-30468750I0J-243750D01*
G01*
X37525000Y-30956250D01*
G75*
G02*
X37281250Y-31200000I-243750J0D01*
G01*
X36718750Y-31200000D01*
G75*
G02*
X36475000Y-30956250I0J243750D01*
G01*
X36475000Y-30468750D01*
G75*
G02*
X36718750Y-30225000I243750J0D01*
G01*
G37*
G36*
G01*
X36718750Y-31800000D02*
X37281250Y-31800000D01*
G75*
G02*
X37525000Y-32043750I0J-243750D01*
G01*
X37525000Y-32531250D01*
G75*
G02*
X37281250Y-32775000I-243750J0D01*
G01*
X36718750Y-32775000D01*
G75*
G02*
X36475000Y-32531250I0J243750D01*
G01*
X36475000Y-32043750D01*
G75*
G02*
X36718750Y-31800000I243750J0D01*
G01*
G37*
D25*
X40925000Y-51425000D03*
X45075000Y-51425000D03*
X40925000Y-53575000D03*
X45075000Y-53575000D03*
D24*
X46312000Y-63405000D03*
X46312000Y-62135000D03*
X46312000Y-60865000D03*
X46312000Y-59595000D03*
X38688000Y-59595000D03*
X38688000Y-60865000D03*
X38688000Y-62135000D03*
X38688000Y-63405000D03*
D21*
X30000000Y-28000000D03*
X34000000Y-28000000D03*
X26000000Y-28000000D03*
X45000000Y-29500000D03*
G36*
G01*
X14770000Y-42500000D02*
X14420000Y-42500000D01*
G75*
G02*
X14245000Y-42325000I0J175000D01*
G01*
X14245000Y-40625000D01*
G75*
G02*
X14420000Y-40450000I175000J0D01*
G01*
X14770000Y-40450000D01*
G75*
G02*
X14945000Y-40625000I0J-175000D01*
G01*
X14945000Y-42325000D01*
G75*
G02*
X14770000Y-42500000I-175000J0D01*
G01*
G37*
G36*
G01*
X16040000Y-42500000D02*
X15690000Y-42500000D01*
G75*
G02*
X15515000Y-42325000I0J175000D01*
G01*
X15515000Y-40625000D01*
G75*
G02*
X15690000Y-40450000I175000J0D01*
G01*
X16040000Y-40450000D01*
G75*
G02*
X16215000Y-40625000I0J-175000D01*
G01*
X16215000Y-42325000D01*
G75*
G02*
X16040000Y-42500000I-175000J0D01*
G01*
G37*
G36*
G01*
X17310000Y-42500000D02*
X16960000Y-42500000D01*
G75*
G02*
X16785000Y-42325000I0J175000D01*
G01*
X16785000Y-40625000D01*
G75*
G02*
X16960000Y-40450000I175000J0D01*
G01*
X17310000Y-40450000D01*
G75*
G02*
X17485000Y-40625000I0J-175000D01*
G01*
X17485000Y-42325000D01*
G75*
G02*
X17310000Y-42500000I-175000J0D01*
G01*
G37*
G36*
G01*
X18580000Y-42500000D02*
X18230000Y-42500000D01*
G75*
G02*
X18055000Y-42325000I0J175000D01*
G01*
X18055000Y-40625000D01*
G75*
G02*
X18230000Y-40450000I175000J0D01*
G01*
X18580000Y-40450000D01*
G75*
G02*
X18755000Y-40625000I0J-175000D01*
G01*
X18755000Y-42325000D01*
G75*
G02*
X18580000Y-42500000I-175000J0D01*
G01*
G37*
G36*
G01*
X18580000Y-37550000D02*
X18230000Y-37550000D01*
G75*
G02*
X18055000Y-37375000I0J175000D01*
G01*
X18055000Y-35675000D01*
G75*
G02*
X18230000Y-35500000I175000J0D01*
G01*
X18580000Y-35500000D01*
G75*
G02*
X18755000Y-35675000I0J-175000D01*
G01*
X18755000Y-37375000D01*
G75*
G02*
X18580000Y-37550000I-175000J0D01*
G01*
G37*
G36*
G01*
X17310000Y-37550000D02*
X16960000Y-37550000D01*
G75*
G02*
X16785000Y-37375000I0J175000D01*
G01*
X16785000Y-35675000D01*
G75*
G02*
X16960000Y-35500000I175000J0D01*
G01*
X17310000Y-35500000D01*
G75*
G02*
X17485000Y-35675000I0J-175000D01*
G01*
X17485000Y-37375000D01*
G75*
G02*
X17310000Y-37550000I-175000J0D01*
G01*
G37*
G36*
G01*
X16040000Y-37550000D02*
X15690000Y-37550000D01*
G75*
G02*
X15515000Y-37375000I0J175000D01*
G01*
X15515000Y-35675000D01*
G75*
G02*
X15690000Y-35500000I175000J0D01*
G01*
X16040000Y-35500000D01*
G75*
G02*
X16215000Y-35675000I0J-175000D01*
G01*
X16215000Y-37375000D01*
G75*
G02*
X16040000Y-37550000I-175000J0D01*
G01*
G37*
G36*
G01*
X14770000Y-37550000D02*
X14420000Y-37550000D01*
G75*
G02*
X14245000Y-37375000I0J175000D01*
G01*
X14245000Y-35675000D01*
G75*
G02*
X14420000Y-35500000I175000J0D01*
G01*
X14770000Y-35500000D01*
G75*
G02*
X14945000Y-35675000I0J-175000D01*
G01*
X14945000Y-37375000D01*
G75*
G02*
X14770000Y-37550000I-175000J0D01*
G01*
G37*
G36*
G01*
X23781250Y-70200000D02*
X23218750Y-70200000D01*
G75*
G02*
X22975000Y-69956250I0J243750D01*
G01*
X22975000Y-69468750D01*
G75*
G02*
X23218750Y-69225000I243750J0D01*
G01*
X23781250Y-69225000D01*
G75*
G02*
X24025000Y-69468750I0J-243750D01*
G01*
X24025000Y-69956250D01*
G75*
G02*
X23781250Y-70200000I-243750J0D01*
G01*
G37*
G36*
G01*
X23781250Y-71775000D02*
X23218750Y-71775000D01*
G75*
G02*
X22975000Y-71531250I0J243750D01*
G01*
X22975000Y-71043750D01*
G75*
G02*
X23218750Y-70800000I243750J0D01*
G01*
X23781250Y-70800000D01*
G75*
G02*
X24025000Y-71043750I0J-243750D01*
G01*
X24025000Y-71531250D01*
G75*
G02*
X23781250Y-71775000I-243750J0D01*
G01*
G37*
G36*
G01*
X28025000Y-66718750D02*
X28025000Y-67281250D01*
G75*
G02*
X27781250Y-67525000I-243750J0D01*
G01*
X27293750Y-67525000D01*
G75*
G02*
X27050000Y-67281250I0J243750D01*
G01*
X27050000Y-66718750D01*
G75*
G02*
X27293750Y-66475000I243750J0D01*
G01*
X27781250Y-66475000D01*
G75*
G02*
X28025000Y-66718750I0J-243750D01*
G01*
G37*
G36*
G01*
X26450000Y-66718750D02*
X26450000Y-67281250D01*
G75*
G02*
X26206250Y-67525000I-243750J0D01*
G01*
X25718750Y-67525000D01*
G75*
G02*
X25475000Y-67281250I0J243750D01*
G01*
X25475000Y-66718750D01*
G75*
G02*
X25718750Y-66475000I243750J0D01*
G01*
X26206250Y-66475000D01*
G75*
G02*
X26450000Y-66718750I0J-243750D01*
G01*
G37*
D22*
X40150000Y-70450000D03*
X40150000Y-68550000D03*
X37850000Y-69500000D03*
G36*
G01*
X23665532Y-50665154D02*
X23267785Y-50267406D01*
G75*
G02*
X23267785Y-49922692I172357J172357D01*
G01*
X23612499Y-49577978D01*
G75*
G02*
X23957213Y-49577978I172357J-172357D01*
G01*
X24354961Y-49975726D01*
G75*
G02*
X24354961Y-50320440I-172357J-172357D01*
G01*
X24010247Y-50665154D01*
G75*
G02*
X23665533Y-50665154I-172357J172357D01*
G01*
G37*
G36*
G01*
X22551838Y-51778848D02*
X22154091Y-51381100D01*
G75*
G02*
X22154091Y-51036386I172357J172357D01*
G01*
X22498805Y-50691672D01*
G75*
G02*
X22843519Y-50691672I172357J-172357D01*
G01*
X23241267Y-51089420D01*
G75*
G02*
X23241267Y-51434134I-172357J-172357D01*
G01*
X22896553Y-51778848D01*
G75*
G02*
X22551839Y-51778848I-172357J172357D01*
G01*
G37*
G36*
G01*
X29614068Y-62399565D02*
X30011815Y-62797313D01*
G75*
G02*
X30011815Y-63142027I-172357J-172357D01*
G01*
X29667101Y-63486741D01*
G75*
G02*
X29322387Y-63486741I-172357J172357D01*
G01*
X28924639Y-63088993D01*
G75*
G02*
X28924639Y-62744279I172357J172357D01*
G01*
X29269353Y-62399565D01*
G75*
G02*
X29614067Y-62399565I172357J-172357D01*
G01*
G37*
G36*
G01*
X28500374Y-63513259D02*
X28898121Y-63911007D01*
G75*
G02*
X28898121Y-64255721I-172357J-172357D01*
G01*
X28553407Y-64600435D01*
G75*
G02*
X28208693Y-64600435I-172357J172357D01*
G01*
X27810945Y-64202687D01*
G75*
G02*
X27810945Y-63857973I172357J172357D01*
G01*
X28155659Y-63513259D01*
G75*
G02*
X28500373Y-63513259I172357J-172357D01*
G01*
G37*
G36*
G01*
X31797260Y-46068960D02*
X31399513Y-45671212D01*
G75*
G02*
X31399513Y-45326498I172357J172357D01*
G01*
X31744227Y-44981784D01*
G75*
G02*
X32088941Y-44981784I172357J-172357D01*
G01*
X32486689Y-45379532D01*
G75*
G02*
X32486689Y-45724246I-172357J-172357D01*
G01*
X32141975Y-46068960D01*
G75*
G02*
X31797261Y-46068960I-172357J172357D01*
G01*
G37*
G36*
G01*
X30683566Y-47182654D02*
X30285819Y-46784906D01*
G75*
G02*
X30285819Y-46440192I172357J172357D01*
G01*
X30630533Y-46095478D01*
G75*
G02*
X30975247Y-46095478I172357J-172357D01*
G01*
X31372995Y-46493226D01*
G75*
G02*
X31372995Y-46837940I-172357J-172357D01*
G01*
X31028281Y-47182654D01*
G75*
G02*
X30683567Y-47182654I-172357J172357D01*
G01*
G37*
G36*
G01*
X37899565Y-55297312D02*
X38297313Y-54899565D01*
G75*
G02*
X38642027Y-54899565I172357J-172357D01*
G01*
X38986741Y-55244279D01*
G75*
G02*
X38986741Y-55588993I-172357J-172357D01*
G01*
X38588993Y-55986741D01*
G75*
G02*
X38244279Y-55986741I-172357J172357D01*
G01*
X37899565Y-55642027D01*
G75*
G02*
X37899565Y-55297313I172357J172357D01*
G01*
G37*
G36*
G01*
X39013259Y-56411006D02*
X39411007Y-56013259D01*
G75*
G02*
X39755721Y-56013259I172357J-172357D01*
G01*
X40100435Y-56357973D01*
G75*
G02*
X40100435Y-56702687I-172357J-172357D01*
G01*
X39702687Y-57100435D01*
G75*
G02*
X39357973Y-57100435I-172357J172357D01*
G01*
X39013259Y-56755721D01*
G75*
G02*
X39013259Y-56411007I172357J172357D01*
G01*
G37*
M02*
