G04 #@! TF.GenerationSoftware,KiCad,Pcbnew,(5.1.6)-1*
G04 #@! TF.CreationDate,2020-09-04T00:39:58+09:00*
G04 #@! TF.ProjectId,forMnu,666f724d-6e75-42e6-9b69-6361645f7063,rev?*
G04 #@! TF.SameCoordinates,Original*
G04 #@! TF.FileFunction,Legend,Bot*
G04 #@! TF.FilePolarity,Positive*
%FSLAX46Y46*%
G04 Gerber Fmt 4.6, Leading zero omitted, Abs format (unit mm)*
G04 Created by KiCad (PCBNEW (5.1.6)-1) date 2020-09-04 00:39:58*
%MOMM*%
%LPD*%
G01*
G04 APERTURE LIST*
%ADD10C,0.150000*%
G04 APERTURE END LIST*
D10*
X75476190Y-70032142D02*
X75523809Y-70079761D01*
X75666666Y-70127380D01*
X75761904Y-70127380D01*
X75904761Y-70079761D01*
X76000000Y-69984523D01*
X76047619Y-69889285D01*
X76095238Y-69698809D01*
X76095238Y-69555952D01*
X76047619Y-69365476D01*
X76000000Y-69270238D01*
X75904761Y-69175000D01*
X75761904Y-69127380D01*
X75666666Y-69127380D01*
X75523809Y-69175000D01*
X75476190Y-69222619D01*
X75095238Y-69841666D02*
X74619047Y-69841666D01*
X75190476Y-70127380D02*
X74857142Y-69127380D01*
X74523809Y-70127380D01*
X74190476Y-70127380D02*
X74190476Y-69127380D01*
X73619047Y-70127380D01*
X73619047Y-69127380D01*
X72523809Y-69127380D02*
X71952380Y-69127380D01*
X72238095Y-70127380D02*
X72238095Y-69127380D01*
X71238095Y-70079761D02*
X71333333Y-70127380D01*
X71523809Y-70127380D01*
X71619047Y-70079761D01*
X71666666Y-69984523D01*
X71666666Y-69603571D01*
X71619047Y-69508333D01*
X71523809Y-69460714D01*
X71333333Y-69460714D01*
X71238095Y-69508333D01*
X71190476Y-69603571D01*
X71190476Y-69698809D01*
X71666666Y-69794047D01*
X70809523Y-70079761D02*
X70714285Y-70127380D01*
X70523809Y-70127380D01*
X70428571Y-70079761D01*
X70380952Y-69984523D01*
X70380952Y-69936904D01*
X70428571Y-69841666D01*
X70523809Y-69794047D01*
X70666666Y-69794047D01*
X70761904Y-69746428D01*
X70809523Y-69651190D01*
X70809523Y-69603571D01*
X70761904Y-69508333D01*
X70666666Y-69460714D01*
X70523809Y-69460714D01*
X70428571Y-69508333D01*
X70095238Y-69460714D02*
X69714285Y-69460714D01*
X69952380Y-69127380D02*
X69952380Y-69984523D01*
X69904761Y-70079761D01*
X69809523Y-70127380D01*
X69714285Y-70127380D01*
X69000000Y-70079761D02*
X69095238Y-70127380D01*
X69285714Y-70127380D01*
X69380952Y-70079761D01*
X69428571Y-69984523D01*
X69428571Y-69603571D01*
X69380952Y-69508333D01*
X69285714Y-69460714D01*
X69095238Y-69460714D01*
X69000000Y-69508333D01*
X68952380Y-69603571D01*
X68952380Y-69698809D01*
X69428571Y-69794047D01*
X68523809Y-70127380D02*
X68523809Y-69460714D01*
X68523809Y-69651190D02*
X68476190Y-69555952D01*
X68428571Y-69508333D01*
X68333333Y-69460714D01*
X68238095Y-69460714D01*
X67238095Y-69460714D02*
X67000000Y-70127380D01*
X66761904Y-69460714D01*
X66000000Y-70079761D02*
X66095238Y-70127380D01*
X66285714Y-70127380D01*
X66380952Y-70079761D01*
X66428571Y-69984523D01*
X66428571Y-69603571D01*
X66380952Y-69508333D01*
X66285714Y-69460714D01*
X66095238Y-69460714D01*
X66000000Y-69508333D01*
X65952380Y-69603571D01*
X65952380Y-69698809D01*
X66428571Y-69794047D01*
X65523809Y-70127380D02*
X65523809Y-69460714D01*
X65523809Y-69651190D02*
X65476190Y-69555952D01*
X65428571Y-69508333D01*
X65333333Y-69460714D01*
X65238095Y-69460714D01*
X64904761Y-70032142D02*
X64857142Y-70079761D01*
X64904761Y-70127380D01*
X64952380Y-70079761D01*
X64904761Y-70032142D01*
X64904761Y-70127380D01*
X63904761Y-70127380D02*
X64476190Y-70127380D01*
X64190476Y-70127380D02*
X64190476Y-69127380D01*
X64285714Y-69270238D01*
X64380952Y-69365476D01*
X64476190Y-69413095D01*
X79714285Y-71777380D02*
X79714285Y-70777380D01*
X79476190Y-70777380D01*
X79333333Y-70825000D01*
X79238095Y-70920238D01*
X79190476Y-71015476D01*
X79142857Y-71205952D01*
X79142857Y-71348809D01*
X79190476Y-71539285D01*
X79238095Y-71634523D01*
X79333333Y-71729761D01*
X79476190Y-71777380D01*
X79714285Y-71777380D01*
X78333333Y-71729761D02*
X78428571Y-71777380D01*
X78619047Y-71777380D01*
X78714285Y-71729761D01*
X78761904Y-71634523D01*
X78761904Y-71253571D01*
X78714285Y-71158333D01*
X78619047Y-71110714D01*
X78428571Y-71110714D01*
X78333333Y-71158333D01*
X78285714Y-71253571D01*
X78285714Y-71348809D01*
X78761904Y-71444047D01*
X77904761Y-71729761D02*
X77809523Y-71777380D01*
X77619047Y-71777380D01*
X77523809Y-71729761D01*
X77476190Y-71634523D01*
X77476190Y-71586904D01*
X77523809Y-71491666D01*
X77619047Y-71444047D01*
X77761904Y-71444047D01*
X77857142Y-71396428D01*
X77904761Y-71301190D01*
X77904761Y-71253571D01*
X77857142Y-71158333D01*
X77761904Y-71110714D01*
X77619047Y-71110714D01*
X77523809Y-71158333D01*
X77047619Y-71777380D02*
X77047619Y-71110714D01*
X77047619Y-70777380D02*
X77095238Y-70825000D01*
X77047619Y-70872619D01*
X77000000Y-70825000D01*
X77047619Y-70777380D01*
X77047619Y-70872619D01*
X76142857Y-71110714D02*
X76142857Y-71920238D01*
X76190476Y-72015476D01*
X76238095Y-72063095D01*
X76333333Y-72110714D01*
X76476190Y-72110714D01*
X76571428Y-72063095D01*
X76142857Y-71729761D02*
X76238095Y-71777380D01*
X76428571Y-71777380D01*
X76523809Y-71729761D01*
X76571428Y-71682142D01*
X76619047Y-71586904D01*
X76619047Y-71301190D01*
X76571428Y-71205952D01*
X76523809Y-71158333D01*
X76428571Y-71110714D01*
X76238095Y-71110714D01*
X76142857Y-71158333D01*
X75666666Y-71110714D02*
X75666666Y-71777380D01*
X75666666Y-71205952D02*
X75619047Y-71158333D01*
X75523809Y-71110714D01*
X75380952Y-71110714D01*
X75285714Y-71158333D01*
X75238095Y-71253571D01*
X75238095Y-71777380D01*
X74380952Y-71729761D02*
X74476190Y-71777380D01*
X74666666Y-71777380D01*
X74761904Y-71729761D01*
X74809523Y-71634523D01*
X74809523Y-71253571D01*
X74761904Y-71158333D01*
X74666666Y-71110714D01*
X74476190Y-71110714D01*
X74380952Y-71158333D01*
X74333333Y-71253571D01*
X74333333Y-71348809D01*
X74809523Y-71444047D01*
X73476190Y-71777380D02*
X73476190Y-70777380D01*
X73476190Y-71729761D02*
X73571428Y-71777380D01*
X73761904Y-71777380D01*
X73857142Y-71729761D01*
X73904761Y-71682142D01*
X73952380Y-71586904D01*
X73952380Y-71301190D01*
X73904761Y-71205952D01*
X73857142Y-71158333D01*
X73761904Y-71110714D01*
X73571428Y-71110714D01*
X73476190Y-71158333D01*
X72238095Y-71777380D02*
X72238095Y-70777380D01*
X72238095Y-71158333D02*
X72142857Y-71110714D01*
X71952380Y-71110714D01*
X71857142Y-71158333D01*
X71809523Y-71205952D01*
X71761904Y-71301190D01*
X71761904Y-71586904D01*
X71809523Y-71682142D01*
X71857142Y-71729761D01*
X71952380Y-71777380D01*
X72142857Y-71777380D01*
X72238095Y-71729761D01*
X71428571Y-71110714D02*
X71190476Y-71777380D01*
X70952380Y-71110714D02*
X71190476Y-71777380D01*
X71285714Y-72015476D01*
X71333333Y-72063095D01*
X71428571Y-72110714D01*
X69190476Y-71301190D02*
X69238095Y-71253571D01*
X69333333Y-71205952D01*
X69428571Y-71205952D01*
X69523809Y-71253571D01*
X69571428Y-71301190D01*
X69619047Y-71396428D01*
X69619047Y-71491666D01*
X69571428Y-71586904D01*
X69523809Y-71634523D01*
X69428571Y-71682142D01*
X69333333Y-71682142D01*
X69238095Y-71634523D01*
X69190476Y-71586904D01*
X69190476Y-71205952D02*
X69190476Y-71586904D01*
X69142857Y-71634523D01*
X69095238Y-71634523D01*
X69000000Y-71586904D01*
X68952380Y-71491666D01*
X68952380Y-71253571D01*
X69047619Y-71110714D01*
X69190476Y-71015476D01*
X69380952Y-70967857D01*
X69571428Y-71015476D01*
X69714285Y-71110714D01*
X69809523Y-71253571D01*
X69857142Y-71444047D01*
X69809523Y-71634523D01*
X69714285Y-71777380D01*
X69571428Y-71872619D01*
X69380952Y-71920238D01*
X69190476Y-71872619D01*
X69047619Y-71777380D01*
X68095238Y-71777380D02*
X68095238Y-71253571D01*
X68142857Y-71158333D01*
X68238095Y-71110714D01*
X68428571Y-71110714D01*
X68523809Y-71158333D01*
X68095238Y-71729761D02*
X68190476Y-71777380D01*
X68428571Y-71777380D01*
X68523809Y-71729761D01*
X68571428Y-71634523D01*
X68571428Y-71539285D01*
X68523809Y-71444047D01*
X68428571Y-71396428D01*
X68190476Y-71396428D01*
X68095238Y-71348809D01*
X67619047Y-71777380D02*
X67619047Y-70777380D01*
X67523809Y-71396428D02*
X67238095Y-71777380D01*
X67238095Y-71110714D02*
X67619047Y-71491666D01*
X66809523Y-71777380D02*
X66809523Y-71110714D01*
X66809523Y-70777380D02*
X66857142Y-70825000D01*
X66809523Y-70872619D01*
X66761904Y-70825000D01*
X66809523Y-70777380D01*
X66809523Y-70872619D01*
X66476190Y-71110714D02*
X66095238Y-71110714D01*
X66333333Y-70777380D02*
X66333333Y-71634523D01*
X66285714Y-71729761D01*
X66190476Y-71777380D01*
X66095238Y-71777380D01*
X65619047Y-71777380D02*
X65714285Y-71729761D01*
X65761904Y-71682142D01*
X65809523Y-71586904D01*
X65809523Y-71301190D01*
X65761904Y-71205952D01*
X65714285Y-71158333D01*
X65619047Y-71110714D01*
X65476190Y-71110714D01*
X65380952Y-71158333D01*
X65333333Y-71205952D01*
X65285714Y-71301190D01*
X65285714Y-71586904D01*
X65333333Y-71682142D01*
X65380952Y-71729761D01*
X65476190Y-71777380D01*
X65619047Y-71777380D01*
X65095238Y-71872619D02*
X64333333Y-71872619D01*
X63904761Y-70777380D02*
X63809523Y-70777380D01*
X63714285Y-70825000D01*
X63666666Y-70872619D01*
X63619047Y-70967857D01*
X63571428Y-71158333D01*
X63571428Y-71396428D01*
X63619047Y-71586904D01*
X63666666Y-71682142D01*
X63714285Y-71729761D01*
X63809523Y-71777380D01*
X63904761Y-71777380D01*
X64000000Y-71729761D01*
X64047619Y-71682142D01*
X64095238Y-71586904D01*
X64142857Y-71396428D01*
X64142857Y-71158333D01*
X64095238Y-70967857D01*
X64047619Y-70872619D01*
X64000000Y-70825000D01*
X63904761Y-70777380D01*
X63095238Y-71777380D02*
X62904761Y-71777380D01*
X62809523Y-71729761D01*
X62761904Y-71682142D01*
X62666666Y-71539285D01*
X62619047Y-71348809D01*
X62619047Y-70967857D01*
X62666666Y-70872619D01*
X62714285Y-70825000D01*
X62809523Y-70777380D01*
X63000000Y-70777380D01*
X63095238Y-70825000D01*
X63142857Y-70872619D01*
X63190476Y-70967857D01*
X63190476Y-71205952D01*
X63142857Y-71301190D01*
X63095238Y-71348809D01*
X63000000Y-71396428D01*
X62809523Y-71396428D01*
X62714285Y-71348809D01*
X62666666Y-71301190D01*
X62619047Y-71205952D01*
X61666666Y-71777380D02*
X62238095Y-71777380D01*
X61952380Y-71777380D02*
X61952380Y-70777380D01*
X62047619Y-70920238D01*
X62142857Y-71015476D01*
X62238095Y-71063095D01*
X60809523Y-71110714D02*
X60809523Y-71777380D01*
X61047619Y-70729761D02*
X61285714Y-71444047D01*
X60666666Y-71444047D01*
X60285714Y-71682142D02*
X60238095Y-71729761D01*
X60285714Y-71777380D01*
X60333333Y-71729761D01*
X60285714Y-71682142D01*
X60285714Y-71777380D01*
X35476190Y-70032142D02*
X35523809Y-70079761D01*
X35666666Y-70127380D01*
X35761904Y-70127380D01*
X35904761Y-70079761D01*
X36000000Y-69984523D01*
X36047619Y-69889285D01*
X36095238Y-69698809D01*
X36095238Y-69555952D01*
X36047619Y-69365476D01*
X36000000Y-69270238D01*
X35904761Y-69175000D01*
X35761904Y-69127380D01*
X35666666Y-69127380D01*
X35523809Y-69175000D01*
X35476190Y-69222619D01*
X35095238Y-69841666D02*
X34619047Y-69841666D01*
X35190476Y-70127380D02*
X34857142Y-69127380D01*
X34523809Y-70127380D01*
X34190476Y-70127380D02*
X34190476Y-69127380D01*
X33619047Y-70127380D01*
X33619047Y-69127380D01*
X32523809Y-69127380D02*
X31952380Y-69127380D01*
X32238095Y-70127380D02*
X32238095Y-69127380D01*
X31238095Y-70079761D02*
X31333333Y-70127380D01*
X31523809Y-70127380D01*
X31619047Y-70079761D01*
X31666666Y-69984523D01*
X31666666Y-69603571D01*
X31619047Y-69508333D01*
X31523809Y-69460714D01*
X31333333Y-69460714D01*
X31238095Y-69508333D01*
X31190476Y-69603571D01*
X31190476Y-69698809D01*
X31666666Y-69794047D01*
X30809523Y-70079761D02*
X30714285Y-70127380D01*
X30523809Y-70127380D01*
X30428571Y-70079761D01*
X30380952Y-69984523D01*
X30380952Y-69936904D01*
X30428571Y-69841666D01*
X30523809Y-69794047D01*
X30666666Y-69794047D01*
X30761904Y-69746428D01*
X30809523Y-69651190D01*
X30809523Y-69603571D01*
X30761904Y-69508333D01*
X30666666Y-69460714D01*
X30523809Y-69460714D01*
X30428571Y-69508333D01*
X30095238Y-69460714D02*
X29714285Y-69460714D01*
X29952380Y-69127380D02*
X29952380Y-69984523D01*
X29904761Y-70079761D01*
X29809523Y-70127380D01*
X29714285Y-70127380D01*
X29000000Y-70079761D02*
X29095238Y-70127380D01*
X29285714Y-70127380D01*
X29380952Y-70079761D01*
X29428571Y-69984523D01*
X29428571Y-69603571D01*
X29380952Y-69508333D01*
X29285714Y-69460714D01*
X29095238Y-69460714D01*
X29000000Y-69508333D01*
X28952380Y-69603571D01*
X28952380Y-69698809D01*
X29428571Y-69794047D01*
X28523809Y-70127380D02*
X28523809Y-69460714D01*
X28523809Y-69651190D02*
X28476190Y-69555952D01*
X28428571Y-69508333D01*
X28333333Y-69460714D01*
X28238095Y-69460714D01*
X27238095Y-69460714D02*
X27000000Y-70127380D01*
X26761904Y-69460714D01*
X26000000Y-70079761D02*
X26095238Y-70127380D01*
X26285714Y-70127380D01*
X26380952Y-70079761D01*
X26428571Y-69984523D01*
X26428571Y-69603571D01*
X26380952Y-69508333D01*
X26285714Y-69460714D01*
X26095238Y-69460714D01*
X26000000Y-69508333D01*
X25952380Y-69603571D01*
X25952380Y-69698809D01*
X26428571Y-69794047D01*
X25523809Y-70127380D02*
X25523809Y-69460714D01*
X25523809Y-69651190D02*
X25476190Y-69555952D01*
X25428571Y-69508333D01*
X25333333Y-69460714D01*
X25238095Y-69460714D01*
X24904761Y-70032142D02*
X24857142Y-70079761D01*
X24904761Y-70127380D01*
X24952380Y-70079761D01*
X24904761Y-70032142D01*
X24904761Y-70127380D01*
X23904761Y-70127380D02*
X24476190Y-70127380D01*
X24190476Y-70127380D02*
X24190476Y-69127380D01*
X24285714Y-69270238D01*
X24380952Y-69365476D01*
X24476190Y-69413095D01*
X39714285Y-71777380D02*
X39714285Y-70777380D01*
X39476190Y-70777380D01*
X39333333Y-70825000D01*
X39238095Y-70920238D01*
X39190476Y-71015476D01*
X39142857Y-71205952D01*
X39142857Y-71348809D01*
X39190476Y-71539285D01*
X39238095Y-71634523D01*
X39333333Y-71729761D01*
X39476190Y-71777380D01*
X39714285Y-71777380D01*
X38333333Y-71729761D02*
X38428571Y-71777380D01*
X38619047Y-71777380D01*
X38714285Y-71729761D01*
X38761904Y-71634523D01*
X38761904Y-71253571D01*
X38714285Y-71158333D01*
X38619047Y-71110714D01*
X38428571Y-71110714D01*
X38333333Y-71158333D01*
X38285714Y-71253571D01*
X38285714Y-71348809D01*
X38761904Y-71444047D01*
X37904761Y-71729761D02*
X37809523Y-71777380D01*
X37619047Y-71777380D01*
X37523809Y-71729761D01*
X37476190Y-71634523D01*
X37476190Y-71586904D01*
X37523809Y-71491666D01*
X37619047Y-71444047D01*
X37761904Y-71444047D01*
X37857142Y-71396428D01*
X37904761Y-71301190D01*
X37904761Y-71253571D01*
X37857142Y-71158333D01*
X37761904Y-71110714D01*
X37619047Y-71110714D01*
X37523809Y-71158333D01*
X37047619Y-71777380D02*
X37047619Y-71110714D01*
X37047619Y-70777380D02*
X37095238Y-70825000D01*
X37047619Y-70872619D01*
X37000000Y-70825000D01*
X37047619Y-70777380D01*
X37047619Y-70872619D01*
X36142857Y-71110714D02*
X36142857Y-71920238D01*
X36190476Y-72015476D01*
X36238095Y-72063095D01*
X36333333Y-72110714D01*
X36476190Y-72110714D01*
X36571428Y-72063095D01*
X36142857Y-71729761D02*
X36238095Y-71777380D01*
X36428571Y-71777380D01*
X36523809Y-71729761D01*
X36571428Y-71682142D01*
X36619047Y-71586904D01*
X36619047Y-71301190D01*
X36571428Y-71205952D01*
X36523809Y-71158333D01*
X36428571Y-71110714D01*
X36238095Y-71110714D01*
X36142857Y-71158333D01*
X35666666Y-71110714D02*
X35666666Y-71777380D01*
X35666666Y-71205952D02*
X35619047Y-71158333D01*
X35523809Y-71110714D01*
X35380952Y-71110714D01*
X35285714Y-71158333D01*
X35238095Y-71253571D01*
X35238095Y-71777380D01*
X34380952Y-71729761D02*
X34476190Y-71777380D01*
X34666666Y-71777380D01*
X34761904Y-71729761D01*
X34809523Y-71634523D01*
X34809523Y-71253571D01*
X34761904Y-71158333D01*
X34666666Y-71110714D01*
X34476190Y-71110714D01*
X34380952Y-71158333D01*
X34333333Y-71253571D01*
X34333333Y-71348809D01*
X34809523Y-71444047D01*
X33476190Y-71777380D02*
X33476190Y-70777380D01*
X33476190Y-71729761D02*
X33571428Y-71777380D01*
X33761904Y-71777380D01*
X33857142Y-71729761D01*
X33904761Y-71682142D01*
X33952380Y-71586904D01*
X33952380Y-71301190D01*
X33904761Y-71205952D01*
X33857142Y-71158333D01*
X33761904Y-71110714D01*
X33571428Y-71110714D01*
X33476190Y-71158333D01*
X32238095Y-71777380D02*
X32238095Y-70777380D01*
X32238095Y-71158333D02*
X32142857Y-71110714D01*
X31952380Y-71110714D01*
X31857142Y-71158333D01*
X31809523Y-71205952D01*
X31761904Y-71301190D01*
X31761904Y-71586904D01*
X31809523Y-71682142D01*
X31857142Y-71729761D01*
X31952380Y-71777380D01*
X32142857Y-71777380D01*
X32238095Y-71729761D01*
X31428571Y-71110714D02*
X31190476Y-71777380D01*
X30952380Y-71110714D02*
X31190476Y-71777380D01*
X31285714Y-72015476D01*
X31333333Y-72063095D01*
X31428571Y-72110714D01*
X29190476Y-71301190D02*
X29238095Y-71253571D01*
X29333333Y-71205952D01*
X29428571Y-71205952D01*
X29523809Y-71253571D01*
X29571428Y-71301190D01*
X29619047Y-71396428D01*
X29619047Y-71491666D01*
X29571428Y-71586904D01*
X29523809Y-71634523D01*
X29428571Y-71682142D01*
X29333333Y-71682142D01*
X29238095Y-71634523D01*
X29190476Y-71586904D01*
X29190476Y-71205952D02*
X29190476Y-71586904D01*
X29142857Y-71634523D01*
X29095238Y-71634523D01*
X29000000Y-71586904D01*
X28952380Y-71491666D01*
X28952380Y-71253571D01*
X29047619Y-71110714D01*
X29190476Y-71015476D01*
X29380952Y-70967857D01*
X29571428Y-71015476D01*
X29714285Y-71110714D01*
X29809523Y-71253571D01*
X29857142Y-71444047D01*
X29809523Y-71634523D01*
X29714285Y-71777380D01*
X29571428Y-71872619D01*
X29380952Y-71920238D01*
X29190476Y-71872619D01*
X29047619Y-71777380D01*
X28095238Y-71777380D02*
X28095238Y-71253571D01*
X28142857Y-71158333D01*
X28238095Y-71110714D01*
X28428571Y-71110714D01*
X28523809Y-71158333D01*
X28095238Y-71729761D02*
X28190476Y-71777380D01*
X28428571Y-71777380D01*
X28523809Y-71729761D01*
X28571428Y-71634523D01*
X28571428Y-71539285D01*
X28523809Y-71444047D01*
X28428571Y-71396428D01*
X28190476Y-71396428D01*
X28095238Y-71348809D01*
X27619047Y-71777380D02*
X27619047Y-70777380D01*
X27523809Y-71396428D02*
X27238095Y-71777380D01*
X27238095Y-71110714D02*
X27619047Y-71491666D01*
X26809523Y-71777380D02*
X26809523Y-71110714D01*
X26809523Y-70777380D02*
X26857142Y-70825000D01*
X26809523Y-70872619D01*
X26761904Y-70825000D01*
X26809523Y-70777380D01*
X26809523Y-70872619D01*
X26476190Y-71110714D02*
X26095238Y-71110714D01*
X26333333Y-70777380D02*
X26333333Y-71634523D01*
X26285714Y-71729761D01*
X26190476Y-71777380D01*
X26095238Y-71777380D01*
X25619047Y-71777380D02*
X25714285Y-71729761D01*
X25761904Y-71682142D01*
X25809523Y-71586904D01*
X25809523Y-71301190D01*
X25761904Y-71205952D01*
X25714285Y-71158333D01*
X25619047Y-71110714D01*
X25476190Y-71110714D01*
X25380952Y-71158333D01*
X25333333Y-71205952D01*
X25285714Y-71301190D01*
X25285714Y-71586904D01*
X25333333Y-71682142D01*
X25380952Y-71729761D01*
X25476190Y-71777380D01*
X25619047Y-71777380D01*
X25095238Y-71872619D02*
X24333333Y-71872619D01*
X23904761Y-70777380D02*
X23809523Y-70777380D01*
X23714285Y-70825000D01*
X23666666Y-70872619D01*
X23619047Y-70967857D01*
X23571428Y-71158333D01*
X23571428Y-71396428D01*
X23619047Y-71586904D01*
X23666666Y-71682142D01*
X23714285Y-71729761D01*
X23809523Y-71777380D01*
X23904761Y-71777380D01*
X24000000Y-71729761D01*
X24047619Y-71682142D01*
X24095238Y-71586904D01*
X24142857Y-71396428D01*
X24142857Y-71158333D01*
X24095238Y-70967857D01*
X24047619Y-70872619D01*
X24000000Y-70825000D01*
X23904761Y-70777380D01*
X23095238Y-71777380D02*
X22904761Y-71777380D01*
X22809523Y-71729761D01*
X22761904Y-71682142D01*
X22666666Y-71539285D01*
X22619047Y-71348809D01*
X22619047Y-70967857D01*
X22666666Y-70872619D01*
X22714285Y-70825000D01*
X22809523Y-70777380D01*
X23000000Y-70777380D01*
X23095238Y-70825000D01*
X23142857Y-70872619D01*
X23190476Y-70967857D01*
X23190476Y-71205952D01*
X23142857Y-71301190D01*
X23095238Y-71348809D01*
X23000000Y-71396428D01*
X22809523Y-71396428D01*
X22714285Y-71348809D01*
X22666666Y-71301190D01*
X22619047Y-71205952D01*
X21666666Y-71777380D02*
X22238095Y-71777380D01*
X21952380Y-71777380D02*
X21952380Y-70777380D01*
X22047619Y-70920238D01*
X22142857Y-71015476D01*
X22238095Y-71063095D01*
X20809523Y-71110714D02*
X20809523Y-71777380D01*
X21047619Y-70729761D02*
X21285714Y-71444047D01*
X20666666Y-71444047D01*
X20285714Y-71682142D02*
X20238095Y-71729761D01*
X20285714Y-71777380D01*
X20333333Y-71729761D01*
X20285714Y-71682142D01*
X20285714Y-71777380D01*
M02*
